<svg width="80" height="80" viewBox="0 0 80 80" fill="none" xmlns="http://www.w3.org/2000/svg">
<path opacity="0.3" d="M80 40C80 62.0914 62.0914 80 40 80C17.9086 80 0 62.0914 0 40C0 17.9086 17.9086 0 40 0C62.0914 0 80 17.9086 80 40ZM10.9071 40C10.9071 56.0675 23.9325 69.0929 40 69.0929C56.0675 69.0929 69.0929 56.0675 69.0929 40C69.0929 23.9325 56.0675 10.9071 40 10.9071C23.9325 10.9071 10.9071 23.9325 10.9071 40Z" fill="#2F2E30"/>
<circle cx="40" cy="40" r="29" fill="black"/>
<path d="M39.9829 22.5875C41.0044 22.5875 42.0039 22.7368 42.7573 23.0182L51.0747 26.1354H51.0757C53.2952 26.9621 55.0503 29.5077 55.0503 31.8668V44.2496C55.0503 45.3368 54.7061 46.5896 54.1235 47.7487C53.5775 48.8349 52.8401 49.8025 52.0308 50.4557L51.8677 50.5826L44.7007 55.9323L44.6948 55.9371C43.4121 56.9262 41.7235 57.4332 39.9995 57.4332C38.2768 57.4332 36.5844 56.9264 35.2642 55.9479H35.2632L28.0991 50.5992C27.2264 49.9485 26.4251 48.921 25.8423 47.7594C25.2594 46.5977 24.9165 45.3448 24.9165 44.2662V31.8668C24.9165 29.5076 26.6714 26.962 28.8911 26.1354H28.8921L37.2085 23.0182C37.9619 22.7367 38.9613 22.5875 39.9829 22.5875ZM40.0005 24.0856C39.2019 24.0878 38.375 24.195 37.7417 24.4313L37.7407 24.4323L29.4243 27.5485H29.4233C28.5958 27.8601 27.8546 28.5226 27.3237 29.2906C26.7927 30.059 26.4331 30.99 26.4331 31.8834V44.2662C26.4331 45.1607 26.7437 46.1894 27.2007 47.1012C27.6576 48.0128 28.2929 48.8727 29.0005 49.401L36.1675 54.7506C37.2293 55.5445 38.6279 55.9253 40.0015 55.9254C41.3754 55.9254 42.7777 55.5444 43.8472 54.7516L43.8491 54.7506L51.0151 49.401L51.0161 49.4C51.7309 48.864 52.3664 48.005 52.8218 47.0944C53.2771 46.1837 53.5835 45.1597 53.5835 44.2662V31.8668C53.5835 30.9808 53.2231 30.054 52.6929 29.2867C52.1624 28.5192 51.4218 27.854 50.5972 27.5338L50.5923 27.5319L42.2749 24.4147L42.2661 24.4117C41.628 24.1865 40.7999 24.0834 40.0005 24.0856Z" fill="#FAFAFA" stroke="#FAFAFA"/>
<path d="M44.4038 34.77C44.6919 34.4822 45.1754 34.482 45.4634 34.77C45.7513 35.058 45.7511 35.5415 45.4634 35.8296L38.2964 42.9966C38.1451 43.1478 37.9573 43.2163 37.7661 43.2163C37.5751 43.2162 37.388 43.1477 37.2368 42.9966L34.5532 40.313C34.2654 40.0249 34.2652 39.5414 34.5532 39.2534C34.8412 38.9654 35.3247 38.9655 35.6128 39.2534L37.7661 41.4067L38.1206 41.0532L44.4038 34.77Z" fill="#FAFAFA" stroke="#FAFAFA"/>
</svg>
