<svg width="153" height="51" viewBox="0 0 153 51" fill="none" xmlns="http://www.w3.org/2000/svg">
<mask id="mask0_1_1532" style="mask-type:luminance" maskUnits="userSpaceOnUse" x="0" y="0" width="153" height="51">
<path d="M153 0H0V51H153V0Z" fill="white"/>
</mask>
<g mask="url(#mask0_1_1532)">
<path d="M140.816 2.20375e-06H12.1908C11.722 2.20375e-06 11.2588 2.17976e-06 10.7911 0.00255218C10.3997 0.00510218 10.0114 0.0125102 9.61619 0.0187452C8.75765 0.0288192 7.90112 0.104139 7.05405 0.24405C6.20817 0.387006 5.38879 0.65652 4.62362 1.04347C3.85939 1.4337 3.16109 1.94076 2.55405 2.54627C1.94383 3.15006 1.43516 3.84797 1.0476 4.61315C0.65898 5.37682 0.389507 6.19515 0.248492 7.03989C0.106136 7.88356 0.0295331 8.73696 0.0193705 9.59244C0.00750526 9.98339 0.00625225 10.3756 0 10.7665V40.2372C0.00625225 40.6331 0.00750526 41.0166 0.0193705 41.4126C0.0295362 42.2681 0.106139 43.1214 0.248492 43.9651C0.389118 44.8103 0.658607 45.6291 1.0476 46.3931C1.43498 47.1558 1.94372 47.8508 2.55405 48.4513C3.15879 49.0595 3.85754 49.5669 4.62362 49.9541C5.38879 50.3421 6.20808 50.6132 7.05405 50.7584C7.90126 50.8972 8.7577 50.9725 9.61619 50.9838C10.0114 50.9925 10.3997 50.9975 10.7911 50.9975C11.2587 51 11.722 51 12.1908 51H140.816C141.276 51 141.742 51 142.202 50.9975C142.592 50.9975 142.991 50.9925 143.381 50.9838C144.238 50.9731 145.092 50.8978 145.938 50.7584C146.787 50.6122 147.609 50.3412 148.378 49.9541C149.143 49.5667 149.841 49.0593 150.445 48.4513C151.054 47.8485 151.564 47.1539 151.956 46.3931C152.342 45.6286 152.609 44.8098 152.748 43.9651C152.89 43.1213 152.97 42.2682 152.985 41.4126C152.99 41.0166 152.99 40.6331 152.99 40.2372C153 39.774 153 39.3134 153 38.8426V12.1586C153 11.6917 153 11.2285 152.99 10.7665C152.99 10.3756 152.99 9.98339 152.985 9.59239C152.97 8.73684 152.89 7.88363 152.748 7.03984C152.609 6.19559 152.342 5.37732 151.956 4.6131C151.167 3.07938 149.915 1.83093 148.378 1.04336C147.609 0.65735 146.787 0.387909 145.938 0.243935C145.093 0.103408 144.238 0.0280622 143.381 0.0185662C142.991 0.0123442 142.592 0.00487318 142.202 0.00238618C141.742 -0.000163819 141.276 2.20375e-06 140.816 2.20375e-06Z" fill="#A6A6A6"/>
<path d="M10.7974 49.884C10.4078 49.884 10.0277 49.8791 9.64118 49.8704C8.84051 49.86 8.04171 49.7905 7.25133 49.6624C6.51435 49.5359 5.80041 49.3004 5.13306 48.9639C4.47183 48.6301 3.86874 48.1925 3.34688 47.6677C2.81748 47.1491 2.37672 46.5477 2.04208 45.8872C1.70376 45.2224 1.46961 44.5098 1.34781 43.7742C1.21628 42.9839 1.14511 42.1847 1.13493 41.3836C1.12682 41.1147 1.11621 40.2194 1.11621 40.2194V10.7662C1.11621 10.7662 1.12751 9.88455 1.13499 9.6256C1.14474 8.82577 1.2155 8.02784 1.34664 7.23871C1.46866 6.50115 1.70299 5.78651 2.04149 5.11953C2.3749 4.45948 2.81321 3.85758 3.33943 3.33715C3.86506 2.81177 4.47008 2.37187 5.13243 2.0335C5.79825 1.69802 6.51084 1.46424 7.24633 1.33997C8.03931 1.21065 8.84088 1.14072 9.64432 1.1308L10.798 1.11523H142.196L143.363 1.13142C144.159 1.14086 144.954 1.21015 145.739 1.33872C146.482 1.46455 147.202 1.69996 147.876 2.03723C149.203 2.71916 150.282 3.79804 150.963 5.12264C151.297 5.78502 151.527 6.49383 151.648 7.22502C151.78 8.02062 151.855 8.82483 151.87 9.63122C151.874 9.99226 151.874 10.3802 151.874 10.7662C151.884 11.2443 151.884 11.6994 151.884 12.1582V38.8423C151.884 39.3055 151.884 39.7575 151.874 40.2132C151.874 40.6278 151.874 41.0076 151.869 41.3985C151.854 42.1905 151.781 42.9804 151.65 43.7617C151.531 44.5026 151.298 45.2207 150.96 45.891C150.623 46.5443 150.185 47.1406 149.661 47.6577C149.139 48.1853 148.535 48.6255 147.872 48.9614C147.2 49.3006 146.481 49.5369 145.739 49.6624C144.949 49.7912 144.15 49.8607 143.349 49.8704C142.975 49.8791 142.583 49.884 142.202 49.884L140.816 49.8866L10.7974 49.884Z" fill="black"/>
<path d="M31.6691 25.8833C31.6828 24.8191 31.9663 23.7756 32.4931 22.85C33.0199 21.9244 33.7729 21.1468 34.6821 20.5894C34.1045 19.7668 33.3426 19.0899 32.4567 18.6123C31.5709 18.1347 30.5856 17.8697 29.5791 17.8383C27.432 17.6136 25.3506 19.1195 24.2565 19.1195C23.1412 19.1195 21.4567 17.8607 19.6427 17.8979C18.4694 17.9357 17.3259 18.2759 16.3237 18.8854C15.3214 19.495 14.4946 20.353 13.9237 21.3759C11.451 25.6451 13.2954 31.9195 15.6642 35.3704C16.8493 37.0602 18.2343 38.9478 20.0466 38.8809C21.8201 38.8075 22.4825 37.7531 24.6232 37.7531C26.7441 37.7531 27.3655 38.8809 29.2146 38.8383C31.1176 38.8075 32.3166 37.141 33.4601 35.4351C34.3116 34.2311 34.9668 32.9003 35.4015 31.4922C34.2959 31.0259 33.3524 30.2454 32.6887 29.2479C32.025 28.2505 31.6703 27.0803 31.6691 25.8833Z" fill="white"/>
<path d="M28.1764 15.5687C29.214 14.3266 29.7252 12.7301 29.6014 11.1182C28.0161 11.2842 26.5518 12.0398 25.5002 13.2342C24.9861 13.8177 24.5923 14.4966 24.3413 15.232C24.0904 15.9674 23.9873 16.7448 24.0379 17.52C24.8308 17.5281 25.6152 17.3567 26.3321 17.0188C27.0489 16.6808 27.6795 16.185 28.1764 15.5687Z" fill="white"/>
<path d="M54.0869 34.6022H48.0349L46.5815 38.8817H44.0181L49.7505 23.0488H52.4137L58.1461 38.8817H55.539L54.0869 34.6022ZM48.6617 32.6275H53.4589L51.094 25.6822H51.0278L48.6617 32.6275Z" fill="white"/>
<path d="M70.526 33.1111C70.526 36.6983 68.6006 39.003 65.6951 39.003C64.9591 39.0414 64.2271 38.8724 63.583 38.5152C62.9388 38.158 62.4086 37.6272 62.0529 36.9834H61.9979V42.701H59.6218V27.3388H61.9218V29.2587H61.9655C62.3375 28.6181 62.8767 28.09 63.5258 27.7307C64.1748 27.3713 64.9094 27.1941 65.6514 27.218C68.5893 27.218 70.526 29.5339 70.526 33.1111ZM68.0837 33.1111C68.0837 30.7741 66.8725 29.2376 65.0246 29.2376C63.2091 29.2376 61.988 30.8064 61.988 33.1111C61.988 35.437 63.2091 36.9947 65.0246 36.9947C66.8726 36.9947 68.0837 35.4694 68.0837 33.1111Z" fill="white"/>
<path d="M83.267 33.1111C83.267 36.6983 81.3416 39.003 78.4361 39.003C77.7001 39.0414 76.9681 38.8723 76.3239 38.5152C75.6798 38.158 75.1495 37.6272 74.7939 36.9834H74.7389V42.701H72.3628V27.3388H74.6627V29.2587H74.7064C75.0784 28.6181 75.6177 28.09 76.2667 27.7306C76.9158 27.3713 77.6504 27.1941 78.3923 27.218C81.3304 27.218 83.267 29.5339 83.267 33.1111ZM80.8247 33.1111C80.8247 30.7741 79.6135 29.2376 77.7656 29.2376C75.9501 29.2376 74.7289 30.8064 74.7289 33.1111C74.7289 35.437 75.9501 36.9947 77.7656 36.9947C79.6135 36.9947 80.8247 35.4694 80.8247 33.1111Z" fill="white"/>
<path d="M91.6877 34.4707C91.8638 36.0408 93.3933 37.0717 95.4835 37.0717C97.4863 37.0717 98.9272 36.0407 98.9272 34.625C98.9272 33.3961 98.0581 32.6603 96.0004 32.156L93.9427 31.6616C91.0272 30.9594 89.6737 29.5997 89.6737 27.3934C89.6737 24.6616 92.0611 22.7852 95.451 22.7852C98.806 22.7852 101.106 24.6616 101.183 27.3934H98.7848C98.6412 25.8133 97.3314 24.8596 95.4173 24.8596C93.5032 24.8596 92.1934 25.8245 92.1934 27.229C92.1934 28.3484 93.0299 29.0071 95.0764 29.5113L96.8257 29.9396C100.083 30.7078 101.437 32.0128 101.437 34.3286C101.437 37.2908 99.0707 39.146 95.3074 39.146C91.7863 39.146 89.409 37.3344 89.2554 34.4706L91.6877 34.4707Z" fill="white"/>
<path d="M106.565 24.6064V27.3382H108.766V29.2146H106.565V35.5784C106.565 36.567 107.006 37.0277 107.973 37.0277C108.235 37.0231 108.496 37.0048 108.755 36.9729V38.838C108.32 38.9191 107.878 38.9558 107.435 38.9476C105.091 38.9476 104.178 38.0698 104.178 35.8311V29.2146H102.494V27.3382H104.177V24.6064H106.565Z" fill="white"/>
<path d="M110.041 33.1106C110.041 29.4786 112.186 27.1963 115.531 27.1963C118.887 27.1963 121.023 29.4786 121.023 33.1106C121.023 36.7526 118.899 39.0249 115.531 39.0249C112.165 39.0249 110.041 36.7526 110.041 33.1106ZM118.601 33.1106C118.601 30.6192 117.457 29.1487 115.531 29.1487C113.606 29.1487 112.462 30.6304 112.462 33.1106C112.462 35.6121 113.606 37.0714 115.531 37.0714C117.457 37.0714 118.601 35.6121 118.601 33.1106Z" fill="white"/>
<path d="M122.981 27.3386H125.248V29.3033H125.303C125.456 28.6897 125.816 28.1474 126.324 27.7676C126.831 27.3878 127.453 27.1936 128.087 27.2178C128.361 27.2168 128.634 27.2465 128.901 27.3062V29.5225C128.555 29.4172 128.195 29.3688 127.834 29.3793C127.488 29.3653 127.144 29.426 126.825 29.5572C126.505 29.6884 126.218 29.887 125.983 30.1393C125.748 30.3916 125.57 30.6917 125.462 31.0189C125.354 31.3462 125.318 31.6928 125.358 32.0351V38.882H122.981V27.3386Z" fill="white"/>
<path d="M139.857 35.4913C139.537 37.5868 137.491 39.0249 134.872 39.0249C131.505 39.0249 129.415 36.775 129.415 33.1654C129.415 29.5446 131.516 27.1963 134.772 27.1963C137.975 27.1963 139.989 29.3902 139.989 32.8903V33.7021H131.813V33.8453C131.775 34.2701 131.829 34.6981 131.97 35.1008C132.11 35.5035 132.336 35.8717 132.63 36.1809C132.925 36.4901 133.282 36.7334 133.678 36.8944C134.074 37.0554 134.5 37.1306 134.927 37.1149C135.489 37.1674 136.052 37.0377 136.534 36.7452C137.015 36.4526 137.39 36.0129 137.6 35.4913H139.857ZM131.824 32.0461H137.612C137.633 31.6641 137.575 31.2818 137.441 30.9233C137.307 30.5647 137.101 30.2377 136.834 29.9625C136.567 29.6874 136.247 29.4703 135.892 29.3246C135.537 29.179 135.156 29.1081 134.772 29.1163C134.385 29.114 134.002 29.1881 133.644 29.3344C133.286 29.4807 132.96 29.6963 132.686 29.9687C132.412 30.2411 132.195 30.5649 132.047 30.9214C131.899 31.278 131.823 31.6602 131.824 32.0461Z" fill="white"/>
<path d="M48.3638 11.1317C48.862 11.0961 49.3619 11.1711 49.8274 11.3515C50.293 11.5318 50.7126 11.8129 51.056 12.1745C51.3994 12.5361 51.658 12.9692 51.8133 13.4426C51.9685 13.916 52.0164 14.4178 51.9536 14.9119C51.9536 17.3424 50.6363 18.7394 48.3638 18.7394H45.6082V11.1317H48.3638ZM46.7931 17.6635H48.2315C48.5874 17.6848 48.9437 17.6266 49.2742 17.4932C49.6048 17.3598 49.9014 17.1546 50.1424 16.8925C50.3834 16.6304 50.5627 16.318 50.6674 15.9781C50.7721 15.6381 50.7994 15.2792 50.7474 14.9274C50.7956 14.577 50.7655 14.2203 50.6593 13.8828C50.553 13.5454 50.3732 13.2356 50.1327 12.9755C49.8923 12.7155 49.5971 12.5118 49.2684 12.3789C48.9397 12.246 48.5856 12.1872 48.2315 12.2068H46.7931V17.6635Z" fill="white"/>
<path d="M53.2921 15.8666C53.2559 15.4893 53.2992 15.1087 53.4192 14.749C53.5392 14.3894 53.7332 14.0587 53.9889 13.7782C54.2445 13.4978 54.5561 13.2737 54.9037 13.1203C55.2513 12.967 55.6272 12.8877 56.0072 12.8877C56.3873 12.8877 56.7632 12.967 57.1108 13.1203C57.4584 13.2737 57.77 13.4978 58.0256 13.7782C58.2813 14.0587 58.4753 14.3894 58.5953 14.749C58.7153 15.1087 58.7586 15.4893 58.7224 15.8666C58.7592 16.2443 58.7165 16.6255 58.5968 16.9857C58.4771 17.3459 58.2832 17.6772 58.0275 17.9582C57.7718 18.2393 57.46 18.4638 57.112 18.6175C56.7641 18.7712 56.3878 18.8506 56.0072 18.8506C55.6267 18.8506 55.2504 18.7712 54.9025 18.6175C54.5545 18.4638 54.2427 18.2393 53.987 17.9582C53.7313 17.6772 53.5374 17.3459 53.4177 16.9857C53.298 16.6255 53.2553 16.2443 53.2921 15.8666ZM57.5536 15.8666C57.5536 14.6221 56.993 13.8944 56.0091 13.8944C55.0215 13.8944 54.4659 14.6221 54.4659 15.8666C54.4659 17.1211 55.0215 17.8433 56.0091 17.8433C56.993 17.8432 57.5536 17.1161 57.5536 15.8666Z" fill="white"/>
<path d="M65.9406 18.7392H64.7619L63.572 14.5108H63.4821L62.2972 18.7392H61.1297L59.5427 12.998H60.6952L61.7266 17.3789H61.8115L62.9951 12.998H64.0852L65.2689 17.3789H65.3588L66.3851 12.998H67.5214L65.9406 18.7392Z" fill="white"/>
<path d="M68.856 12.9984H69.9497V13.9104H70.0347C70.1787 13.5828 70.4216 13.3082 70.7296 13.1249C71.0376 12.9415 71.3952 12.8586 71.7527 12.8875C72.0329 12.8665 72.3142 12.9087 72.5758 13.0108C72.8374 13.1129 73.0726 13.2724 73.2639 13.4775C73.4553 13.6826 73.598 13.9279 73.6813 14.1955C73.7647 14.463 73.7866 14.7458 73.7455 15.0229V18.7395H72.6093V15.3074C72.6093 14.3848 72.2072 13.926 71.3669 13.926C71.1767 13.9171 70.9869 13.9494 70.8103 14.0206C70.6338 14.0918 70.4748 14.2002 70.3443 14.3384C70.2137 14.4766 70.1146 14.6413 70.0538 14.8212C69.9931 15.0012 69.972 15.1921 69.9922 15.3809V18.7396H68.856V12.9984Z" fill="white"/>
<path d="M75.5562 10.7568H76.6924V18.7392H75.5562V10.7568Z" fill="white"/>
<path d="M78.2718 15.8657C78.2357 15.4883 78.279 15.1076 78.399 14.748C78.519 14.3883 78.7131 14.0577 78.9687 13.7772C79.2244 13.4967 79.536 13.2726 79.8836 13.1192C80.2313 12.9659 80.6072 12.8867 80.9873 12.8867C81.3674 12.8867 81.7433 12.9659 82.0909 13.1192C82.4385 13.2726 82.7501 13.4967 83.0058 13.7772C83.2615 14.0577 83.4555 14.3883 83.5755 14.748C83.6955 15.1076 83.7389 15.4883 83.7027 15.8657C83.7395 16.2434 83.6967 16.6246 83.577 16.9848C83.4573 17.345 83.2634 17.6763 83.0076 17.9573C82.7519 18.2383 82.44 18.4629 82.0921 18.6165C81.7441 18.7702 81.3678 18.8496 80.9873 18.8496C80.6067 18.8496 80.2304 18.7702 79.8824 18.6165C79.5345 18.4629 79.2226 18.2383 78.9669 17.9573C78.7112 17.6763 78.5172 17.345 78.3975 16.9848C78.2778 16.6246 78.235 16.2434 78.2718 15.8657ZM82.5333 15.8657C82.5333 14.6212 81.9727 13.8934 80.9888 13.8934C80.0012 13.8934 79.4456 14.6212 79.4456 15.8657C79.4456 17.1201 80.0012 17.8423 80.9888 17.8423C81.9727 17.8423 82.5333 17.1151 82.5333 15.8657Z" fill="white"/>
<path d="M84.8989 17.1162C84.8989 16.0827 85.6706 15.4869 87.0403 15.4022L88.5998 15.3126V14.817C88.5998 14.2107 88.1978 13.8683 87.4211 13.8683C86.7868 13.8683 86.3473 14.1005 86.2212 14.5064H85.1212C85.2373 13.5203 86.1675 12.8877 87.4736 12.8877C88.917 12.8877 89.7311 13.6043 89.7311 14.817V18.7398H88.6373V17.933H88.5474C88.3649 18.2224 88.1087 18.4583 87.8048 18.6167C87.501 18.775 87.1605 18.8502 86.818 18.8344C86.5763 18.8594 86.3321 18.8337 86.1009 18.7589C85.8698 18.6841 85.657 18.5617 85.4762 18.3999C85.2954 18.238 85.1506 18.0401 85.0512 17.819C84.9517 17.5979 84.8999 17.3585 84.8989 17.1162ZM88.5998 16.6256V16.1456L87.1939 16.2352C86.401 16.2881 86.0414 16.5571 86.0414 17.0632C86.0414 17.5799 86.4909 17.8806 87.109 17.8806C87.2901 17.8989 87.4731 17.8807 87.6469 17.827C87.8208 17.7734 87.9821 17.6854 88.1212 17.5683C88.2603 17.4512 88.3744 17.3074 88.4566 17.1454C88.5388 16.9835 88.5875 16.8067 88.5998 16.6256Z" fill="white"/>
<path d="M91.2244 15.8661C91.2244 14.052 92.1596 12.9028 93.6142 12.9028C93.974 12.8862 94.3311 12.9722 94.6438 13.1505C94.9564 13.3289 95.2117 13.5923 95.3797 13.91H95.4647V10.7568H96.6009V18.7392H95.5121V17.8322H95.4222C95.2412 18.1477 94.977 18.4078 94.6583 18.5844C94.3396 18.761 93.9785 18.8472 93.6142 18.8338C92.1496 18.8339 91.2244 17.6846 91.2244 15.8661ZM92.3981 15.8661C92.3981 17.0839 92.9737 17.8166 93.9364 17.8166C94.8941 17.8166 95.4859 17.0733 95.4859 15.8711C95.4859 14.6746 94.8878 13.9206 93.9364 13.9206C92.9799 13.9206 92.3981 14.6584 92.3981 15.8661Z" fill="white"/>
<path d="M101.302 15.8666C101.266 15.4893 101.309 15.1087 101.429 14.749C101.549 14.3894 101.743 14.0587 101.999 13.7782C102.254 13.4978 102.566 13.2737 102.913 13.1203C103.261 12.967 103.637 12.8877 104.017 12.8877C104.397 12.8877 104.773 12.967 105.121 13.1203C105.468 13.2737 105.78 13.4978 106.035 13.7782C106.291 14.0587 106.485 14.3894 106.605 14.749C106.725 15.1087 106.768 15.4893 106.732 15.8666C106.769 16.2443 106.726 16.6255 106.607 16.9857C106.487 17.3459 106.293 17.6772 106.037 17.9582C105.782 18.2393 105.47 18.4638 105.122 18.6175C104.774 18.7712 104.398 18.8506 104.017 18.8506C103.636 18.8506 103.26 18.7712 102.912 18.6175C102.564 18.4638 102.252 18.2393 101.997 17.9582C101.741 17.6772 101.547 17.3459 101.427 16.9857C101.308 16.6255 101.265 16.2443 101.302 15.8666ZM105.563 15.8666C105.563 14.6221 105.003 13.8944 104.019 13.8944C103.031 13.8944 102.476 14.6221 102.476 15.8666C102.476 17.1211 103.031 17.8433 104.019 17.8433C105.003 17.8432 105.563 17.1161 105.563 15.8666Z" fill="white"/>
<path d="M108.257 12.9984H109.35V13.9104H109.435C109.579 13.5828 109.822 13.3082 110.13 13.1249C110.438 12.9415 110.796 12.8586 111.153 12.8875C111.434 12.8665 111.715 12.9087 111.976 13.0108C112.238 13.1129 112.473 13.2724 112.665 13.4775C112.856 13.6826 112.999 13.9279 113.082 14.1955C113.165 14.463 113.187 14.7458 113.146 15.0229V18.7395H112.01V15.3074C112.01 14.3848 111.608 13.926 110.768 13.926C110.577 13.9171 110.387 13.9494 110.211 14.0206C110.034 14.0918 109.875 14.2002 109.745 14.3384C109.614 14.4766 109.515 14.6413 109.454 14.8212C109.394 15.0012 109.373 15.1921 109.393 15.3809V18.7396H108.257V12.9984Z" fill="white"/>
<path d="M119.567 11.5684V13.0239H120.814V13.9783H119.567V16.9305C119.567 17.5319 119.815 17.7952 120.381 17.7952C120.526 17.7948 120.67 17.786 120.814 17.7691V18.7129C120.61 18.7493 120.403 18.7686 120.196 18.7708C118.932 18.7708 118.429 18.3275 118.429 17.2206V13.9783H117.515V13.0239H118.429V11.5684H119.567Z" fill="white"/>
<path d="M122.366 10.7568H123.492V13.9206H123.582C123.733 13.59 123.983 13.3138 124.297 13.1298C124.611 12.9458 124.975 12.8628 125.338 12.8922C125.617 12.877 125.895 12.9234 126.154 13.028C126.412 13.1326 126.645 13.2929 126.834 13.4973C127.023 13.7017 127.165 13.9453 127.249 14.2107C127.333 14.4761 127.358 14.7567 127.321 15.0325V18.7392H126.183V15.312C126.183 14.395 125.755 13.9306 124.952 13.9306C124.757 13.9146 124.56 13.9414 124.377 14.009C124.193 14.0767 124.026 14.1835 123.888 14.3222C123.75 14.4608 123.644 14.6279 123.577 14.8116C123.511 14.9954 123.485 15.1915 123.502 15.3861V18.7392H122.366V10.7568Z" fill="white"/>
<path d="M133.945 17.1886C133.791 17.7133 133.457 18.1672 133.001 18.4709C132.544 18.7745 131.996 18.9086 131.451 18.8496C131.071 18.8596 130.694 18.7872 130.346 18.6373C129.998 18.4875 129.686 18.2638 129.433 17.9818C129.18 17.6999 128.992 17.3664 128.881 17.0045C128.77 16.6427 128.739 16.2611 128.791 15.8862C128.741 15.5103 128.772 15.1279 128.882 14.7649C128.993 14.4019 129.18 14.0669 129.432 13.7825C129.684 13.4981 129.994 13.2709 130.341 13.1164C130.689 12.9618 131.065 12.8835 131.446 12.8868C133.048 12.8868 134.014 13.9782 134.014 15.781V16.1764H129.949V16.2399C129.931 16.4506 129.957 16.6626 130.027 16.8625C130.096 17.0623 130.206 17.2456 130.35 17.4004C130.495 17.5553 130.67 17.6783 130.865 17.7617C131.06 17.8451 131.27 17.887 131.482 17.8846C131.754 17.9172 132.029 17.8684 132.273 17.7444C132.517 17.6205 132.718 17.427 132.852 17.1886H133.945ZM129.949 15.3384H132.857C132.871 15.1457 132.845 14.9522 132.78 14.7702C132.714 14.5882 132.612 14.4219 132.478 14.2818C132.345 14.1417 132.183 14.0311 132.005 13.9569C131.826 13.8827 131.633 13.8467 131.439 13.8511C131.243 13.8486 131.048 13.8854 130.866 13.9593C130.684 14.0332 130.518 14.1427 130.38 14.2813C130.241 14.4199 130.131 14.5848 130.057 14.7664C129.983 14.9479 129.946 15.1424 129.949 15.3384Z" fill="white"/>
</g>
</svg>
