<svg width="214" height="157" viewBox="0 0 214 157" fill="none" xmlns="http://www.w3.org/2000/svg">
<g clip-path="url(#clip0_1_987)">
<path fill-rule="evenodd" clip-rule="evenodd" d="M183.978 153.358C183.112 153.38 182.393 152.695 182.372 151.828L181.38 111.694C181.36 110.828 182.044 110.108 182.91 110.087C183.776 110.066 184.496 110.75 184.517 111.616L185.508 151.752C185.529 152.618 184.844 153.337 183.978 153.358Z" fill="#2E2A42"/>
<path d="M196.725 152.943L184.348 153.338C183.161 153.376 182.179 152.415 182.179 151.228C182.182 146.194 182.242 146.137 185.938 146.33C191.897 146.642 195.619 148.345 197.89 149.976C199.276 150.971 198.431 152.888 196.725 152.943Z" fill="#2E2A42"/>
<path fill-rule="evenodd" clip-rule="evenodd" d="M167.846 153.359C168.712 153.38 169.431 152.695 169.453 151.829L170.444 111.695C170.465 110.829 169.781 110.109 168.915 110.087C168.048 110.066 167.329 110.751 167.307 111.617L166.317 151.752C166.295 152.618 166.98 153.337 167.846 153.359Z" fill="#2E2A42"/>
<path d="M155.097 152.943L167.277 153.331C168.545 153.371 169.551 152.28 169.501 151.012C169.313 146.251 170.308 146.11 166.673 146.3C160.562 146.62 156.52 148.413 154.039 150.089C152.625 151.045 153.392 152.888 155.097 152.943Z" fill="#2E2A42"/>
<path d="M200.612 88.0155C203.807 91.607 203.17 95.5953 202.595 99.9172C204.474 105.827 212.743 116.717 213.401 122.303C213.933 126.823 210.279 131.052 205.81 131.469C187.999 133.14 167.64 130.164 149.546 131.469C144.138 131.145 141.08 126.573 142.071 121.331C143.241 115.14 151.196 104.887 153.274 98.3621C151.092 91.5026 151.488 84.7162 157.46 79.9763C159.507 78.3579 162.973 77.6375 164.038 76.5726C167.233 73.3569 168.214 64.8688 172.777 61.6635C177.903 58.0616 182.414 60.442 185.305 65.2446C188.198 70.0473 191.747 80.634 194.765 84.1525C195.872 85.4367 199.056 86.2719 200.612 88.0259V88.0155Z" fill="#4598E6"/>
<path d="M168.739 86.5005C172.613 86.5005 175.754 89.7007 175.754 93.6487C175.754 97.5968 172.613 100.798 168.739 100.798C167.476 100.798 166.293 100.455 165.27 99.8603C167.386 98.6292 168.814 96.31 168.814 93.6487C168.814 90.9873 167.386 88.6672 165.27 87.4365C166.293 86.8415 167.477 86.5005 168.739 86.5005Z" fill="white"/>
<path d="M165.296 87.4341C167.412 88.6648 168.84 90.9842 168.84 93.6454C168.84 96.3064 167.412 98.6258 165.296 99.8565C163.178 98.6258 161.75 96.3065 161.75 93.6454C161.75 90.9841 163.178 88.6648 165.296 87.4341Z" fill="#2E2A42"/>
<path d="M185.363 86.5005C189.237 86.5006 192.377 89.7007 192.377 93.6487C192.377 97.5968 189.237 100.798 185.363 100.798C184.1 100.798 182.916 100.456 181.893 99.8613C184.01 98.6303 185.437 96.3103 185.437 93.6487C185.437 90.987 184.01 88.6661 181.893 87.4355C182.916 86.8407 184.101 86.5005 185.363 86.5005Z" fill="white"/>
<path d="M181.856 87.4341C183.972 88.6648 185.401 90.984 185.401 93.6454C185.401 96.3066 183.972 98.6258 181.856 99.8565C179.74 98.6257 178.312 96.3062 178.312 93.6454C178.312 90.9844 179.74 88.6649 181.856 87.4341Z" fill="#2E2A42"/>
<path fill-rule="evenodd" clip-rule="evenodd" d="M122.131 82.9805C121.639 84.3379 122.339 85.8375 123.697 86.3299C129.983 88.6098 134.433 91.0505 138.425 94.979C142.471 98.9606 146.194 104.614 150.755 113.582C151.408 114.869 152.983 115.383 154.27 114.728C155.557 114.074 156.07 112.499 155.415 111.212C150.772 102.082 146.744 95.8294 142.093 91.2518C137.387 86.6211 132.191 83.8488 125.481 81.4143C124.123 80.9219 122.623 81.6231 122.131 82.9805Z" fill="#2E2A42"/>
<path d="M144.928 119.192C146.92 117.272 147.764 116.344 148.883 113.257C149.527 111.481 149.146 109.507 148 108.005L153.367 107.586C155.636 110.97 159.345 113.168 161.1 116.844C163.098 121.029 163.545 125.372 159.118 128.59C155.221 131.423 155.765 122.208 152.563 119.313C152.377 119.143 152.093 119.176 151.913 119.351C149.502 121.701 146.552 122.085 144.852 120.42C144.506 120.081 144.578 119.53 144.928 119.192Z" fill="#2E2A42"/>
<path fill-rule="evenodd" clip-rule="evenodd" d="M44.8192 82.9874C45.3116 84.3447 44.6103 85.8443 43.253 86.3367C36.9678 88.6167 32.5171 91.0573 28.5249 94.9858C24.4787 98.9673 20.7565 104.62 16.1959 113.589C15.5414 114.876 13.9674 115.389 12.6803 114.735C11.3932 114.08 10.8804 112.506 11.5349 111.219C16.1778 102.088 20.2055 95.8362 24.8573 91.2586C29.5632 86.628 34.7587 83.8556 41.4698 81.4211C42.8272 80.9287 44.3268 81.6299 44.8192 82.9874Z" fill="#2E2A42"/>
<path d="M22.0207 119.199C20.0281 117.279 19.1853 116.35 18.0654 113.264C17.4213 111.488 17.803 109.514 18.9482 108.012L13.5815 107.592C11.3134 110.976 7.60312 113.174 5.84862 116.851C3.85147 121.035 3.40402 125.379 7.83055 128.596C11.728 131.43 11.1841 122.215 14.3858 119.318C14.5723 119.15 14.8552 119.183 15.0353 119.358C17.4463 121.708 20.3967 122.092 22.0966 120.427C22.4432 120.088 22.3701 119.536 22.0207 119.199Z" fill="#2E2A42"/>
<path fill-rule="evenodd" clip-rule="evenodd" d="M93.5318 155.781C92.0883 155.817 90.8892 154.675 90.8535 153.232L89.2021 86.3412C89.1664 84.8976 90.3077 83.6986 91.7513 83.6629C93.1947 83.6273 94.3938 84.7686 94.4294 86.2121L96.081 153.103C96.1167 154.547 94.9753 155.745 93.5318 155.781Z" fill="#2E2A42"/>
<path d="M114.776 155.089L94.1463 155.747C92.1685 155.81 90.5314 154.209 90.5323 152.231C90.5368 143.84 90.6389 143.745 96.7976 144.067C106.729 144.586 112.931 147.425 116.718 150.143C119.028 151.803 117.618 154.999 114.776 155.089Z" fill="#2E2A42"/>
<path fill-rule="evenodd" clip-rule="evenodd" d="M66.644 155.782C68.0874 155.818 69.2865 154.676 69.3222 153.233L70.9737 86.3421C71.0094 84.8986 69.868 83.6995 68.4246 83.6639C66.981 83.6283 65.7819 84.7695 65.7463 86.2131L64.0948 153.104C64.0592 154.548 65.2004 155.746 66.644 155.782Z" fill="#2E2A42"/>
<path d="M45.397 155.089L65.6959 155.735C67.8099 155.803 69.4849 153.985 69.4017 151.871C69.0893 143.936 70.7482 143.701 64.6889 144.017C54.5037 144.55 47.7676 147.54 43.6322 150.334C41.2754 151.926 42.5539 154.999 45.397 155.089Z" fill="#2E2A42"/>
<path d="M121.265 46.8648C126.59 52.8507 125.528 59.4979 124.572 66.7019C127.704 76.5508 141.486 94.6999 142.582 104.009C143.47 111.544 137.379 118.591 129.931 119.288C100.246 122.072 66.3135 117.112 36.1577 119.288C27.1441 118.748 22.0456 111.127 23.6987 102.391C25.6477 92.0723 38.9071 74.9847 42.3699 64.1091C38.7331 52.6767 39.3943 41.3661 49.3477 33.4661C52.7583 30.769 58.5354 29.5683 60.3102 27.7934C65.6349 22.434 67.2706 8.287 74.8748 2.94493C83.4186 -3.05838 90.9358 0.909061 95.7558 8.91348C100.576 16.9179 106.492 34.5624 111.521 40.4265C113.365 42.5668 118.672 43.9589 121.265 46.8822V46.8648Z" fill="#4598E6"/>
<path d="M108.511 52.9359C104.511 51.8465 100.054 52.8701 96.9128 56.0065C93.7712 59.143 92.7459 63.592 93.8369 67.5852C91.8992 67.0575 90.0685 66.034 88.5466 64.5145C83.8829 59.8586 83.8829 52.3099 88.5466 47.6541C93.2102 42.9981 100.771 42.9981 105.435 47.6541C106.957 49.1736 107.982 51.0012 108.511 52.9359Z" fill="white"/>
<path d="M108.512 52.9315C104.512 51.8422 100.055 52.8657 96.9132 56.0022C93.7717 59.1385 92.7464 63.5874 93.8372 67.5805C97.8372 68.6699 102.294 67.6463 105.435 64.5099C108.578 61.3735 109.603 56.9246 108.512 52.9315Z" fill="#2E2A42"/>
<path d="M77.153 47.6541C72.4894 42.9981 64.9281 42.9981 60.2645 47.6541C55.6008 52.3099 55.6008 59.8586 60.2645 64.5145C61.787 66.0345 63.6183 67.0583 65.5568 67.5858C64.4656 63.5924 65.4908 59.1431 68.6326 56.0065C71.7737 52.8706 76.2294 51.8469 80.2288 52.9353C79.7002 51.0008 78.675 49.1734 77.153 47.6541Z" fill="white"/>
<path d="M80.2297 52.9315C76.2298 51.8422 71.7731 52.8657 68.6314 56.0022C65.4899 59.1385 64.4646 63.5874 65.5554 67.5805C69.5553 68.6699 74.012 67.6463 77.1538 64.5099C80.2952 61.3735 81.3206 56.9246 80.2297 52.9315Z" fill="#2E2A42"/>
</g>
<defs>
<clipPath id="clip0_1_987">
<rect width="214" height="156.27" fill="white"/>
</clipPath>
</defs>
</svg>
