<svg width="1440" height="184" viewBox="0 0 1440 184" fill="none" xmlns="http://www.w3.org/2000/svg">
<g clip-path="url(#clip0_1_126)">
<g clip-path="url(#clip1_1_126)">
<g clip-path="url(#clip2_1_126)">
<g clip-path="url(#clip3_1_126)">
<path fill-rule="evenodd" clip-rule="evenodd" d="M110.569 173.04C111.472 173.007 112.169 172.786 112.136 171.883L110.558 129.485C110.524 128.582 109.765 127.878 108.862 127.911C107.959 127.944 107.254 128.704 107.287 129.607L108.865 172.004C108.899 172.907 109.666 173.073 110.569 173.04Z" fill="#2E2A42"/>
<path d="M97.0933 173.449L110.993 173.223C111.595 173.213 112.064 172.695 112.04 172.093C111.775 165.62 113.293 165.669 103.319 167.295C100.023 167.833 97.5494 169.212 95.8226 170.593C94.4928 171.655 95.391 173.477 97.0933 173.449Z" fill="#2E2A42"/>
<path fill-rule="evenodd" clip-rule="evenodd" d="M127.637 173.04C126.734 173.007 126.036 172.786 126.071 171.883L127.648 129.485C127.682 128.582 128.441 127.878 129.344 127.911C130.247 127.944 130.952 128.704 130.919 129.607L129.341 172.004C129.307 172.907 128.54 173.073 127.637 173.04Z" fill="#2E2A42"/>
<path d="M141.098 173.449L127.199 173.223C126.597 173.213 126.128 172.695 126.152 172.093C126.417 165.62 124.898 165.669 134.873 167.295C138.169 167.833 140.642 169.212 142.37 170.593C143.699 171.655 142.801 173.477 141.098 173.449Z" fill="#2E2A42"/>
<path d="M113.682 76.3141C104.538 75.0892 94.9544 77.5906 91.3668 86.7968C85.9402 100.748 101.858 107.311 103.917 119.006C105.704 129.217 95.6409 143.452 107.53 149.486C121.661 156.642 138.238 142.691 141.787 129.295C146.579 111.127 134.288 79.0991 113.682 76.327V76.3141Z" fill="#62D09E"/>
<path d="M105.418 102.757C107.187 103.236 109.158 102.786 110.547 101.408C111.936 100.03 112.389 98.0757 111.907 96.3214C112.764 96.5533 113.573 97.0029 114.246 97.6705C116.308 99.7159 116.308 103.032 114.246 105.078C112.184 107.123 108.841 107.123 106.778 105.078C106.105 104.41 105.652 103.607 105.418 102.757Z" fill="white"/>
<path d="M105.389 102.765C107.158 103.244 109.129 102.794 110.518 101.416C111.907 100.038 112.36 98.0839 111.878 96.3297C110.109 95.8511 108.139 96.3008 106.749 97.6786C105.36 99.0565 104.907 101.011 105.389 102.765Z" fill="#2E2A42"/>
<path d="M119.261 105.078C121.323 107.123 124.667 107.123 126.73 105.078C128.792 103.032 128.792 99.7159 126.73 97.6704C126.056 97.0026 125.247 96.5528 124.389 96.321C124.872 98.0755 124.418 100.03 123.03 101.408C121.64 102.786 119.67 103.236 117.901 102.757C118.135 103.607 118.589 104.41 119.261 105.078Z" fill="white"/>
<path d="M117.906 102.765C119.674 103.244 121.645 102.794 123.034 101.416C124.424 100.038 124.877 98.0839 124.394 96.3297C122.626 95.8511 120.655 96.3008 119.265 97.6786C117.877 99.0565 117.423 101.011 117.906 102.765Z" fill="#2E2A42"/>
<path fill-rule="evenodd" clip-rule="evenodd" d="M90.1947 63.9354C91.4804 63.4504 92.9157 64.0996 93.4007 65.3853C93.9959 66.9636 94.6764 68.7153 95.4008 70.5806C98.5225 78.6181 102.463 88.7628 103.941 96.2113C104.208 97.5591 103.332 98.8686 101.985 99.1361C100.637 99.4036 99.3274 98.5278 99.06 97.18C97.677 90.2107 93.9685 80.6523 90.8502 72.6151C90.1009 70.6837 89.3856 68.8401 88.7449 67.1414C88.26 65.8557 88.9091 64.4203 90.1947 63.9354Z" fill="#2E2A42"/>
<path fill-rule="evenodd" clip-rule="evenodd" d="M29.1801 58.2793C28.0086 57.561 26.4768 57.9284 25.7585 59.0998C24.8768 60.5378 23.8788 62.1302 22.8162 63.8258C18.2374 71.1321 12.4582 80.3537 9.60447 87.3909C9.08809 88.6643 9.70175 90.1152 10.9751 90.6315C12.2485 91.148 13.6993 90.5343 14.2157 89.2609C16.8858 82.6765 22.3271 73.9871 26.9026 66.6805C28.002 64.9246 29.0515 63.2486 30.0005 61.7008C30.7188 60.5295 30.3514 58.9976 29.1801 58.2793Z" fill="#2E2A42"/>
<path fill-rule="evenodd" clip-rule="evenodd" d="M75.316 172.292C73.8109 172.236 72.6495 171.868 72.7056 170.363L75.3356 99.6995C75.3916 98.1945 76.6571 97.02 78.1622 97.0759C79.6673 97.1317 80.842 98.397 80.786 99.9019L78.156 170.566C78.1 172.071 76.8211 172.348 75.316 172.292Z" fill="#2E2A42"/>
<path d="M97.7883 172.96L74.6226 172.583C73.6186 172.567 72.8361 171.703 72.8772 170.701C73.3193 159.911 70.7878 159.993 87.4116 162.704C92.9054 163.6 97.0282 165.898 99.906 168.198C102.123 169.97 100.625 173.006 97.7883 172.96Z" fill="#2E2A42"/>
<path fill-rule="evenodd" clip-rule="evenodd" d="M46.9266 172.292C48.4318 172.236 49.5931 171.868 49.537 170.363L46.907 99.6995C46.8511 98.1945 45.5855 97.02 44.0804 97.0759C42.5753 97.1317 41.4006 98.397 41.4566 99.9019L44.0866 170.566C44.1426 172.071 45.4215 172.348 46.9266 172.292Z" fill="#2E2A42"/>
<path d="M24.4687 172.96L47.6344 172.583C48.6384 172.567 49.421 171.703 49.3799 170.701C48.9377 159.911 51.4692 159.993 34.8455 162.704C29.3516 163.6 25.2288 165.898 22.3509 168.198C20.1345 169.97 21.6316 173.006 24.4687 172.96Z" fill="#2E2A42"/>
<path d="M70.1907 11.0959C85.4303 9.05435 101.404 13.2233 107.383 28.567C116.428 51.8188 89.8985 62.7572 86.4663 82.2483C83.4874 99.2682 100.26 122.993 80.444 133.05C56.8939 144.977 29.2641 121.725 23.3495 99.3972C15.3628 69.1181 35.8477 15.7376 70.1907 11.1174V11.0959Z" fill="#62D09E"/>
<path d="M83.8585 50.5183C80.9193 49.7184 77.6445 50.4701 75.3359 52.7733C73.0275 55.0766 72.2741 58.3437 73.0757 61.2762C71.6518 60.8886 70.3066 60.137 69.1883 59.0212C65.7614 55.6022 65.7614 50.0587 69.1883 46.6396C72.6152 43.2205 78.1713 43.2205 81.5983 46.6396C82.7167 47.7555 83.4701 49.0977 83.8585 50.5183Z" fill="white"/>
<path d="M83.8493 50.516C80.9101 49.7161 77.6352 50.4677 75.3267 52.771C73.0182 55.0741 72.2648 58.3412 73.0664 61.2736C76.0056 62.0736 79.2805 61.3219 81.589 59.0186C83.8974 56.7154 84.6509 53.4484 83.8493 50.516Z" fill="#2E2A42"/>
<path d="M60.8248 46.6394C57.398 43.2204 51.8418 43.2204 48.415 46.6394C44.988 50.0585 44.988 55.602 48.415 59.0211C49.5337 60.1373 50.8793 60.8891 52.3038 61.2765C51.5019 58.344 52.2553 55.0765 54.5639 52.7732C56.8721 50.4703 60.1462 49.7185 63.085 50.5178C62.6966 49.0973 61.9432 47.7553 60.8248 46.6394Z" fill="white"/>
<path d="M63.0769 50.516C60.1376 49.7161 56.8628 50.4677 54.5542 52.771C52.2459 55.0741 51.4924 58.3412 52.2939 61.2736C55.2332 62.0736 58.5081 61.3219 60.8166 59.0186C63.1251 56.7154 63.8785 53.4484 63.0769 50.516Z" fill="#2E2A42"/>
<path fill-rule="evenodd" clip-rule="evenodd" d="M94.5008 74.3005C95.8239 73.9294 97.1972 74.7012 97.5682 76.0243C97.7597 76.7071 102.465 90.5341 102.635 91.1358C103.058 92.6324 103.411 93.8787 103.669 94.8766C103.998 96.1529 104.302 97.4603 104.229 98.4875C104.189 99.0495 104.008 100.022 103.158 100.761C102.303 101.506 101.314 101.54 100.774 101.5C100.221 101.458 99.682 101.305 99.262 101.17C98.816 101.026 98.3169 100.839 97.8125 100.647C97.7176 100.611 97.62 100.574 97.52 100.536C93.506 99.0051 70.0021 94.9273 55.7946 96.9565C54.4344 97.1508 53.1741 96.2056 52.9799 94.8454C52.7856 93.4851 53.7308 92.2248 55.0911 92.0306C69.8696 89.9199 94.1689 93.9513 98.7333 95.6739C98.5055 94.8188 98.2162 93.7957 97.8657 92.5558C97.6923 91.9429 92.9802 78.0925 92.777 77.3678C92.4061 76.0447 93.1778 74.6714 94.5008 74.3005Z" fill="#2E2A42"/>
<path d="M71.3335 83.5687C71.0922 85.807 71.1507 87.6554 71.6089 89.3725C72.1234 91.3004 74.2024 92.1904 76.1704 91.8611L73.2852 96.8357C68.4011 98.2289 47.2268 102.973 49.4134 95.4248C50.7469 90.8218 59.7953 90.1427 64.7385 89.8989C65.3697 89.8679 65.8739 89.3778 65.983 88.7553C66.5336 85.6131 68.1628 82.5824 70.2144 82.1792C70.9559 82.0335 71.4144 82.8173 71.3335 83.5687Z" fill="#2E2A42"/>
<path fill-rule="evenodd" clip-rule="evenodd" d="M16.0792 79.758C14.8496 79.1447 13.3556 79.6442 12.7422 80.8738C12.4256 81.5083 12.1264 82.1049 11.846 82.6639C11.1488 84.054 10.5681 85.2118 10.1271 86.1432C9.56302 87.3347 9.01861 88.5616 8.89693 89.5842C8.83036 90.1436 8.82539 91.1332 9.52047 92.0188C10.2206 92.9109 11.1855 93.1309 11.7235 93.1927C12.2742 93.2561 12.8324 93.2072 13.2703 93.1535C13.7353 93.0963 14.2608 93.0062 14.7923 92.9128C14.8924 92.8953 14.9951 92.8771 15.1005 92.8584C19.3308 92.1108 43.1822 92.5301 56.7537 97.1973C58.0532 97.6441 59.4687 96.953 59.9156 95.6536C60.3625 94.3542 59.6713 92.9386 58.3719 92.4917C44.2548 87.637 19.631 87.0227 14.824 87.8553C15.2087 87.0584 15.6854 86.108 16.2631 84.9563C16.5486 84.387 16.8588 83.7685 17.1948 83.095C17.8082 81.8655 17.3087 80.3714 16.0792 79.758Z" fill="#2E2A42"/>
<path d="M51.4521 82.3633C51.2678 84.6071 50.8625 86.4114 50.0892 88.0115C49.221 89.808 47.0117 90.2908 45.1409 89.5971L47.0381 95.0258C51.5726 97.3134 71.4755 105.958 70.7488 98.1335C70.3056 93.3617 61.5466 90.9916 56.7378 89.8218C56.1236 89.6724 55.7207 89.0962 55.7307 88.4644C55.7815 85.2746 54.7518 81.9915 52.8128 81.2094C52.112 80.9266 51.514 81.6101 51.4521 82.3633Z" fill="#2E2A42"/>
</g>
</g>
</g>
<g clip-path="url(#clip4_1_126)">
<g clip-path="url(#clip5_1_126)">
<g clip-path="url(#clip6_1_126)">
<path fill-rule="evenodd" clip-rule="evenodd" d="M266.781 77.8858C266.644 76.4762 265.388 75.4457 263.979 75.5841C261.763 75.8016 258.744 74.9248 255.191 72.8759C251.706 70.866 248.013 67.904 244.559 64.4475C241.111 60.9967 237.965 57.1165 235.551 53.3219C233.116 49.4924 231.527 45.9092 231.017 43.0363C230.769 41.6419 229.438 40.7122 228.043 40.96C226.649 41.2079 225.719 42.5393 225.967 43.9339C226.643 47.7373 228.613 51.9709 231.223 56.0746C233.856 60.2133 237.243 64.3826 240.93 68.073C244.612 71.7577 248.657 75.0288 252.629 77.3192C256.532 79.5705 260.688 81.0612 264.48 80.6888C265.889 80.5505 266.92 79.2955 266.781 77.8858Z" fill="#2E2A42"/>
<path d="M229.122 21.2343C230.457 21.2344 231.539 22.3167 231.539 23.6517V32.066C232.693 31.4113 234.16 31.8092 234.825 32.9601C235.492 34.1164 235.096 35.5947 233.94 36.2621L232.131 37.306L232.138 37.327C230.744 38.1217 230.07 39.7636 230.503 41.3087L231.017 43.1398L227.571 49.0471L225.413 43.0007C225.182 42.3518 224.564 41.9383 223.883 41.8291C221.498 41.4462 219.684 39.8464 218.876 37.3298C218.836 37.2553 218.798 37.1782 218.766 37.0982L217.634 34.35C217.126 33.1154 217.715 31.7021 218.949 31.1938C219.183 31.0978 219.422 31.0401 219.661 31.0193C219.687 30.0333 220.319 29.1373 221.283 28.803L220.345 25.2999C219.999 24.0102 220.765 22.6837 222.054 22.3381C223.344 21.9926 224.669 22.7586 225.015 24.0482L226.304 28.8564C226.365 29.0865 226.704 29.0421 226.704 28.804V23.6517C226.704 22.3166 227.786 21.2343 229.122 21.2343Z" fill="#2E2A42"/>
<path fill-rule="evenodd" clip-rule="evenodd" d="M340.612 78.7973C341.033 77.4447 342.47 76.6888 343.823 77.1091C361.765 82.6834 369.104 97.2938 366.717 108.095C365.508 113.562 361.731 118.021 355.707 119.194C349.849 120.334 342.472 118.246 334.051 112.207C332.9 111.382 332.636 109.779 333.461 108.628C334.287 107.477 335.889 107.213 337.041 108.039C344.896 113.674 350.83 114.917 354.727 114.159C358.456 113.434 360.874 110.765 361.708 106.988C363.408 99.3009 358.228 86.9557 342.301 82.0074C340.948 81.5872 340.192 80.1499 340.612 78.7973Z" fill="#2E2A42"/>
<path d="M321.559 159.913L321.802 139.997C321.828 137.923 320.012 136.315 317.942 136.438C310.168 136.897 309.904 135.274 310.332 141.209C311.049 151.186 314.111 157.733 316.93 161.734C318.537 164.014 321.525 162.701 321.559 159.913Z" fill="#2E2A42"/>
<path fill-rule="evenodd" clip-rule="evenodd" d="M283.503 127.555C281.77 131.876 284.951 136.58 289.607 136.58H316.377C317.793 136.58 318.942 137.728 318.942 139.145C318.942 140.561 317.793 141.709 316.377 141.709H289.607C281.32 141.709 275.657 133.335 278.744 125.645L291.101 94.8466C291.629 93.5322 293.122 92.8941 294.437 93.4216C295.752 93.9491 296.389 95.4424 295.862 96.7568L283.503 127.555Z" fill="#2E2A42"/>
<path d="M269.227 162.427L289.142 162.67C291.217 162.696 292.824 160.881 292.702 158.81C292.243 151.037 293.865 150.773 287.93 151.2C277.954 151.918 271.406 154.979 267.405 157.798C265.125 159.405 266.438 162.393 269.227 162.427Z" fill="#2E2A42"/>
<path fill-rule="evenodd" clip-rule="evenodd" d="M289.466 162.124C290.823 162.529 292.252 161.758 292.657 160.401L311.294 98.0204C311.699 96.6633 310.928 95.2344 309.572 94.829C308.214 94.4235 306.786 95.195 306.38 96.5521L287.743 158.933C287.337 160.289 288.109 161.718 289.466 162.124Z" fill="#2E2A42"/>
<path d="M274.84 13.8655L294.293 44.061L305.98 10.6497C307.756 14.9286 316.048 40.6807 316.048 40.6807L353.803 24.0142L334.896 54.0844C346.057 56.1359 360.671 59.9264 371.597 62.994C360.632 64.772 346.876 67.8786 336.009 70.2233L374.934 92.517C361.237 91.0125 345.335 88.961 331.56 88.6092L337.101 124.248L317.628 99.7463L305.395 130.911L291.991 99.7463L261.474 122.001L272.596 85.2681L239.231 86.3623C244.753 81.5753 259.467 72.507 265.809 67.8568L234.783 44.061L274.821 48.6275C274.821 38.9754 274.938 28.0111 274.84 18.3589V13.8655Z" fill="#FF93AB"/>
<path d="M282.212 63.1969C285.125 62.404 288.369 63.1491 290.657 65.4321C292.944 67.7151 293.691 70.9536 292.896 73.8602C294.308 73.4761 295.64 72.7311 296.749 71.625C300.145 68.236 300.145 62.7412 296.749 59.3522C293.353 55.9632 287.847 55.9632 284.451 59.3522C283.343 60.4583 282.596 61.7886 282.212 63.1969Z" fill="white"/>
<path d="M282.207 63.1935C285.119 62.4005 288.364 63.1455 290.652 65.4286C292.939 67.7115 293.686 70.9498 292.893 73.8564C289.98 74.6494 286.734 73.9044 284.446 71.6212C282.159 69.3384 281.412 66.1001 282.207 63.1935Z" fill="#2E2A42"/>
<path d="M305.032 59.3522C308.428 55.9632 313.934 55.9632 317.33 59.3522C320.726 62.7412 320.726 68.236 317.33 71.625C316.221 72.7312 314.888 73.4762 313.477 73.8603C314.272 70.9536 313.525 67.7151 311.237 65.432C308.95 63.1491 305.705 62.404 302.792 63.1967C303.177 61.7885 303.924 60.4583 305.032 59.3522Z" fill="white"/>
<path d="M302.788 63.1935C305.7 62.4005 308.946 63.1455 311.234 65.4286C313.521 67.7115 314.268 70.9497 313.474 73.8563C310.561 74.6494 307.316 73.9043 305.028 71.6211C302.741 69.3383 301.994 66.1001 302.788 63.1935Z" fill="#2E2A42"/>
<path d="M338.026 114.788L341.489 111.038C333.621 104.947 325.815 103.563 322.936 108.972C319.337 115.733 326.441 120.423 330.623 119.898C333.147 119.581 333.355 116.689 333.013 114.182C332.897 113.332 333.804 112.635 334.557 113.044L338.026 114.788Z" fill="#2E2A42"/>
<path fill-rule="evenodd" clip-rule="evenodd" d="M202.456 162.813C203.285 162.778 203.929 162.078 203.894 161.249L202.311 123.792C202.276 122.963 201.576 122.319 200.747 122.354C199.918 122.39 199.275 123.09 199.31 123.919L200.892 161.376C200.927 162.205 201.627 162.848 202.456 162.813Z" fill="#2E2A42"/>
<path d="M188.557 162.706H202.666C203.131 162.706 203.507 162.322 203.499 161.856C203.396 156.445 202.932 155.922 194.282 157.333C191.259 157.827 189.037 159.139 187.538 160.402C186.515 161.264 187.219 162.706 188.557 162.706Z" fill="#2E2A42"/>
<path fill-rule="evenodd" clip-rule="evenodd" d="M224.239 149.04C227.248 148.684 230.601 146.898 234.164 143.687C234.78 143.132 234.83 142.182 234.274 141.566C233.719 140.949 232.769 140.901 232.153 141.456C228.817 144.462 226.026 145.804 223.887 146.056C221.855 146.296 220.3 145.572 219.159 144.055C217.959 142.459 217.165 139.892 217.076 136.456C216.988 133.047 217.601 128.909 219.073 124.314C219.327 123.524 218.891 122.678 218.101 122.426C217.311 122.172 216.466 122.607 216.212 123.398C214.659 128.245 213.975 132.722 214.073 136.534C214.171 140.321 215.046 143.584 216.757 145.86C218.527 148.215 221.123 149.407 224.239 149.04Z" fill="#2E2A42"/>
<path d="M240.849 151.445L234.442 141.822C234.124 141.346 233.47 141.236 233.001 141.563C228.49 144.712 227.857 143.635 233.664 150.087C235.477 152.102 237.492 153.242 239.229 153.878C240.749 154.435 241.746 152.792 240.849 151.445Z" fill="#2E2A42"/>
<path d="M190.22 76.2961L201.892 94.4134L208.904 74.3666C209.969 76.934 214.945 92.3852 214.945 92.3852L237.598 82.3853L226.254 100.427C232.95 101.658 241.718 103.933 248.274 105.773C241.695 106.84 233.442 108.704 226.921 110.111L250.276 123.487C242.058 122.585 232.517 121.353 224.252 121.142L227.577 142.526L215.893 127.825L208.553 146.523L200.51 127.825L182.201 141.177L188.873 119.138L168.855 119.794C172.168 116.922 180.996 111.481 184.801 108.691L166.185 94.4134L190.208 97.1533C190.208 91.362 190.278 84.7835 190.22 78.9921V76.2961Z" fill="#FF93AB"/>
<path d="M216.443 111.151C214.412 113.192 211.12 113.192 209.09 111.151C207.059 109.112 207.059 105.805 209.09 103.765C209.752 103.1 210.55 102.651 211.393 102.42C210.918 104.169 211.365 106.118 212.733 107.492C214.1 108.866 216.04 109.314 217.782 108.838C217.552 109.685 217.105 110.486 216.443 111.151Z" fill="white"/>
<path d="M217.781 108.834C216.04 109.311 214.099 108.862 212.732 107.489C211.364 106.115 210.918 104.166 211.393 102.416C213.134 101.939 215.074 102.388 216.442 103.762C217.81 105.136 218.256 107.085 217.781 108.834Z" fill="#2E2A42"/>
<path d="M204.118 111.151C202.087 113.192 198.796 113.192 196.765 111.151C194.735 109.112 194.735 105.805 196.765 103.765C197.428 103.1 198.225 102.651 199.069 102.42C198.594 104.169 199.04 106.118 200.408 107.492C201.776 108.866 203.716 109.314 205.457 108.838C205.227 109.685 204.78 110.486 204.118 111.151Z" fill="white"/>
<path d="M205.458 108.834C203.716 109.311 201.776 108.862 200.408 107.489C199.04 106.115 198.594 104.166 199.069 102.416C200.81 101.939 202.751 102.388 204.119 103.762C205.486 105.136 205.933 107.085 205.458 108.834Z" fill="#2E2A42"/>
</g>
</g>
</g>
<g clip-path="url(#clip7_1_126)">
<g clip-path="url(#clip8_1_126)">
<g clip-path="url(#clip9_1_126)">
<path fill-rule="evenodd" clip-rule="evenodd" d="M594.63 168.192C595.511 168.155 596.196 167.411 596.159 166.53L594.476 126.699C594.439 125.818 593.695 125.133 592.813 125.171C591.931 125.208 591.247 125.952 591.285 126.834L592.967 166.665C593.005 167.546 593.749 168.23 594.63 168.192Z" fill="#2E2A42"/>
<path d="M579.883 168.091H594.886C595.38 168.091 595.781 167.682 595.772 167.187C595.663 161.433 595.169 160.877 585.971 162.378C582.757 162.902 580.394 164.297 578.8 165.64C577.711 166.557 578.46 168.091 579.883 168.091Z" fill="#2E2A42"/>
<path fill-rule="evenodd" clip-rule="evenodd" d="M617.758 153.555C620.957 153.177 624.523 151.278 628.312 147.864C628.967 147.273 629.02 146.263 628.43 145.607C627.839 144.952 626.829 144.899 626.173 145.49C622.627 148.686 619.658 150.114 617.383 150.382C615.223 150.637 613.569 149.868 612.357 148.254C611.081 146.557 610.236 143.827 610.141 140.174C610.048 136.548 610.7 132.149 612.265 127.262C612.534 126.422 612.071 125.523 611.231 125.254C610.392 124.985 609.492 125.448 609.223 126.287C607.571 131.442 606.844 136.203 606.948 140.256C607.051 144.284 607.984 147.753 609.802 150.173C611.685 152.678 614.445 153.945 617.758 153.555Z" fill="#2E2A42"/>
<path d="M635.42 156.113L628.607 145.88C628.269 145.374 627.574 145.255 627.075 145.604C622.277 148.954 621.605 147.808 627.78 154.669C629.708 156.811 631.85 158.024 633.698 158.7C635.313 159.292 636.374 157.545 635.42 156.113Z" fill="#2E2A42"/>
<path d="M599.983 72.1333C619.043 72.6229 638.249 84.7789 641.476 104.696C643.534 117.403 638.65 135.215 626.63 141.556C593.041 159.258 560.183 135.325 565.761 98.049C568.72 78.2786 581.009 71.6313 599.983 72.121V72.1333Z" fill="#FFA552"/>
<path d="M586.279 102.024C588.886 102.727 591.79 102.066 593.838 100.041C595.885 98.0166 596.553 95.1442 595.842 92.5662C597.105 92.9069 598.298 93.5677 599.289 94.5486C602.329 97.5546 602.329 102.428 599.289 105.434C596.25 108.44 591.323 108.44 588.284 105.434C587.292 104.453 586.624 103.273 586.279 102.024Z" fill="white"/>
<path d="M586.287 102.027C588.894 102.731 591.798 102.07 593.845 100.045C595.893 98.0199 596.561 95.1476 595.85 92.5696C593.243 91.8663 590.339 92.527 588.292 94.552C586.244 96.5769 585.576 99.4492 586.287 102.027Z" fill="#2E2A42"/>
<path d="M606.735 105.434C609.774 108.44 614.701 108.44 617.74 105.434C620.78 102.428 620.78 97.5548 617.74 94.5489C616.748 93.5677 615.555 92.9068 614.292 92.5662C615.002 95.1442 614.335 98.0165 612.287 100.041C610.24 102.066 607.337 102.727 604.729 102.024C605.074 103.273 605.743 104.453 606.735 105.434Z" fill="white"/>
<path d="M604.739 102.027C607.346 102.73 610.25 102.07 612.297 100.045C614.345 98.0199 615.013 95.1476 614.303 92.5696C611.695 91.8662 608.791 92.5271 606.744 94.5521C604.696 96.5768 604.029 99.4491 604.739 102.027Z" fill="#2E2A42"/>
<path fill-rule="evenodd" clip-rule="evenodd" d="M520.02 70.5553C518.568 70.9549 517.715 72.4561 518.115 73.9083C521.703 86.9453 532.459 97.4143 542.788 99.8869C548.072 101.152 553.531 100.358 557.623 96.3243C561.614 92.3884 563.79 85.8582 563.79 76.7681C563.79 75.2619 562.569 74.0409 561.063 74.0409C559.557 74.0409 558.336 75.2619 558.336 76.7681C558.336 85.1487 556.311 89.9577 553.793 92.4404C551.374 94.8252 548.015 95.5296 544.058 94.5825C535.908 92.6314 526.505 83.8379 523.373 72.4609C522.973 71.0088 521.473 70.1555 520.02 70.5553Z" fill="#2E2A42"/>
<path d="M558.262 79.739L563.46 82.8267C565.863 72.5222 563.744 64.3628 557.239 63.9753C549.109 63.491 547.722 72.4362 550.082 76.2462C551.506 78.5463 554.395 77.4662 556.666 76.0251C557.436 75.5366 558.512 76.1041 558.449 77.0137L558.262 79.739Z" fill="#2E2A42"/>
<path fill-rule="evenodd" clip-rule="evenodd" d="M435.877 70.5631C437.329 70.9628 438.182 72.464 437.783 73.9162C434.194 86.9532 423.438 97.4221 413.109 99.8948C407.825 101.159 402.366 100.366 398.274 96.3321C394.283 92.3963 392.107 85.8661 392.107 76.7759C392.107 75.2698 393.328 74.0488 394.834 74.0488C396.34 74.0488 397.561 75.2698 397.561 76.7759C397.561 85.1565 399.586 89.9655 402.104 92.4483C404.523 94.833 407.882 95.5375 411.839 94.5903C419.989 92.6392 429.392 83.8457 432.524 72.4687C432.924 71.0166 434.425 70.1634 435.877 70.5631Z" fill="#2E2A42"/>
<path d="M397.614 79.7432L392.418 82.831C390.014 72.5264 392.134 64.3671 398.638 63.9796C406.769 63.4953 408.155 72.4403 405.796 76.2504C404.371 78.5506 401.483 77.4704 399.211 76.0294C398.441 75.5409 397.365 76.1082 397.428 77.0179L397.614 79.7432Z" fill="#2E2A42"/>
<path fill-rule="evenodd" clip-rule="evenodd" d="M511.652 173.036C510.205 173.455 508.694 172.621 508.275 171.174L488.213 101.818C487.794 100.371 488.628 98.8589 490.075 98.4404C491.522 98.0219 493.034 98.8555 493.452 100.302L513.514 169.658C513.933 171.105 513.099 172.617 511.652 173.036Z" fill="#2E2A42"/>
<path d="M537.583 173.613L510.412 173.171C509.816 173.161 509.351 172.652 509.382 172.057C509.999 160.302 506.901 160.324 524.189 163.144C531.305 164.304 536.158 167.78 539.011 170.625C540.204 171.813 539.267 173.641 537.583 173.613Z" fill="#2E2A42"/>
<path fill-rule="evenodd" clip-rule="evenodd" d="M446.277 173.038C447.722 173.46 449.237 172.631 449.66 171.186L469.947 101.83C470.37 100.384 469.541 98.8693 468.096 98.4465C466.65 98.0236 465.135 98.8526 464.713 100.298L444.425 169.654C444.002 171.1 444.831 172.614 446.277 173.038Z" fill="#2E2A42"/>
<path d="M420.595 173.62L447.766 173.178C448.362 173.168 448.827 172.658 448.796 172.063C448.179 160.309 451.277 160.331 433.989 163.15C426.873 164.311 422.021 167.787 419.167 170.632C417.974 171.82 418.911 173.647 420.595 173.62Z" fill="#2E2A42"/>
<path d="M475.066 10.8587C506.833 11.6749 538.842 31.935 544.222 65.1304C547.651 86.3086 539.512 115.995 519.479 126.564C463.497 156.066 408.733 116.179 418.029 54.0516C422.962 21.101 443.442 10.0222 475.066 10.8384V10.8587Z" fill="#FFA552"/>
<path d="M507.869 53.8988C503.544 52.7214 498.723 53.8276 495.326 57.2171C491.928 60.6064 490.82 65.4143 491.999 69.7295C489.904 69.1593 487.924 68.0531 486.279 66.4112C481.235 61.3797 481.235 53.2222 486.279 48.1907C491.322 43.1592 499.499 43.1592 504.542 48.1907C506.188 49.8328 507.297 51.808 507.869 53.8988Z" fill="white"/>
<path d="M507.876 53.9058C503.551 52.7285 498.73 53.8346 495.333 57.2241C491.936 60.6134 490.827 65.4212 492.007 69.7365C496.333 70.9139 501.152 69.8077 504.549 66.4182C507.948 63.0289 509.056 58.2211 507.876 53.9058Z" fill="#2E2A42"/>
<path d="M473.974 48.1911C468.931 43.1596 460.754 43.1596 455.71 48.1911C450.667 53.2225 450.667 61.3801 455.71 66.4116C457.356 68.0539 459.337 69.1601 461.433 69.7303C460.253 65.4151 461.362 60.6072 464.759 57.218C468.156 53.829 472.975 52.7227 477.301 53.8992C476.729 51.8084 475.62 49.8333 473.974 48.1911Z" fill="white"/>
<path d="M477.307 53.9063C472.981 52.729 468.162 53.8351 464.764 57.2246C461.367 60.6139 460.258 65.4218 461.438 69.737C465.763 70.9143 470.583 69.8082 473.981 66.4187C477.378 63.0294 478.487 58.2216 477.307 53.9063Z" fill="#2E2A42"/>
</g>
</g>
</g>
<g clip-path="url(#clip10_1_126)">
<g clip-path="url(#clip11_1_126)">
<g clip-path="url(#clip12_1_126)">
<path fill-rule="evenodd" clip-rule="evenodd" d="M824.324 165.501C825.162 165.465 825.814 164.757 825.779 163.918L824.177 126.009C824.142 125.17 823.434 124.518 822.594 124.554C821.755 124.589 821.104 125.299 821.14 126.137L822.741 164.047C822.777 164.885 823.485 165.536 824.324 165.501Z" fill="#2E2A42"/>
<path d="M810.287 165.398H824.567C825.038 165.398 825.418 165.008 825.409 164.538C825.306 159.062 824.836 158.532 816.082 159.96C813.023 160.459 810.773 161.786 809.256 163.066C808.221 163.938 808.933 165.398 810.287 165.398Z" fill="#2E2A42"/>
<path fill-rule="evenodd" clip-rule="evenodd" d="M846.399 151.571C849.444 151.212 852.838 149.404 856.444 146.155C857.068 145.592 857.117 144.631 856.555 144.007C855.993 143.383 855.032 143.333 854.409 143.895C851.033 146.937 848.207 148.296 846.043 148.551C843.986 148.794 842.412 148.062 841.258 146.526C840.043 144.911 839.239 142.313 839.15 138.836C839.061 135.385 839.681 131.197 841.172 126.546C841.427 125.747 840.987 124.892 840.187 124.635C839.387 124.379 838.532 124.82 838.275 125.619C836.704 130.525 836.011 135.056 836.11 138.914C836.209 142.747 837.095 146.049 838.827 148.354C840.618 150.736 843.245 151.943 846.399 151.571Z" fill="#2E2A42"/>
<path d="M863.21 154.002L856.725 144.263C856.403 143.781 855.742 143.669 855.267 144.001C850.701 147.188 850.061 146.097 855.938 152.627C857.773 154.666 859.812 155.82 861.571 156.464C863.108 157.029 864.118 155.365 863.21 154.002Z" fill="#2E2A42"/>
<path d="M829.595 138.787C826.079 142.467 822.325 145.193 817.301 143.65C811.13 141.755 809.146 136.274 809.251 129.291C803.987 129.494 799.205 128.896 796.639 124.133C793.579 118.451 796.016 113.156 800.996 108.259C797.106 104.706 794.121 100.921 795.641 95.729C797.452 89.5345 802.905 87.4776 809.89 87.4891C809.616 82.2282 810.149 77.4374 814.877 74.8078C820.517 71.6708 825.845 74.0369 830.808 78.9512C834.309 75.0138 838.053 71.9789 843.266 73.4279C849.484 75.1567 851.614 80.582 851.696 87.567C856.954 87.2224 861.751 87.6917 864.444 92.3843C867.656 97.9827 865.361 103.341 860.513 108.371C864.496 111.818 867.581 115.521 866.201 120.752C864.495 127.225 858.753 129.354 851.392 129.383C851.193 129.33 850.997 129.274 850.805 129.213C851.135 135.119 850.918 140.658 845.639 143.456C839.859 146.521 834.514 143.939 829.595 138.787Z" fill="url(#paint0_radial_1_126)"/>
<path d="M816.811 106.665C819.672 109.541 824.309 109.541 827.17 106.665C830.031 103.79 830.031 99.1275 827.17 96.2519C826.236 95.3134 825.113 94.6811 823.925 94.3552C824.593 96.8217 823.965 99.5695 822.038 101.507C820.11 103.444 817.378 104.076 814.924 103.403C815.248 104.598 815.877 105.727 816.811 106.665Z" fill="white"/>
<path d="M814.932 103.396C817.385 104.069 820.118 103.437 822.046 101.5C823.973 99.5626 824.601 96.8147 823.932 94.3484C821.478 93.6756 818.745 94.3078 816.817 96.245C814.891 98.1821 814.262 100.93 814.932 103.396Z" fill="#2E2A42"/>
<path d="M834.162 106.665C837.023 109.541 841.662 109.541 844.523 106.665C847.383 103.79 847.383 99.1275 844.523 96.2519C843.589 95.3134 842.466 94.6811 841.276 94.3552C841.946 96.8216 841.317 99.5693 839.39 101.506C837.463 103.443 834.729 104.076 832.276 103.403C832.6 104.598 833.229 105.727 834.162 106.665Z" fill="white"/>
<path d="M832.283 103.396C834.736 104.069 837.47 103.437 839.397 101.5C841.325 99.5626 841.953 96.8147 841.284 94.3484C838.83 93.6756 836.097 94.3078 834.169 96.245C832.243 98.1821 831.613 100.93 832.283 103.396Z" fill="#2E2A42"/>
<path fill-rule="evenodd" clip-rule="evenodd" d="M752.21 98.6499C752.321 100.079 753.57 101.146 754.999 101.035C761.615 100.518 766.638 100.898 771.857 102.812C777.148 104.751 782.83 108.334 790.631 114.569C791.75 115.464 793.383 115.282 794.278 114.163C795.173 113.044 794.992 111.411 793.872 110.515C785.93 104.167 779.726 100.168 773.644 97.9387C767.492 95.6833 761.658 95.3084 754.594 95.8606C753.166 95.9722 752.098 97.221 752.21 98.6499Z" fill="#2E2A42"/>
<path d="M787.666 122.029C788.68 119.476 789.06 118.29 788.806 115.041C788.66 113.173 787.506 111.545 785.855 110.658L790.533 108.077C793.971 110.205 798.226 110.671 801.319 113.274C804.841 116.236 807.026 119.979 804.345 124.702C801.985 128.862 798.697 120.31 794.616 119.006C794.378 118.929 794.136 119.075 794.045 119.308C792.829 122.42 790.32 123.977 788.101 123.17C787.648 123.005 787.488 122.476 787.666 122.029Z" fill="#2E2A42"/>
<path fill-rule="evenodd" clip-rule="evenodd" d="M702.79 93.6681C703.278 95.0154 702.582 96.5038 701.235 96.9926C694.997 99.2555 690.579 101.678 686.617 105.577C682.601 109.529 678.907 115.14 674.38 124.041C673.731 125.319 672.168 125.828 670.891 125.178C669.613 124.529 669.104 122.966 669.754 121.689C674.362 112.627 678.36 106.421 682.977 101.878C687.648 97.2816 692.804 94.53 699.465 92.1136C700.812 91.6249 702.301 92.3209 702.79 93.6681Z" fill="#2E2A42"/>
<path d="M680.163 129.61C678.185 127.704 677.349 126.782 676.237 123.718C675.598 121.957 675.977 119.997 677.113 118.507L671.787 118.09C669.535 121.448 665.853 123.63 664.111 127.278C662.129 131.432 661.685 135.743 666.079 138.937C669.947 141.748 669.407 132.603 672.585 129.728C672.77 129.561 673.051 129.593 673.23 129.767C675.622 132.099 678.551 132.481 680.238 130.828C680.582 130.491 680.509 129.944 680.163 129.61Z" fill="#2E2A42"/>
<path fill-rule="evenodd" clip-rule="evenodd" d="M742.617 165.039C741.184 165.075 739.994 163.942 739.958 162.509L738.319 96.1177C738.284 94.6849 739.417 93.4948 740.849 93.4594C742.282 93.4241 743.472 94.5569 743.508 95.9896L745.147 162.381C745.182 163.813 744.049 165.004 742.617 165.039Z" fill="#2E2A42"/>
<path d="M763.694 164.345L743.219 164.998C741.256 165.06 739.631 163.472 739.632 161.508C739.636 153.18 739.738 153.086 745.85 153.405C755.709 153.92 761.864 156.738 765.622 159.436C767.915 161.082 766.516 164.254 763.694 164.345Z" fill="#2E2A42"/>
<path fill-rule="evenodd" clip-rule="evenodd" d="M715.913 165.039C717.346 165.075 718.536 163.942 718.572 162.509L720.211 96.1177C720.246 94.6849 719.113 93.4948 717.681 93.4594C716.248 93.4241 715.058 94.5568 715.022 95.9896L713.383 162.381C713.348 163.813 714.481 165.004 715.913 165.039Z" fill="#2E2A42"/>
<path d="M694.823 164.348L714.97 164.989C717.068 165.056 718.731 163.251 718.648 161.154C718.338 153.278 719.984 153.044 713.971 153.358C703.861 153.887 697.175 156.855 693.071 159.628C690.732 161.208 692.001 164.258 694.823 164.348Z" fill="#2E2A42"/>
<path d="M729.989 120.333C724.131 126.468 717.874 131.012 709.498 128.44C699.215 125.282 695.909 116.148 696.084 104.507C687.311 104.846 679.34 103.849 675.064 95.9117C669.962 86.4415 674.024 77.617 682.325 69.454C675.841 63.5335 670.868 57.2253 673.399 48.5711C676.418 38.2469 685.506 34.8188 697.148 34.838C696.691 26.0698 697.58 18.0851 705.46 13.7025C714.861 8.47423 723.739 12.4176 732.012 20.6081C737.846 14.0458 744.087 8.98754 752.774 11.4026C763.138 14.2839 766.689 23.3262 766.825 34.9677C775.587 34.3936 783.583 35.1756 788.07 42.9967C793.425 52.3273 789.6 61.2581 781.52 69.6408C788.159 75.3853 793.299 81.5582 791.001 90.2764C788.157 101.065 778.587 104.613 766.317 104.66C765.987 104.573 765.661 104.479 765.339 104.377C765.889 114.222 765.53 123.452 756.73 128.117C747.095 133.225 738.189 128.92 729.989 120.333Z" fill="url(#paint1_radial_1_126)"/>
<path d="M755.024 49.4872C750.237 44.7136 742.476 44.7136 737.689 49.4872C732.902 54.2608 732.902 62.0003 737.689 66.7738C739.251 68.332 741.13 69.3814 743.12 69.9224C742 65.8283 743.052 61.2666 746.277 58.0509C749.501 54.8354 754.075 53.7859 758.181 54.9023C757.638 52.9188 756.586 51.0451 755.024 49.4872Z" fill="white"/>
<path d="M758.191 54.8997C754.085 53.7827 749.51 54.8322 746.285 58.048C743.061 61.2636 742.008 65.8251 743.128 69.9192C747.234 71.0362 751.808 69.9867 755.033 66.7709C758.258 63.5553 759.31 58.9938 758.191 54.8997Z" fill="#2E2A42"/>
<path d="M726.017 49.4869C721.23 44.7133 713.469 44.7133 708.682 49.4869C703.895 54.2605 703.895 62.0001 708.682 66.7736C710.244 68.3316 712.123 69.3812 714.113 69.9222C712.993 65.828 714.045 61.2666 717.27 58.051C720.494 54.8355 725.068 53.786 729.174 54.9025C728.631 52.9189 727.579 51.0449 726.017 49.4869Z" fill="white"/>
<path d="M729.184 54.8994C725.078 53.7825 720.503 54.8319 717.279 58.0478C714.054 61.2633 713.001 65.8249 714.121 69.919C718.227 71.036 722.801 69.9865 726.026 66.7708C729.251 63.5551 730.303 58.9936 729.184 54.8994Z" fill="#2E2A42"/>
</g>
</g>
</g>
<g clip-path="url(#clip13_1_126)">
<g clip-path="url(#clip14_1_126)">
<g clip-path="url(#clip15_1_126)">
<path fill-rule="evenodd" clip-rule="evenodd" d="M923.361 171.585C922.474 171.548 921.786 170.799 921.823 169.912L923.516 129.83C923.554 128.943 924.303 128.254 925.19 128.291C926.077 128.329 926.766 129.079 926.728 129.966L925.035 170.048C924.998 170.935 924.248 171.623 923.361 171.585Z" fill="#2E2A42"/>
<path d="M938.203 171.483H923.105C922.607 171.483 922.205 171.071 922.214 170.573C922.324 164.783 922.82 164.223 932.076 165.734C935.311 166.261 937.689 167.665 939.293 169.017C940.389 169.94 939.635 171.483 938.203 171.483Z" fill="#2E2A42"/>
<path fill-rule="evenodd" clip-rule="evenodd" d="M901.76 171.54C902.608 171.805 903.509 171.331 903.773 170.484L915.996 131.271C916.26 130.423 915.787 129.523 914.939 129.259C914.092 128.994 913.191 129.467 912.926 130.315L900.704 169.527C900.44 170.375 900.913 171.276 901.76 171.54Z" fill="#2E2A42"/>
<path d="M887.404 171.467H902.502C903 171.467 903.402 171.056 903.393 170.557C903.283 164.768 902.787 164.208 893.531 165.717C890.296 166.246 887.918 167.649 886.314 169.001C885.218 169.923 885.972 171.467 887.404 171.467Z" fill="#2E2A42"/>
<path d="M920.942 77.86C920.264 77.2219 917.832 74.6696 917.371 74.4527C916.782 74.1719 916.437 73.9932 915.835 74.4527L889.995 99.9378C871.22 122.232 891.659 152.082 918.792 149.951C945.835 147.832 961.014 119.169 941.279 97.998C935.084 91.3491 927.546 84.1642 920.929 77.86H920.942Z" fill="#D7BEFC"/>
<path d="M931.753 113.466C929.49 114.083 926.967 113.503 925.19 111.728C923.412 109.953 922.831 107.434 923.449 105.174C922.352 105.473 921.316 106.052 920.455 106.912C917.815 109.548 917.815 113.82 920.455 116.456C923.094 119.091 927.373 119.091 930.013 116.456C930.874 115.596 931.454 114.561 931.753 113.466Z" fill="white"/>
<path d="M931.748 113.469C929.484 114.085 926.962 113.506 925.184 111.731C923.406 109.956 922.826 107.437 923.443 105.177C925.707 104.56 928.229 105.14 930.007 106.915C931.785 108.69 932.365 111.209 931.748 113.469Z" fill="#2E2A42"/>
<path d="M914.008 116.456C911.369 119.091 907.09 119.091 904.45 116.456C901.811 113.82 901.811 109.548 904.45 106.912C905.312 106.052 906.348 105.473 907.444 105.174C906.827 107.434 907.407 109.953 909.185 111.728C910.963 113.503 913.485 114.083 915.749 113.466C915.45 114.561 914.869 115.596 914.008 116.456Z" fill="white"/>
<path d="M915.744 113.469C913.48 114.085 910.958 113.506 909.18 111.731C907.402 109.955 906.822 107.437 907.439 105.177C909.703 104.56 912.225 105.14 914.003 106.915C915.781 108.69 916.361 111.209 915.744 113.469Z" fill="#2E2A42"/>
<path fill-rule="evenodd" clip-rule="evenodd" d="M1010.87 171.602C1009.35 171.545 1008.19 171.176 1008.24 169.661L1010.89 98.5444C1010.94 97.0299 1012.22 95.8477 1013.73 95.904C1015.25 95.9603 1016.43 97.2337 1016.37 98.7482L1013.73 169.865C1013.67 171.379 1012.38 171.657 1010.87 171.602Z" fill="#2E2A42"/>
<path d="M1033.48 172.278L1010.17 171.899C1009.16 171.882 1008.37 171.014 1008.41 170.004C1008.86 159.146 1006.31 159.228 1023.04 161.957C1028.57 162.858 1032.72 165.171 1035.62 167.485C1037.85 169.268 1036.34 172.325 1033.48 172.278Z" fill="#2E2A42"/>
<path fill-rule="evenodd" clip-rule="evenodd" d="M982.264 171.602C983.779 171.545 984.948 171.176 984.891 169.661L982.244 98.5444C982.188 97.0299 980.914 95.8477 979.4 95.904C977.885 95.9603 976.703 97.2337 976.759 98.7482L979.406 169.865C979.462 171.379 980.749 171.657 982.264 171.602Z" fill="#2E2A42"/>
<path d="M959.662 172.278L982.976 171.899C983.987 171.882 984.774 171.014 984.733 170.004C984.288 159.146 986.836 159.228 970.106 161.957C964.577 162.858 960.427 165.171 957.531 167.485C955.3 169.268 956.807 172.325 959.662 172.278Z" fill="#2E2A42"/>
<path d="M958.96 133.603C957.363 131.786 954.907 132.748 952.864 134.247C952.452 134.55 951.93 134.611 951.463 134.491C950.252 134.179 949.63 132.619 948.783 131.699C947.778 130.607 946.743 129.493 944.785 129.891L944.521 133.69C943.849 141.856 947.107 148.01 953.783 147.292C962.128 146.396 962.009 137.072 958.96 133.603Z" fill="#2E2A42"/>
<path fill-rule="evenodd" clip-rule="evenodd" d="M947.495 68.0074C945.979 68.0074 944.751 69.2362 944.751 70.7519L944.752 136.145C944.752 137.661 945.98 138.889 947.496 138.889C949.012 138.889 950.24 137.661 950.24 136.145L950.239 70.7518C950.239 69.2361 949.011 68.0074 947.495 68.0074Z" fill="#2E2A42"/>
<path d="M1059.81 133.603C1058.21 131.785 1055.76 132.748 1053.72 134.247C1053.3 134.549 1052.78 134.611 1052.32 134.491C1051.1 134.178 1050.48 132.619 1049.63 131.699C1048.63 130.607 1047.6 129.492 1045.64 129.89L1045.37 133.688C1044.7 141.855 1047.96 148.009 1054.64 147.293C1062.98 146.395 1062.86 137.071 1059.81 133.603Z" fill="#2E2A42"/>
<path fill-rule="evenodd" clip-rule="evenodd" d="M1048.35 68.0068C1046.83 68.0068 1045.6 69.2355 1045.6 70.7512L1045.6 136.144C1045.6 137.66 1046.83 138.888 1048.35 138.888C1049.86 138.888 1051.09 137.66 1051.09 136.144L1051.09 70.7511C1051.09 69.2355 1049.86 68.0068 1048.35 68.0068Z" fill="#2E2A42"/>
<path d="M1005.08 16.532C1003.95 15.4685 999.898 11.2147 999.13 10.8531C998.149 10.3851 997.574 10.0874 996.571 10.8531L953.504 53.3281C922.211 90.4859 956.277 140.236 1001.5 136.683C1046.57 133.153 1071.87 85.3813 1038.98 50.0952C1028.65 39.0138 1016.09 27.0392 1005.06 16.532H1005.08Z" fill="#D7BEFC"/>
<path d="M974.709 69.9297C978.481 68.9018 982.683 69.8676 985.646 72.8274C988.608 75.7871 989.575 79.9855 988.546 83.7538C990.374 83.2559 992.099 82.2899 993.535 80.856C997.932 76.4624 997.932 69.339 993.535 64.9454C989.137 60.5517 982.007 60.5517 977.609 64.9454C976.174 66.3793 975.207 68.104 974.709 69.9297Z" fill="white"/>
<path d="M974.706 69.9325C978.478 68.9044 982.681 69.8702 985.644 72.8301C988.606 75.7896 989.573 79.9878 988.544 83.7559C984.772 84.784 980.57 83.8181 977.607 80.8582C974.645 77.8987 973.678 73.7007 974.706 69.9325Z" fill="#2E2A42"/>
<path d="M1004.27 64.9454C1008.67 60.5517 1015.8 60.5517 1020.2 64.9454C1024.59 69.339 1024.59 76.4624 1020.2 80.856C1018.76 82.29 1017.04 83.256 1015.21 83.7539C1016.24 79.9856 1015.27 75.787 1012.31 72.8273C1009.34 69.8676 1005.14 68.9018 1001.37 69.9295C1001.87 68.1038 1002.84 66.3793 1004.27 64.9454Z" fill="white"/>
<path d="M1001.37 69.9325C1005.14 68.9044 1009.34 69.8702 1012.3 72.8301C1015.27 75.7896 1016.23 79.9877 1015.21 83.7558C1011.43 84.7839 1007.23 83.818 1004.27 80.8582C1001.31 77.8986 1000.34 73.7006 1001.37 69.9325Z" fill="#2E2A42"/>
</g>
</g>
</g>
<g clip-path="url(#clip16_1_126)">
<g clip-path="url(#clip17_1_126)">
<g clip-path="url(#clip18_1_126)">
<path fill-rule="evenodd" clip-rule="evenodd" d="M1271.45 170.942C1270.55 170.965 1269.79 170.247 1269.77 169.337L1268.73 127.218C1268.71 126.31 1269.42 125.554 1270.33 125.532C1271.24 125.509 1272 126.228 1272.02 127.137L1273.06 169.257C1273.08 170.165 1272.36 170.921 1271.45 170.942Z" fill="#2E2A42"/>
<path d="M1284.83 170.507L1271.84 170.922C1270.6 170.961 1269.57 169.952 1269.57 168.707C1269.57 163.424 1269.63 163.364 1273.51 163.567C1279.76 163.894 1283.67 165.681 1286.05 167.393C1287.51 168.438 1286.62 170.449 1284.83 170.507Z" fill="#2E2A42"/>
<path fill-rule="evenodd" clip-rule="evenodd" d="M1254.52 170.944C1255.43 170.966 1256.19 170.247 1256.21 169.338L1257.25 127.219C1257.27 126.311 1256.55 125.555 1255.65 125.532C1254.74 125.511 1253.98 126.229 1253.96 127.138L1252.92 169.257C1252.9 170.165 1253.62 170.921 1254.52 170.944Z" fill="#2E2A42"/>
<path d="M1241.15 170.507L1253.93 170.914C1255.26 170.956 1256.31 169.811 1256.26 168.48C1256.06 163.484 1257.11 163.336 1253.29 163.536C1246.88 163.871 1242.64 165.753 1240.03 167.512C1238.55 168.515 1239.36 170.449 1241.15 170.507Z" fill="#2E2A42"/>
<path d="M1288.91 102.369C1292.26 106.138 1291.59 110.324 1290.99 114.859C1292.96 121.061 1301.64 132.489 1302.33 138.351C1302.89 143.096 1299.06 147.533 1294.37 147.971C1275.67 149.724 1254.31 146.601 1235.32 147.971C1229.64 147.631 1226.43 142.832 1227.48 137.332C1228.7 130.835 1237.05 120.075 1239.23 113.227C1236.94 106.029 1237.36 98.9067 1243.62 93.9324C1245.77 92.234 1249.41 91.478 1250.53 90.3604C1253.88 86.9857 1254.91 78.078 1259.7 74.7143C1265.08 70.9342 1269.81 73.4323 1272.85 78.4724C1275.88 83.5125 1279.61 94.6226 1282.77 98.315C1283.94 99.6627 1287.28 100.539 1288.91 102.38V102.369Z" fill="#4598E6"/>
<path d="M1255.46 100.779C1259.53 100.779 1262.82 104.138 1262.82 108.281C1262.82 112.424 1259.53 115.784 1255.46 115.784C1254.14 115.784 1252.89 115.424 1251.82 114.8C1254.04 113.508 1255.54 111.074 1255.54 108.281C1255.54 105.488 1254.04 103.053 1251.82 101.762C1252.89 101.137 1254.14 100.779 1255.46 100.779Z" fill="white"/>
<path d="M1251.85 101.759C1254.07 103.05 1255.57 105.484 1255.57 108.277C1255.57 111.07 1254.07 113.504 1251.85 114.795C1249.63 113.504 1248.13 111.07 1248.13 108.277C1248.13 105.484 1249.63 103.05 1251.85 101.759Z" fill="#2E2A42"/>
<path d="M1272.91 100.779C1276.97 100.779 1280.27 104.138 1280.27 108.281C1280.27 112.424 1276.97 115.784 1272.91 115.784C1271.58 115.784 1270.34 115.425 1269.27 114.801C1271.49 113.509 1272.99 111.074 1272.99 108.281C1272.99 105.488 1271.49 103.052 1269.27 101.761C1270.34 101.136 1271.58 100.779 1272.91 100.779Z" fill="white"/>
<path d="M1269.23 101.759C1271.45 103.05 1272.95 105.484 1272.95 108.277C1272.95 111.07 1271.45 113.504 1269.23 114.795C1267.01 113.504 1265.51 111.07 1265.51 108.277C1265.51 105.485 1267.01 103.05 1269.23 101.759Z" fill="#2E2A42"/>
<path fill-rule="evenodd" clip-rule="evenodd" d="M1206.55 97.0854C1206.03 98.5099 1206.77 100.084 1208.19 100.6C1214.79 102.993 1219.46 105.554 1223.65 109.677C1227.89 113.855 1231.8 119.788 1236.59 129.2C1237.27 130.55 1238.93 131.089 1240.28 130.402C1241.63 129.716 1242.17 128.063 1241.48 126.713C1236.61 117.131 1232.38 110.57 1227.5 105.766C1222.56 100.906 1217.11 97.9966 1210.06 95.4417C1208.64 94.925 1207.07 95.6608 1206.55 97.0854Z" fill="#2E2A42"/>
<path d="M1230.47 135.087C1232.56 133.072 1233.45 132.097 1234.62 128.858C1235.3 126.995 1234.9 124.923 1233.7 123.347L1239.33 122.907C1241.71 126.458 1245.6 128.765 1247.44 132.623C1249.54 137.014 1250.01 141.573 1245.37 144.95C1241.27 147.923 1241.85 138.252 1238.49 135.213C1238.29 135.036 1237.99 135.07 1237.8 135.254C1235.27 137.72 1232.18 138.123 1230.39 136.376C1230.03 136.02 1230.11 135.441 1230.47 135.087Z" fill="#2E2A42"/>
<path fill-rule="evenodd" clip-rule="evenodd" d="M1125.42 97.0925C1125.93 98.517 1125.2 100.091 1123.77 100.607C1117.18 103 1112.5 105.561 1108.32 109.684C1104.07 113.862 1100.16 119.795 1095.38 129.207C1094.69 130.558 1093.04 131.096 1091.69 130.41C1090.34 129.722 1089.8 128.071 1090.49 126.72C1095.36 117.137 1099.58 110.577 1104.47 105.773C1109.4 100.913 1114.86 98.0037 1121.9 95.4488C1123.32 94.932 1124.9 95.6679 1125.42 97.0925Z" fill="#2E2A42"/>
<path d="M1101.49 135.094C1099.4 133.079 1098.51 132.105 1097.34 128.866C1096.66 127.002 1097.06 124.931 1098.26 123.354L1092.63 122.914C1090.25 126.465 1086.36 128.772 1084.52 132.63C1082.42 137.022 1081.95 141.58 1086.6 144.956C1090.69 147.93 1090.12 138.259 1093.48 135.22C1093.67 135.043 1093.97 135.078 1094.16 135.261C1096.69 137.728 1099.79 138.13 1101.57 136.383C1101.93 136.027 1101.86 135.448 1101.49 135.094Z" fill="#2E2A42"/>
<path fill-rule="evenodd" clip-rule="evenodd" d="M1176.54 173.485C1175.02 173.523 1173.76 172.324 1173.73 170.81L1171.99 100.612C1171.95 99.097 1173.15 97.8387 1174.67 97.8013C1176.18 97.7639 1177.44 98.9616 1177.48 100.476L1179.21 170.674C1179.25 172.19 1178.05 173.447 1176.54 173.485Z" fill="#2E2A42"/>
<path d="M1198.83 172.759L1177.18 173.449C1175.11 173.515 1173.39 171.836 1173.39 169.759C1173.39 160.953 1173.5 160.854 1179.96 161.192C1190.39 161.737 1196.89 164.716 1200.87 167.569C1203.29 169.31 1201.81 172.664 1198.83 172.759Z" fill="#2E2A42"/>
<path fill-rule="evenodd" clip-rule="evenodd" d="M1148.32 173.486C1149.83 173.524 1151.09 172.326 1151.13 170.811L1152.86 100.613C1152.9 99.0981 1151.7 97.8398 1150.19 97.8024C1148.67 97.765 1147.41 98.9627 1147.38 100.478L1145.64 170.675C1145.61 172.191 1146.8 173.448 1148.32 173.486Z" fill="#2E2A42"/>
<path d="M1126.02 172.759L1147.32 173.437C1149.54 173.508 1151.3 171.599 1151.21 169.382C1150.89 161.055 1152.63 160.807 1146.27 161.139C1135.58 161.698 1128.51 164.836 1124.17 167.768C1121.7 169.439 1123.04 172.664 1126.02 172.759Z" fill="#2E2A42"/>
<path d="M1205.64 59.1839C1211.23 65.4658 1210.11 72.4415 1209.11 80.0017C1212.4 90.3375 1226.86 109.384 1228.01 119.153C1228.94 127.061 1222.55 134.456 1214.73 135.187C1183.58 138.109 1147.97 132.904 1116.33 135.187C1106.87 134.621 1101.52 126.623 1103.25 117.455C1105.3 106.626 1119.21 88.694 1122.84 77.2808C1119.03 65.2832 1119.72 53.4133 1130.17 45.1228C1133.75 42.2924 1139.81 41.0323 1141.67 39.1696C1147.26 33.5452 1148.98 18.6989 1156.96 13.0927C1165.92 6.79256 1173.81 10.9562 1178.87 19.3563C1183.93 27.7565 1190.14 46.2733 1195.41 52.4273C1197.35 54.6734 1202.92 56.1343 1205.64 59.2022V59.1839Z" fill="#4598E6"/>
<path d="M1192.26 65.5552C1188.06 64.4119 1183.38 65.4862 1180.08 68.7777C1176.79 72.0692 1175.71 76.7381 1176.86 80.9288C1174.82 80.375 1172.9 79.3009 1171.3 77.7062C1166.41 72.8202 1166.41 64.8983 1171.3 60.0123C1176.2 55.1261 1184.13 55.1261 1189.03 60.0123C1190.63 61.6069 1191.7 63.5249 1192.26 65.5552Z" fill="white"/>
<path d="M1192.26 65.5507C1188.06 64.4075 1183.38 65.4816 1180.08 68.7732C1176.79 72.0645 1175.71 76.7334 1176.86 80.924C1181.05 82.0672 1185.73 80.993 1189.03 77.7015C1192.33 74.4101 1193.4 69.7412 1192.26 65.5507Z" fill="#2E2A42"/>
<path d="M1159.35 60.0123C1154.45 55.1261 1146.52 55.1261 1141.62 60.0123C1136.73 64.8983 1136.73 72.8202 1141.62 77.7062C1143.22 79.3014 1145.14 80.3758 1147.18 80.9294C1146.03 76.7386 1147.11 72.0693 1150.41 68.7777C1153.7 65.4867 1158.38 64.4124 1162.58 65.5546C1162.02 63.5245 1160.94 61.6067 1159.35 60.0123Z" fill="white"/>
<path d="M1162.58 65.5507C1158.38 64.4075 1153.7 65.4816 1150.4 68.7732C1147.11 72.0645 1146.03 76.7334 1147.18 80.924C1151.37 82.0672 1156.05 80.993 1159.35 77.7015C1162.64 74.4101 1163.72 69.7412 1162.58 65.5507Z" fill="#2E2A42"/>
</g>
</g>
</g>
<g clip-path="url(#clip19_1_126)">
<g clip-path="url(#clip20_1_126)">
<g clip-path="url(#clip21_1_126)">
<path d="M1440.04 173.449L1453.94 173.223C1454.55 173.213 1455.01 172.695 1454.99 172.093C1454.72 165.62 1456.24 165.669 1446.27 167.295C1442.97 167.833 1440.5 169.212 1438.77 170.593C1437.44 171.655 1438.34 173.477 1440.04 173.449Z" fill="#2E2A42"/>
<path d="M1456.63 76.3141C1447.49 75.0892 1437.9 77.5906 1434.32 86.7968C1428.89 100.748 1444.81 107.311 1446.87 119.006C1448.65 129.217 1438.59 143.452 1450.48 149.486C1464.61 156.642 1481.19 142.691 1484.74 129.295C1489.53 111.127 1477.24 79.0991 1456.63 76.327V76.3141Z" fill="#62D09E"/>
<path fill-rule="evenodd" clip-rule="evenodd" d="M1433.14 63.9354C1434.43 63.4504 1435.87 64.0996 1436.35 65.3853C1436.95 66.9636 1437.63 68.7153 1438.35 70.5806C1441.47 78.6181 1445.41 88.7628 1446.89 96.2113C1447.16 97.5591 1446.28 98.8686 1444.93 99.1361C1443.59 99.4036 1442.28 98.5278 1442.01 97.18C1440.63 90.2107 1436.92 80.6523 1433.8 72.6151C1433.05 70.6837 1432.34 68.8401 1431.69 67.1414C1431.21 65.8557 1431.86 64.4203 1433.14 63.9354Z" fill="#2E2A42"/>
<path fill-rule="evenodd" clip-rule="evenodd" d="M1372.13 58.2793C1370.96 57.561 1369.43 57.9284 1368.71 59.0998C1367.83 60.5378 1366.83 62.1302 1365.77 63.8258C1361.19 71.1321 1355.41 80.3537 1352.55 87.3909C1352.04 88.6643 1352.65 90.1152 1353.93 90.6315C1355.2 91.148 1356.65 90.5343 1357.17 89.2609C1359.84 82.6765 1365.28 73.9871 1369.85 66.6805C1370.95 64.9246 1372 63.2486 1372.95 61.7008C1373.67 60.5295 1373.3 58.9976 1372.13 58.2793Z" fill="#2E2A42"/>
<path fill-rule="evenodd" clip-rule="evenodd" d="M1418.27 172.292C1416.76 172.236 1415.6 171.868 1415.66 170.363L1418.29 99.6995C1418.34 98.1945 1419.61 97.02 1421.11 97.0759C1422.62 97.1317 1423.79 98.397 1423.74 99.9019L1421.11 170.566C1421.05 172.071 1419.77 172.348 1418.27 172.292Z" fill="#2E2A42"/>
<path d="M1440.74 172.96L1417.57 172.583C1416.57 172.567 1415.79 171.703 1415.83 170.701C1416.27 159.911 1413.74 159.993 1430.36 162.704C1435.86 163.6 1439.98 165.898 1442.86 168.198C1445.07 169.97 1443.58 173.006 1440.74 172.96Z" fill="#2E2A42"/>
<path fill-rule="evenodd" clip-rule="evenodd" d="M1389.88 172.292C1391.38 172.236 1392.54 171.868 1392.49 170.363L1389.86 99.6995C1389.8 98.1945 1388.54 97.02 1387.03 97.0759C1385.53 97.1317 1384.35 98.397 1384.41 99.9019L1387.04 170.566C1387.09 172.071 1388.37 172.348 1389.88 172.292Z" fill="#2E2A42"/>
<path d="M1367.42 172.96L1390.58 172.583C1391.59 172.567 1392.37 171.703 1392.33 170.701C1391.89 159.911 1394.42 159.993 1377.8 162.704C1372.3 163.6 1368.18 165.898 1365.3 168.198C1363.08 169.97 1364.58 173.006 1367.42 172.96Z" fill="#2E2A42"/>
<path d="M1413.14 11.0959C1428.38 9.05435 1444.35 13.2233 1450.33 28.567C1459.38 51.8188 1432.85 62.7572 1429.42 82.2483C1426.44 99.2682 1443.21 122.993 1423.39 133.05C1399.84 144.977 1372.21 121.725 1366.3 99.3972C1358.31 69.1181 1378.8 15.7376 1413.14 11.1174V11.0959Z" fill="#62D09E"/>
<path d="M1426.81 50.5183C1423.87 49.7184 1420.59 50.4701 1418.29 52.7733C1415.98 55.0766 1415.22 58.3437 1416.03 61.2762C1414.6 60.8886 1413.26 60.137 1412.14 59.0212C1408.71 55.6022 1408.71 50.0587 1412.14 46.6396C1415.57 43.2205 1421.12 43.2205 1424.55 46.6396C1425.67 47.7555 1426.42 49.0977 1426.81 50.5183Z" fill="white"/>
<path d="M1426.8 50.516C1423.86 49.7161 1420.59 50.4677 1418.28 52.771C1415.97 55.0741 1415.21 58.3412 1416.02 61.2736C1418.96 62.0736 1422.23 61.3219 1424.54 59.0186C1426.85 56.7154 1427.6 53.4484 1426.8 50.516Z" fill="#2E2A42"/>
<path d="M1403.77 46.6394C1400.35 43.2204 1394.79 43.2204 1391.36 46.6394C1387.94 50.0585 1387.94 55.602 1391.36 59.0211C1392.48 60.1373 1393.83 60.8891 1395.25 61.2765C1394.45 58.344 1395.21 55.0765 1397.51 52.7732C1399.82 50.4703 1403.1 49.7185 1406.03 50.5178C1405.65 49.0973 1404.89 47.7553 1403.77 46.6394Z" fill="white"/>
<path d="M1406.03 50.516C1403.09 49.7161 1399.81 50.4677 1397.5 52.771C1395.2 55.0741 1394.44 58.3412 1395.24 61.2736C1398.18 62.0736 1401.46 61.3219 1403.77 59.0186C1406.08 56.7154 1406.83 53.4484 1406.03 50.516Z" fill="#2E2A42"/>
<path fill-rule="evenodd" clip-rule="evenodd" d="M1437.45 74.3005C1438.77 73.9294 1440.15 74.7012 1440.52 76.0243C1440.71 76.7071 1445.42 90.5341 1445.59 91.1358C1446.01 92.6324 1446.36 93.8787 1446.62 94.8766C1446.95 96.1529 1447.25 97.4603 1447.18 98.4875C1447.14 99.0495 1446.96 100.022 1446.11 100.761C1445.25 101.506 1444.26 101.54 1443.72 101.5C1443.17 101.458 1442.63 101.305 1442.21 101.17C1441.77 101.026 1441.27 100.839 1440.76 100.647C1440.67 100.611 1440.57 100.574 1440.47 100.536C1436.46 99.0051 1412.95 94.9273 1398.74 96.9565C1397.38 97.1508 1396.12 96.2056 1395.93 94.8454C1395.74 93.4851 1396.68 92.2248 1398.04 92.0306C1412.82 89.9199 1437.12 93.9513 1441.68 95.6739C1441.46 94.8188 1441.17 93.7957 1440.82 92.5558C1440.64 91.9429 1435.93 78.0925 1435.73 77.3678C1435.36 76.0447 1436.13 74.6714 1437.45 74.3005Z" fill="#2E2A42"/>
<path d="M1414.28 83.5687C1414.04 85.807 1414.1 87.6554 1414.56 89.3725C1415.07 91.3004 1417.15 92.1904 1419.12 91.8611L1416.24 96.8357C1411.35 98.2289 1390.18 102.973 1392.36 95.4248C1393.7 90.8218 1402.75 90.1427 1407.69 89.8989C1408.32 89.8679 1408.82 89.3778 1408.93 88.7553C1409.48 85.6131 1411.11 82.5824 1413.16 82.1792C1413.91 82.0335 1414.36 82.8173 1414.28 83.5687Z" fill="#2E2A42"/>
<path fill-rule="evenodd" clip-rule="evenodd" d="M1359.03 79.758C1357.8 79.1447 1356.31 79.6442 1355.69 80.8738C1355.38 81.5083 1355.08 82.1049 1354.8 82.6639C1354.1 84.054 1353.52 85.2118 1353.08 86.1432C1352.51 87.3347 1351.97 88.5616 1351.85 89.5842C1351.78 90.1436 1351.78 91.1332 1352.47 92.0188C1353.17 92.9109 1354.14 93.1309 1354.67 93.1927C1355.22 93.2561 1355.78 93.2072 1356.22 93.1535C1356.69 93.0963 1357.21 93.0062 1357.74 92.9128C1357.84 92.8953 1357.95 92.8771 1358.05 92.8584C1362.28 92.1108 1386.13 92.5301 1399.7 97.1973C1401 97.6441 1402.42 96.953 1402.87 95.6536C1403.31 94.3542 1402.62 92.9386 1401.32 92.4917C1387.2 87.637 1362.58 87.0227 1357.77 87.8553C1358.16 87.0584 1358.64 86.108 1359.21 84.9563C1359.5 84.387 1359.81 83.7685 1360.14 83.095C1360.76 81.8655 1360.26 80.3714 1359.03 79.758Z" fill="#2E2A42"/>
<path d="M1394.4 82.3633C1394.22 84.6071 1393.81 86.4114 1393.04 88.0115C1392.17 89.808 1389.96 90.2908 1388.09 89.5971L1389.99 95.0258C1394.52 97.3134 1414.43 105.958 1413.7 98.1335C1413.26 93.3617 1404.5 90.9916 1399.69 89.8218C1399.07 89.6724 1398.67 89.0962 1398.68 88.4644C1398.73 85.2746 1397.7 81.9915 1395.76 81.2094C1395.06 80.9266 1394.46 81.6101 1394.4 82.3633Z" fill="#2E2A42"/>
</g>
</g>
</g>
</g>
<defs>
<radialGradient id="paint0_radial_1_126" cx="0" cy="0" r="1" gradientUnits="userSpaceOnUse" gradientTransform="translate(799.967 137.3) rotate(132.813) scale(81.2298 81.4709)">
<stop stop-color="#FF93AB"/>
<stop offset="0.591364" stop-color="#FF914D"/>
<stop offset="0.788485" stop-color="#FFA552"/>
</radialGradient>
<radialGradient id="paint1_radial_1_126" cx="0" cy="0" r="1" gradientUnits="userSpaceOnUse" gradientTransform="translate(680.609 117.857) rotate(132.813) scale(135.383 135.785)">
<stop stop-color="#FF93AB"/>
<stop offset="0.591364" stop-color="#FF914D"/>
<stop offset="0.788485" stop-color="#FFA552"/>
</radialGradient>
<clipPath id="clip0_1_126">
<rect width="1440" height="184" fill="white"/>
</clipPath>
<clipPath id="clip1_1_126">
<rect width="142.19" height="164" fill="white" transform="translate(8 10)"/>
</clipPath>
<clipPath id="clip2_1_126">
<rect width="142.19" height="164" fill="white" transform="translate(8 10)"/>
</clipPath>
<clipPath id="clip3_1_126">
<rect width="142.19" height="163.986" fill="white" transform="translate(8 10.0072)"/>
</clipPath>
<clipPath id="clip4_1_126">
<rect width="208.89" height="164" fill="white" transform="translate(166.19 10)"/>
</clipPath>
<clipPath id="clip5_1_126">
<rect width="208.89" height="164" fill="white" transform="translate(166.19 10)"/>
</clipPath>
<clipPath id="clip6_1_126">
<rect width="208.89" height="163.988" fill="white" transform="translate(166.19 10.0057)"/>
</clipPath>
<clipPath id="clip7_1_126">
<rect width="251.19" height="164" fill="white" transform="translate(391.08 10)"/>
</clipPath>
<clipPath id="clip8_1_126">
<rect width="251.19" height="164" fill="white" transform="translate(391.08 10)"/>
</clipPath>
<clipPath id="clip9_1_126">
<rect width="251.19" height="164" fill="white" transform="translate(391.08 10)"/>
</clipPath>
<clipPath id="clip10_1_126">
<rect width="208.45" height="164" fill="white" transform="translate(658.27 10)"/>
</clipPath>
<clipPath id="clip11_1_126">
<rect width="208.45" height="164" fill="white" transform="translate(658.27 10)"/>
</clipPath>
<clipPath id="clip12_1_126">
<rect width="208.45" height="163.994" fill="white" transform="translate(658.27 10.0031)"/>
</clipPath>
<clipPath id="clip13_1_126">
<rect width="179.66" height="164" fill="white" transform="translate(882.72 10)"/>
</clipPath>
<clipPath id="clip14_1_126">
<rect width="179.66" height="164" fill="white" transform="translate(882.72 10)"/>
</clipPath>
<clipPath id="clip15_1_126">
<rect width="179.66" height="163.992" fill="white" transform="translate(882.72 10.004)"/>
</clipPath>
<clipPath id="clip16_1_126">
<rect width="224.58" height="164" fill="white" transform="translate(1078.38 10)"/>
</clipPath>
<clipPath id="clip17_1_126">
<rect width="224.58" height="164" fill="white" transform="translate(1078.38 10)"/>
</clipPath>
<clipPath id="clip18_1_126">
<rect width="224.58" height="163.996" fill="white" transform="translate(1078.38 10.0022)"/>
</clipPath>
<clipPath id="clip19_1_126">
<rect width="142.19" height="164" fill="white" transform="translate(1350.95 10)"/>
</clipPath>
<clipPath id="clip20_1_126">
<rect width="142.19" height="164" fill="white" transform="translate(1350.95 10)"/>
</clipPath>
<clipPath id="clip21_1_126">
<rect width="142.19" height="163.986" fill="white" transform="translate(1350.95 10.0072)"/>
</clipPath>
</defs>
</svg>
