<svg width="177" height="179" viewBox="0 0 177 179" fill="none" xmlns="http://www.w3.org/2000/svg">
<g clip-path="url(#clip0_1_839)">
<path fill-rule="evenodd" clip-rule="evenodd" d="M57.0248 161.633C55.5471 161.155 54.7367 159.57 55.2148 158.092L77.2274 90.0562C77.7055 88.5784 79.291 87.7681 80.7688 88.2462C82.2465 88.7243 83.0568 90.3098 82.5787 91.7876L60.5662 159.824C60.0881 161.301 58.5026 162.112 57.0248 161.633Z" fill="#2E2A42"/>
<path d="M71.9035 177.832L55.5165 161.091C54.8063 160.366 54.8599 159.191 55.578 158.473C63.3436 150.714 59.3067 146.01 71.7354 163.08C75.0481 167.63 76.3784 172.214 76.8118 175.913C77.1457 178.763 73.9104 179.881 71.9035 177.832Z" fill="#2E2A42"/>
<path fill-rule="evenodd" clip-rule="evenodd" d="M95.1459 145.963C95.1459 144.41 96.405 143.151 97.9581 143.151C114.169 143.151 123.31 135.946 125.099 126.966C126.937 117.743 121.499 104.722 104.237 92.2819C102.977 91.3738 102.692 89.6162 103.6 88.3561C104.508 87.0962 106.266 86.8109 107.526 87.7189C125.541 100.703 133.086 115.662 130.615 128.065C128.096 140.71 115.637 148.775 97.9582 148.775C96.405 148.775 95.1459 147.516 95.1459 145.963Z" fill="#2E2A42"/>
<path d="M103.005 169.751L95.1852 147.669C94.8464 146.713 95.388 145.667 96.3531 145.351C106.734 141.961 105.762 139.592 109.061 156.299C110.151 161.821 109.429 166.539 108.264 170.078C107.368 172.803 103.963 172.456 103.005 169.751Z" fill="#2E2A42"/>
<path fill-rule="evenodd" clip-rule="evenodd" d="M174.585 15.3033C182.209 50.1468 158.318 75.0953 131.24 75.0953C129.686 75.0953 128.427 73.8362 128.427 72.2831C128.427 70.7299 129.686 69.4709 131.24 69.4709C154.646 69.4709 175.964 47.9209 169.09 16.5055C168.759 14.9883 169.719 13.4891 171.237 13.1571C172.753 12.8252 174.253 13.7861 174.585 15.3033Z" fill="#2E2A42"/>
<path d="M169.588 19.0166L175.252 19.7648C174.56 8.87553 170.04 1.44953 163.503 3.00157C155.33 4.94162 156.623 14.186 160.086 17.2462C162.177 19.0936 164.706 17.168 166.521 15.0696C167.136 14.3583 168.367 14.5985 168.577 15.5153L169.588 19.0166Z" fill="#2E2A42"/>
<path fill-rule="evenodd" clip-rule="evenodd" d="M56.0967 81.3962C56.7533 82.8034 56.1447 84.4763 54.7375 85.1328C48.2219 88.1726 43.6867 91.21 39.7839 95.7976C35.8284 100.447 32.3789 106.856 28.3465 116.896C27.7678 118.338 26.1306 119.036 24.6896 118.457C23.2488 117.88 22.5498 116.242 23.1284 114.801C27.2336 104.58 30.9534 97.4996 35.501 92.154C40.1013 86.7464 45.403 83.2828 52.3601 80.037C53.7673 79.3805 55.4402 79.9891 56.0967 81.3962Z" fill="#2E2A42"/>
<path d="M34.3496 121.724C32.5621 120.237 31.6362 119.191 30.3202 116.371C29.5833 114.793 29.6416 112.985 30.3575 111.418C30.5117 111.081 30.2775 110.668 29.9066 110.672C26.8621 110.704 24.0556 112.381 22.0999 114.715C20.3517 116.801 18.529 118.816 17.5752 121.376C15.8338 126.048 15.7675 130.743 20.8149 133.769C25.0177 136.289 23.9414 127.644 26.4796 123.816C26.8744 123.221 27.6847 123.246 28.272 123.653C30.538 125.221 32.9625 125.432 34.58 124.326C35.4882 123.706 35.1954 122.427 34.3496 121.724Z" fill="#2E2A42"/>
<path d="M94.3447 113.097C88.4876 119.23 82.2332 123.772 73.8597 121.201C63.5787 118.044 60.2729 108.911 60.4481 97.2736C51.6772 97.6127 43.7081 96.6157 39.4326 88.68C34.3318 79.212 38.3933 70.3904 46.6921 62.2292C40.2094 56.3095 35.2349 50.002 37.7657 41.349C40.7846 31.0271 49.872 27.5997 61.511 27.619C61.0544 18.8526 61.9437 10.8698 69.822 6.4883C79.2209 1.26113 88.0968 5.20391 96.3684 13.3927C102.201 6.83177 108.44 1.77332 117.125 4.18775C127.488 7.06844 131.037 16.1099 131.173 27.7493C139.932 27.1752 147.927 27.9573 152.414 35.7766C157.767 45.1051 153.943 54.0339 145.865 62.4145C152.502 68.158 157.642 74.329 155.344 83.0455C152.501 93.8318 142.932 97.3799 130.665 97.4268C130.336 97.3399 130.01 97.2458 129.688 97.1437C130.238 106.987 129.878 116.215 121.081 120.88C111.448 125.986 102.543 121.682 94.3447 113.097Z" fill="url(#paint0_radial_1_839)"/>
<path d="M118.936 59.9383C114.167 64.7074 106.435 64.7074 101.666 59.9384C96.8964 55.1692 96.8964 47.437 101.666 42.6678C103.222 41.1112 105.094 40.0627 107.076 39.5222C105.96 43.6126 107.009 48.17 110.221 51.3826C113.434 54.5952 117.991 55.6436 122.081 54.5282C121.541 56.5098 120.492 58.3819 118.936 59.9383Z" fill="white"/>
<path d="M122.085 54.5278C117.995 55.6437 113.438 54.5953 110.225 51.3825C107.012 48.1699 105.964 43.6126 107.08 39.5223C111.17 38.4064 115.727 39.4549 118.94 42.6676C122.153 45.8803 123.201 50.4376 122.085 54.5278Z" fill="#2E2A42"/>
<path d="M90.0324 59.9384C85.2633 64.7074 77.531 64.7074 72.7619 59.9384C67.9928 55.1692 67.9928 47.437 72.7619 42.6679C74.3185 41.1112 76.191 40.0627 78.1729 39.5222C77.0573 43.6125 78.1057 48.1698 81.3184 51.3823C84.5308 54.5948 89.0877 55.6433 93.1779 54.528C92.6373 56.5097 91.5889 58.3819 90.0324 59.9384Z" fill="white"/>
<path d="M93.1785 54.5278C89.0881 55.6437 84.5305 54.5953 81.3178 51.3825C78.1051 48.1699 77.0567 43.6126 78.1723 39.5223C82.2627 38.4064 86.8203 39.4549 90.033 42.6676C93.2457 45.8803 94.2942 50.4376 93.1785 54.5278Z" fill="#2E2A42"/>
</g>
<defs>
<radialGradient id="paint0_radial_1_839" cx="0" cy="0" r="1" gradientUnits="userSpaceOnUse" gradientTransform="translate(150.174 17.3809) rotate(-44.8545) scale(135.98 136.473)">
<stop stop-color="#FF93AB"/>
<stop offset="0.826964" stop-color="#FFA552"/>
</radialGradient>
<clipPath id="clip0_1_839">
<rect width="177" height="178.989" fill="white" transform="translate(0 -0.00439453)"/>
</clipPath>
</defs>
</svg>
