<svg width="40" height="30" viewBox="0 0 40 30" fill="none" xmlns="http://www.w3.org/2000/svg">
<g clip-path="url(#clip0_1_827)">
<path d="M10.4328 2.51231C9.70517 2.49383 9.24677 1.54516 9.90197 1.22789C13.6718 -0.597922 16.1309 1.72461 18.9953 1.0533C19.4754 0.940785 19.9995 1.2678 19.9995 1.76098V4.89089C19.9995 5.24961 19.714 5.54665 19.3553 5.54052C14.7849 5.4625 13.7973 2.598 10.4328 2.51231Z" fill="url(#paint0_linear_1_827)"/>
<path d="M35.8777 19.9679L23.8594 21.595C23.8594 13.5354 23.8594 7.84392 19.8411 1.6039C19.5405 1.05172 20.5497 1.27969 20.2239 0.693604C30.6762 5.54914 34.9556 11.4016 35.8777 19.9679Z" fill="url(#paint1_linear_1_827)"/>
<path d="M19.7825 21.8066V8.26978C15.9854 11.6933 11.314 18.4409 9.66161 22.8819L19.7825 21.8066Z" fill="url(#paint2_linear_1_827)"/>
<path fill-rule="evenodd" clip-rule="evenodd" d="M19.9994 0.390869C20.368 0.390869 20.6668 0.689652 20.6668 1.05824V21.3581C20.6668 21.7267 20.368 22.0254 19.9994 22.0254C19.6308 22.0254 19.332 21.7267 19.332 21.3581V1.05824C19.332 0.689652 19.6308 0.390869 19.9994 0.390869Z" fill="#2E2A42"/>
<path fill-rule="evenodd" clip-rule="evenodd" d="M5.18286 22.7582C4.51091 22.8376 4.00462 23.4072 4.00462 24.0838V24.8643C4.00462 27.0758 5.79739 28.8686 8.00888 28.8686H9.98328L12.1106 26.9674L14.5572 28.8686H17.8971L20.0884 26.8611L22.5135 28.8686H25.4117C25.5802 28.8686 25.7488 28.8666 25.9174 28.8622L27.7895 26.8611L29.6509 28.0867C33.3277 26.4575 36.0334 23.3432 37.0459 19.8654C37.1729 19.4289 36.8023 19.0249 36.3509 19.0782L5.18286 22.7582Z" fill="url(#paint3_linear_1_827)"/>
<path fill-rule="evenodd" clip-rule="evenodd" d="M27.733 25.707C27.9951 25.707 28.2329 25.8604 28.341 26.0992C28.9028 27.3403 30.1513 28.2016 31.5995 28.2016C33.0478 28.2016 34.2963 27.3403 34.8581 26.0992C34.9661 25.8604 35.204 25.707 35.466 25.707C35.7281 25.707 35.966 25.8604 36.074 26.0992C36.6359 27.3403 37.8844 28.2016 39.3327 28.2016C39.7012 28.2016 40 28.5003 40 28.8689C40 29.2376 39.7012 29.5363 39.3327 29.5363C37.7618 29.5363 36.3643 28.7987 35.466 27.6523C34.5679 28.7987 33.1703 29.5363 31.5995 29.5363C30.0288 29.5363 28.6313 28.7987 27.733 27.6523C26.8348 28.7987 25.4372 29.5363 23.8665 29.5363C22.2958 29.5363 20.8982 28.7987 20 27.6523C19.1017 28.7987 17.7041 29.5363 16.1335 29.5363C14.5627 29.5363 13.1652 28.7987 12.267 27.6523C11.3687 28.7987 9.97113 29.5363 8.40036 29.5363C6.82967 29.5363 5.43212 28.7987 4.53389 27.6523C3.63567 28.7987 2.23811 29.5363 0.667372 29.5363C0.298789 29.5363 0 29.2376 0 28.8689C0 28.5003 0.298789 28.2016 0.667372 28.2016C2.1156 28.2016 3.36409 27.3403 3.92591 26.0992C4.03399 25.8604 4.27181 25.707 4.53389 25.707C4.79598 25.707 5.0338 25.8604 5.14188 26.0992C5.70367 27.3403 6.9522 28.2016 8.40036 28.2016C9.84865 28.2016 11.0971 27.3403 11.659 26.0992C11.7671 25.8604 12.0049 25.707 12.267 25.707C12.529 25.707 12.7668 25.8604 12.8749 26.0992C13.4367 27.3403 14.6852 28.2016 16.1335 28.2016C17.5817 28.2016 18.8302 27.3403 19.392 26.0992C19.5001 25.8604 19.7379 25.707 20 25.707C20.262 25.707 20.4999 25.8604 20.608 26.0992C21.1697 27.3403 22.4183 28.2016 23.8665 28.2016C25.3148 28.2016 26.5633 27.3403 27.1251 26.0992C27.2331 25.8604 27.471 25.707 27.733 25.707Z" fill="#2E2A42"/>
</g>
<defs>
<linearGradient id="paint0_linear_1_827" x1="14.793" y1="0.511731" x2="13.5371" y2="7.24519" gradientUnits="userSpaceOnUse">
<stop offset="0.400572" stop-color="#FF93AB"/>
<stop offset="1" stop-color="#FDB154"/>
</linearGradient>
<linearGradient id="paint1_linear_1_827" x1="21.7936" y1="8.08058" x2="19.4287" y2="25.534" gradientUnits="userSpaceOnUse">
<stop stop-color="#AFDDFF"/>
<stop offset="1" stop-color="#917BFF"/>
</linearGradient>
<linearGradient id="paint2_linear_1_827" x1="21.7932" y1="8.08032" x2="19.4282" y2="25.5337" gradientUnits="userSpaceOnUse">
<stop stop-color="#AFDDFF"/>
<stop offset="1" stop-color="#917BFF"/>
</linearGradient>
<linearGradient id="paint3_linear_1_827" x1="35.091" y1="24.912" x2="11.7672" y2="36.8814" gradientUnits="userSpaceOnUse">
<stop stop-color="#FFE079"/>
<stop offset="0.863066" stop-color="#FEB85A"/>
</linearGradient>
<clipPath id="clip0_1_827">
<rect width="40" height="29.8182" fill="white"/>
</clipPath>
</defs>
</svg>
