<svg width="40" height="40" viewBox="0 0 40 40" fill="none" xmlns="http://www.w3.org/2000/svg">
<path d="M18.1507 5.10731C18.458 4.1184 19.5087 3.56578 20.4976 3.873L31.2912 7.22621C32.2801 7.53345 32.8327 8.58421 32.5255 9.57307L29.1723 20.3667C28.865 21.3556 27.8143 21.9082 26.8254 21.601L16.0318 18.2478C15.0429 17.9406 14.4903 16.8898 14.7975 15.901L18.1507 5.10731Z" fill="url(#paint0_linear_1_780)"/>
<path d="M19.6729 6.10281C19.7753 5.77319 20.1255 5.589 20.4552 5.69138L30.2952 8.74838C30.6249 8.85081 30.8091 9.20105 30.7067 9.53067L27.6497 19.3707C27.5473 19.7004 27.1971 19.8845 26.8674 19.7821L17.0273 16.7252C16.6977 16.6227 16.5135 16.2725 16.6159 15.9429L19.6729 6.10281Z" fill="url(#paint1_linear_1_780)"/>
<g style="mix-blend-mode:multiply">
<path fill-rule="evenodd" clip-rule="evenodd" d="M24.6384 9.59308C24.8677 9.66432 25.0359 9.86065 25.0712 10.0981L25.9407 15.9537C25.9914 16.2951 25.7557 16.613 25.4143 16.6637C25.0729 16.7143 24.755 16.4787 24.7043 16.1372L24.4129 14.1753L22.2277 13.4965L20.8759 14.9479C20.6407 15.2005 20.2451 15.2146 19.9926 14.9793C19.74 14.7441 19.7259 14.3486 19.9611 14.096L23.9956 9.76403C24.1592 9.58827 24.4091 9.52189 24.6384 9.59308ZM23.1731 12.4812L24.2091 12.8031L24.0255 11.5661L23.1731 12.4812Z" fill="#565076"/>
</g>
<path d="M2.25146 25.4534C1.70964 24.571 1.9858 23.4164 2.86828 22.8745L12.5002 16.9607C13.3827 16.4189 14.5373 16.6951 15.0791 17.5775L20.9928 27.2095C21.5347 28.092 21.2585 29.2465 20.376 29.7884L10.7442 35.7022C9.86168 36.244 8.70701 35.9678 8.1652 35.0854L2.25146 25.4534Z" fill="url(#paint2_linear_1_780)"/>
<path d="M4.02942 24.9699C3.84881 24.6757 3.94087 24.2909 4.23502 24.1102L12.9838 18.7387C13.2779 18.5581 13.6628 18.6502 13.8434 18.9443L19.2149 27.693C19.3955 27.9872 19.3034 28.372 19.0092 28.5527L10.2606 33.9242C9.96639 34.1048 9.58153 34.0127 9.40096 33.7185L4.02942 24.9699Z" fill="url(#paint3_linear_1_780)"/>
<g style="mix-blend-mode:multiply">
<path fill-rule="evenodd" clip-rule="evenodd" d="M7.91101 25.0654C7.73039 24.7712 7.82248 24.3864 8.11667 24.2058L9.45186 23.386C10.4568 22.7689 11.7717 23.0834 12.3888 24.0884C12.6193 24.4639 12.7198 24.8826 12.7029 25.292C13.427 25.2858 14.1365 25.6482 14.543 26.3103C15.16 27.3152 14.8455 28.6302 13.8405 29.2472L11.9318 30.4192C11.6377 30.5998 11.2528 30.5078 11.0721 30.2136L7.91101 25.0654ZM11.0387 25.9562C11.4503 25.6988 11.578 25.157 11.3235 24.7424C11.0677 24.3258 10.5225 24.1954 10.1059 24.4512L9.30329 24.944L10.2297 26.4529L11.0387 25.9562ZM10.8838 27.5181L11.6863 27.0254C11.6897 27.0234 11.6929 27.0213 11.6962 27.0192L12.26 26.673C12.6767 26.4172 13.2219 26.5476 13.4777 26.9643C13.7336 27.381 13.6031 27.9262 13.1865 28.182L11.8103 29.0269L10.8838 27.5181Z" fill="#565076"/>
</g>
<path d="M21.2747 23.5059C21.2747 22.4703 22.1141 21.6309 23.1497 21.6309H34.4521C35.4877 21.6309 36.3271 22.4703 36.3271 23.5059V34.8084C36.3271 35.8439 35.4877 36.6834 34.4521 36.6834H23.1497C22.1141 36.6834 21.2747 35.8439 21.2747 34.8084V23.5059Z" fill="url(#paint4_linear_1_780)"/>
<path d="M23.0432 24.0239C23.0432 23.6787 23.323 23.3989 23.6682 23.3989H33.9342C34.2794 23.3989 34.5592 23.6787 34.5592 24.0239V34.2901C34.5592 34.6352 34.2794 34.9151 33.9342 34.9151H23.6682C23.323 34.9151 23.0432 34.6352 23.0432 34.2901V24.0239Z" fill="url(#paint5_linear_1_780)"/>
<g style="mix-blend-mode:multiply">
<path fill-rule="evenodd" clip-rule="evenodd" d="M30.6082 27.7359C29.8233 26.951 28.5508 26.951 27.7659 27.7359C26.981 28.5208 26.981 29.7933 27.7659 30.5782C28.5508 31.3631 29.8233 31.3631 30.6082 30.5782C30.8523 30.3341 31.248 30.3341 31.4921 30.5782C31.7362 30.8222 31.7362 31.218 31.4921 31.462C30.2191 32.7351 28.1551 32.7351 26.882 31.462C25.609 30.189 25.609 28.125 26.882 26.852C28.1551 25.579 30.2191 25.579 31.4921 26.852C31.7362 27.0961 31.7362 27.4918 31.4921 27.7359C31.248 27.98 30.8523 27.98 30.6082 27.7359Z" fill="#565076"/>
</g>
<defs>
<linearGradient id="paint0_linear_1_780" x1="25.8944" y1="5.54959" x2="28.6233" y2="21.5292" gradientUnits="userSpaceOnUse">
<stop stop-color="#FFE079"/>
<stop offset="1" stop-color="#FDB154"/>
</linearGradient>
<linearGradient id="paint1_linear_1_780" x1="27.1637" y1="17.9364" x2="18.8953" y2="6.18343" gradientUnits="userSpaceOnUse">
<stop stop-color="#FFE079"/>
<stop offset="1" stop-color="#FDB154"/>
</linearGradient>
<linearGradient id="paint2_linear_1_780" x1="6.50677" y1="19.6556" x2="20.3325" y2="24.6869" gradientUnits="userSpaceOnUse">
<stop stop-color="#FF93AB"/>
<stop offset="1" stop-color="#F76453"/>
</linearGradient>
<linearGradient id="paint3_linear_1_780" x1="19.0223" y1="27.3793" x2="4.64539" y2="28.6879" gradientUnits="userSpaceOnUse">
<stop stop-color="#FF93AB"/>
<stop offset="1" stop-color="#F76453"/>
</linearGradient>
<linearGradient id="paint4_linear_1_780" x1="44.6833" y1="23.9288" x2="16.2041" y2="33.9714" gradientUnits="userSpaceOnUse">
<stop offset="0.400572" stop-color="#74A551"/>
<stop offset="1" stop-color="#D2F2D2"/>
</linearGradient>
<linearGradient id="paint5_linear_1_780" x1="23.8055" y1="24.0106" x2="34.1501" y2="35.9749" gradientUnits="userSpaceOnUse">
<stop stop-color="#74A551"/>
<stop offset="1" stop-color="#D2F2D2"/>
</linearGradient>
</defs>
</svg>
