<svg width="35" height="38" viewBox="0 0 35 38" fill="none" xmlns="http://www.w3.org/2000/svg">
<mask id="mask0_1_769" style="mask-type:alpha" maskUnits="userSpaceOnUse" x="0" y="0" width="35" height="38">
<path d="M5.7392 27.7093C13.9958 27.7093 20.6894 21.0159 20.6894 12.7592C20.6894 8.07949 18.5392 3.902 15.1727 1.16069C14.7198 0.791936 14.9099 0.0328978 15.4935 0.0120363C15.7174 0.0040363 15.9422 0 16.1681 0C26.4113 0 34.7151 8.30374 34.7151 18.547C34.7151 28.7901 26.4113 37.0942 16.1681 37.0942C9.28793 37.0942 3.28286 33.3479 0.0812969 27.7842C-0.210144 27.2777 0.334192 26.7146 0.886919 26.9042C2.40846 27.4262 4.04057 27.7093 5.7392 27.7093Z" fill="url(#paint0_linear_1_769)"/>
</mask>
<g mask="url(#mask0_1_769)">
<path fill-rule="evenodd" clip-rule="evenodd" d="M22.2335 16.7276C21.5528 16.4874 20.8556 16.5305 20.4269 16.809C20.1373 16.997 19.7503 16.9147 19.5622 16.6253C19.3742 16.3358 19.4565 15.9488 19.7459 15.7607C20.6017 15.2048 21.7346 15.2259 22.6496 15.5489C23.5626 15.8713 24.4636 16.5696 24.7025 17.6078C24.7799 17.9442 24.5699 18.2796 24.2336 18.357C23.8972 18.4344 23.5618 18.2245 23.4843 17.8881C23.3764 17.419 22.9162 16.9686 22.2335 16.7276Z" fill="#2E2A42"/>
<path fill-rule="evenodd" clip-rule="evenodd" d="M28.8672 19.0997C28.1867 18.8595 27.4893 18.9026 27.0605 19.1811C26.771 19.3691 26.3841 19.2868 26.1962 18.9974C26.0079 18.7079 26.0902 18.3208 26.3797 18.1328C27.2356 17.5769 28.3682 17.5979 29.2834 17.921C30.1964 18.2433 31.0974 18.9416 31.3363 19.9799C31.4138 20.3163 31.2037 20.6517 30.8675 20.7291C30.531 20.8065 30.1956 20.5966 30.1181 20.2602C30.0102 19.7911 29.55 19.3408 28.8672 19.0997Z" fill="#2E2A42"/>
<path fill-rule="evenodd" clip-rule="evenodd" d="M17.9297 20.0325C18.2168 19.841 18.6049 19.9187 18.7964 20.2059C19.5485 21.3347 20.9129 22.3817 22.533 23.0357C23.9735 23.6173 25.5604 23.8654 27.0222 23.6212C26.971 22.9287 27.1405 22.2209 27.4868 21.5982C27.6544 21.2965 28.0351 21.188 28.3369 21.3557C28.6384 21.5235 28.7469 21.904 28.5791 22.2057C28.2622 22.7758 28.185 23.4055 28.3425 23.934C28.4944 24.4444 28.8795 24.9144 29.6085 25.176C29.9332 25.2927 30.1022 25.6505 29.9855 25.9755C29.8689 26.3003 29.5109 26.4692 29.1861 26.3525C28.3232 26.0428 27.7134 25.4973 27.3634 24.8303C25.5869 25.1599 23.71 24.8589 22.0651 24.1948C20.2689 23.4697 18.6785 22.2832 17.7562 20.8991C17.5647 20.6119 17.6424 20.2238 17.9297 20.0325Z" fill="#2E2A42"/>
</g>
<defs>
<linearGradient id="paint0_linear_1_769" x1="24.985" y1="15.3129" x2="10.0412" y2="30.8427" gradientUnits="userSpaceOnUse">
<stop stop-color="#FFDF78"/>
<stop offset="0.945335" stop-color="#FDB154"/>
</linearGradient>
</defs>
</svg>
