<svg width="40" height="40" viewBox="0 0 40 40" fill="none" xmlns="http://www.w3.org/2000/svg">
<g clip-path="url(#clip0_1_740)">
<path d="M11.2783 20.7166C11.2783 18.6455 12.9572 16.9666 15.0283 16.9666H24.9721C27.0432 16.9666 28.722 18.6455 28.722 20.7166V33.7751C28.722 35.8461 27.0432 37.525 24.9721 37.525H15.0283C12.9572 37.525 11.2783 35.8461 11.2783 33.7751V20.7166Z" fill="url(#paint0_linear_1_740)"/>
<path fill-rule="evenodd" clip-rule="evenodd" d="M20.0005 4.51392C18.922 4.51392 18.0476 5.38821 18.0476 6.46673V7.02835C18.0476 7.8368 17.5126 8.53056 16.8188 8.9455C15.0064 10.0295 13.7929 12.0114 13.7929 14.2768C13.7929 15.0494 14.4192 15.6757 15.1918 15.6757H24.8092C25.5817 15.6757 26.2081 15.0494 26.2081 14.2768C26.2081 12.0114 24.9946 10.0295 23.1822 8.9455C22.4884 8.53056 21.9533 7.8368 21.9533 7.02835V6.46673C21.9533 5.38821 21.079 4.51392 20.0005 4.51392Z" fill="url(#paint1_linear_1_740)"/>
<path d="M13.199 24.3648C19.8464 24.3648 23.236 21.6357 26.8899 24.3648V33.4073C26.8899 34.4428 26.0504 35.2823 25.0149 35.2823H15.074C14.0385 35.2823 13.199 34.4428 13.199 33.4073V24.3648Z" fill="url(#paint2_linear_1_740)"/>
<path fill-rule="evenodd" clip-rule="evenodd" d="M14.3923 22.7197C14.3923 22.3745 14.6721 22.0947 15.0173 22.0947H18.7148C19.06 22.0947 19.3398 22.3745 19.3398 22.7197C19.3398 23.0649 19.06 23.3447 18.7148 23.3447H15.0173C14.6721 23.3447 14.3923 23.0649 14.3923 22.7197Z" fill="#2E2A42"/>
<path fill-rule="evenodd" clip-rule="evenodd" d="M14.3923 29.3497C14.3923 29.0046 14.6721 28.7249 15.0173 28.7249H18.7148C19.06 28.7249 19.3398 29.0046 19.3398 29.3497C19.3398 29.6949 19.06 29.9746 18.7148 29.9746H15.0173C14.6721 29.9746 14.3923 29.6949 14.3923 29.3497Z" fill="#2E2A42"/>
<path fill-rule="evenodd" clip-rule="evenodd" d="M14.3923 26.0344C14.3923 25.6892 14.6721 25.4094 15.0173 25.4094H20.925C21.2701 25.4094 21.55 25.6892 21.55 26.0344C21.55 26.3796 21.2701 26.6594 20.925 26.6594H15.0173C14.6721 26.6594 14.3923 26.3796 14.3923 26.0344Z" fill="#2E2A42"/>
<path fill-rule="evenodd" clip-rule="evenodd" d="M14.3923 32.6647C14.3923 32.3196 14.6721 32.0396 15.0173 32.0396H20.925C21.2701 32.0396 21.55 32.3196 21.55 32.6647C21.55 33.0099 21.2701 33.2896 20.925 33.2896H15.0173C14.6721 33.2896 14.3923 33.0099 14.3923 32.6647Z" fill="#2E2A42"/>
<path d="M11.9691 14.8567C11.9691 14.1663 12.5288 13.6067 13.2191 13.6067H26.7817C27.4721 13.6067 28.0316 14.1663 28.0316 14.8567V16.9962C28.0316 17.6866 27.4721 18.2462 26.7817 18.2462H13.2191C12.5288 18.2462 11.9691 17.6866 11.9691 16.9962V14.8567Z" fill="url(#paint3_linear_1_740)"/>
<path d="M9.38719 2.40809C9.32938 1.83565 8.49525 1.83565 8.43743 2.40809L8.38787 2.89888C8.26669 4.09874 7.36182 5.07135 6.17385 5.2788C5.74954 5.35286 5.74954 5.96193 6.17385 6.036C7.36182 6.24344 8.26669 7.21605 8.38787 8.41594L8.43743 8.90668C8.49525 9.47913 9.32938 9.47913 9.38719 8.90668L9.43676 8.41594C9.55794 7.21605 10.4627 6.24344 11.6507 6.036C12.0751 5.96193 12.0751 5.35286 11.6507 5.2788C10.4627 5.07135 9.55794 4.09874 9.43676 2.89888L9.38719 2.40809Z" fill="url(#paint4_linear_1_740)"/>
<path d="M5.0099 8.49335C4.97452 8.14317 4.4642 8.14317 4.42881 8.49335L4.39849 8.79368C4.32434 9.52773 3.77077 10.1228 3.04395 10.2497C2.78434 10.2951 2.78434 10.6677 3.04395 10.713C3.77077 10.8399 4.32434 11.435 4.39849 12.169L4.42881 12.4693C4.4642 12.8196 4.97452 12.8196 5.0099 12.4693L5.04023 12.169C5.11438 11.435 5.66795 10.8399 6.39474 10.713C6.65438 10.6677 6.65438 10.2951 6.39474 10.2497C5.66795 10.1228 5.11438 9.52773 5.04023 8.79368L5.0099 8.49335Z" fill="url(#paint5_linear_1_740)"/>
<path d="M34.0708 34.913C34.1203 35.4054 34.8375 35.4054 34.8873 34.913L34.9298 34.4912C35.0341 33.4593 35.812 32.623 36.8336 32.4448C37.1986 32.381 37.1986 31.8574 36.8336 31.7936C35.812 31.6151 35.0341 30.7788 34.9298 29.7472L34.8873 29.3251C34.8375 28.833 34.1203 28.833 34.0708 29.3251L34.028 29.7472C33.9239 30.7788 33.1457 31.6151 32.1242 31.7936C31.7594 31.8574 31.7594 32.381 32.1242 32.4448C33.1457 32.623 33.9239 33.4593 34.028 34.4912L34.0708 34.913Z" fill="url(#paint6_linear_1_740)"/>
</g>
<defs>
<linearGradient id="paint0_linear_1_740" x1="21.2329" y1="24.2544" x2="21.5089" y2="42.3519" gradientUnits="userSpaceOnUse">
<stop stop-color="#AFDDFF"/>
<stop offset="1" stop-color="#917BFF"/>
</linearGradient>
<linearGradient id="paint1_linear_1_740" x1="20.0005" y1="4.51392" x2="30.5936" y2="27.1191" gradientUnits="userSpaceOnUse">
<stop stop-color="#FFE079"/>
<stop offset="1" stop-color="#FDB154"/>
</linearGradient>
<linearGradient id="paint2_linear_1_740" x1="20.0444" y1="23.1518" x2="20.5533" y2="57.6509" gradientUnits="userSpaceOnUse">
<stop offset="0.163366" stop-color="#FCFBF7"/>
<stop offset="1" stop-color="#FFE079"/>
</linearGradient>
<linearGradient id="paint3_linear_1_740" x1="11.9691" y1="15.9265" x2="17.3125" y2="27.9059" gradientUnits="userSpaceOnUse">
<stop offset="0.0323058" stop-color="#FF93AB"/>
<stop offset="1" stop-color="#FDB154"/>
</linearGradient>
<linearGradient id="paint4_linear_1_740" x1="5.75757" y1="9.82861" x2="13.1235" y2="4.13804" gradientUnits="userSpaceOnUse">
<stop offset="0.400572" stop-color="#FF93AB"/>
<stop offset="1" stop-color="#FDB154"/>
</linearGradient>
<linearGradient id="paint5_linear_1_740" x1="5.75757" y1="9.82862" x2="13.1235" y2="4.13802" gradientUnits="userSpaceOnUse">
<stop offset="0.400572" stop-color="#FF93AB"/>
<stop offset="1" stop-color="#FDB154"/>
</linearGradient>
<linearGradient id="paint6_linear_1_740" x1="36.7924" y1="31.5114" x2="33.7301" y2="32.8347" gradientUnits="userSpaceOnUse">
<stop stop-color="#FFE079"/>
<stop offset="0.863066" stop-color="#FEB85A"/>
</linearGradient>
<clipPath id="clip0_1_740">
<rect width="40" height="40" fill="white"/>
</clipPath>
</defs>
</svg>
