<svg width="76" height="83" viewBox="0 0 76 83" fill="none" xmlns="http://www.w3.org/2000/svg">
<g clip-path="url(#clip0_1_87)">
<g clip-path="url(#clip1_1_87)">
<path fill-rule="evenodd" clip-rule="evenodd" d="M53.2413 42.3203C52.9956 42.9975 53.3455 43.7456 54.0227 43.9913C57.1583 45.1288 59.3788 46.3464 61.3705 48.3063C63.3891 50.2928 65.2462 53.113 67.5215 57.5876C67.848 58.2296 68.6332 58.4856 69.2754 58.159C69.9175 57.8325 70.1734 57.0472 69.8469 56.405C67.5304 51.8498 65.5211 48.7306 63.2003 46.4469C60.8525 44.1367 58.2604 42.7535 54.9123 41.5389C54.2351 41.2933 53.4869 41.6431 53.2413 42.3203Z" fill="#2E2A42"/>
<path d="M64.9456 60.0647C65.7106 59.3043 66.0956 58.7833 66.5882 57.426C66.9095 56.5404 66.719 55.5555 66.1477 54.8063L68.8251 54.5969C69.9567 56.285 71.8078 57.3817 72.6832 59.2158C73.6795 61.3035 73.9027 63.4704 71.6944 65.0757C69.9379 66.3526 69.9895 62.7248 68.8385 60.9463C68.5676 60.5277 68.0074 60.5941 67.603 60.8857C66.6803 61.5514 65.6773 61.6872 64.9459 61.2769C64.5007 61.0272 64.5836 60.4246 64.9456 60.0647Z" fill="#2E2A42"/>
<path fill-rule="evenodd" clip-rule="evenodd" d="M21.9565 42.3201C22.2022 42.9974 21.8524 43.7454 21.1752 43.9911C18.0394 45.1286 15.8191 46.3462 13.8273 48.3061C11.8086 50.2926 9.95166 53.113 7.67637 57.5874C7.34983 58.2295 6.56458 58.4854 5.92244 58.1588C5.2803 57.8323 5.02445 57.047 5.35098 56.4049C7.66737 51.8496 9.67673 48.7304 11.9975 46.4467C14.3452 44.1365 16.9373 42.7533 20.2855 41.5388C20.9627 41.2931 21.7108 41.6429 21.9565 42.3201Z" fill="#2E2A42"/>
<path d="M10.252 60.0646C9.48693 59.3041 9.1019 58.7831 8.60943 57.4259C8.28808 56.5402 8.47852 55.5553 9.04981 54.8061L6.37243 54.5967C5.24086 56.2848 3.38978 57.3815 2.51446 59.2156C1.51809 61.3033 1.29485 63.4702 3.50325 65.0756C5.2597 66.3524 5.20809 62.7246 6.35903 60.9461C6.62994 60.5275 7.19016 60.5939 7.59454 60.8856C8.51726 61.5512 9.52019 61.687 10.2517 61.2767C10.6968 61.027 10.6139 60.4244 10.252 60.0646Z" fill="#2E2A42"/>
<path fill-rule="evenodd" clip-rule="evenodd" d="M41.9666 78.1936C41.2464 78.2113 40.6482 77.6419 40.6304 76.9218L39.8064 43.5499C39.7887 42.8298 40.3581 42.2316 41.0783 42.2138C41.7984 42.1959 42.3967 42.7653 42.4144 43.4856L43.2384 76.8574C43.2561 77.5776 42.6867 78.1758 41.9666 78.1936Z" fill="#2E2A42"/>
<path d="M52.5647 77.8482L42.2729 78.1765C41.2863 78.208 40.4694 77.4093 40.4699 76.4221C40.4722 72.236 40.5231 72.1887 43.5957 72.3492C48.5508 72.6082 51.645 74.0246 53.5336 75.3808C54.6863 76.2085 53.983 77.803 52.5647 77.8482Z" fill="#2E2A42"/>
<path fill-rule="evenodd" clip-rule="evenodd" d="M28.5523 78.1941C29.2724 78.2119 29.8707 77.6424 29.8885 76.9223L30.7124 43.5504C30.7303 42.8303 30.1609 42.2321 29.4406 42.2142C28.7205 42.1964 28.1223 42.7659 28.1045 43.4861L27.2806 76.8579C27.2628 77.5781 27.8322 78.1763 28.5523 78.1941Z" fill="#2E2A42"/>
<path d="M17.9519 77.8482L28.079 78.1707C29.1337 78.2043 29.9694 77.2971 29.9278 76.2427C29.772 72.2842 30.5996 72.1665 27.5766 72.3245C22.4952 72.59 19.1345 74.0818 17.0715 75.4757C15.8955 76.2702 16.5334 77.8031 17.9519 77.8482Z" fill="#2E2A42"/>
<path d="M35.6315 55.7211C32.6866 58.8047 29.5417 61.0886 25.3316 59.7958C20.1627 58.2086 18.5006 53.6171 18.5887 47.7658C14.1791 47.9363 10.1725 47.4352 8.02302 43.4455C5.45846 38.6853 7.50024 34.2496 11.6726 30.1465C8.4137 27.1705 5.91359 23.9996 7.18581 19.6496C8.70361 14.4602 13.272 12.7369 19.1236 12.7466C18.894 8.33923 19.3408 4.32569 23.3017 2.12276C28.0271 -0.505234 32.4898 1.47692 36.6484 5.5939C39.5805 2.29535 42.7176 -0.247216 47.0844 0.966746C52.2939 2.41503 54.0785 6.96018 54.1469 12.8118C58.5511 12.5231 62.5704 12.9163 64.8262 16.8475C67.5174 21.5376 65.5951 26.0268 61.5335 30.2403C64.8707 33.1278 67.4545 36.2307 66.2992 40.6129C64.8695 46.0358 60.0593 47.8194 53.8917 47.8431C53.7259 47.7994 53.562 47.7519 53.4003 47.7006C53.6768 52.6495 53.4958 57.2889 49.0725 59.6339C44.2298 62.2012 39.7528 60.0372 35.6315 55.7211Z" fill="url(#paint0_radial_1_87)"/>
<path d="M48.2124 20.0915C45.8097 17.6887 41.914 17.6887 39.5112 20.0915C37.1084 22.4943 37.1084 26.3901 39.5112 28.7929C40.2954 29.5771 41.2388 30.1054 42.2373 30.3777C41.6752 28.3169 42.2034 26.0207 43.822 24.4021C45.4405 22.7835 47.7365 22.2553 49.7972 22.8172C49.5249 21.8188 48.9966 20.8756 48.2124 20.0915Z" fill="white"/>
<path d="M49.7988 22.8175C47.7381 22.2553 45.4419 22.7835 43.8232 24.4022C42.2046 26.0208 41.6763 28.3169 42.2384 30.3778C44.2993 30.94 46.5955 30.4118 48.2141 28.7931C49.8327 27.1745 50.3609 24.8784 49.7988 22.8175Z" fill="#2E2A42"/>
<path d="M33.6489 20.091C31.2461 17.6882 27.3504 17.6882 24.9477 20.091C22.5449 22.4939 22.5449 26.3896 24.9477 28.7924C25.7318 29.5767 26.6751 30.1049 27.6737 30.3772C27.1116 28.3164 27.6399 26.0203 29.2584 24.4017C30.877 22.7832 33.1729 22.2549 35.2337 22.8169C34.9614 21.8184 34.4331 20.8752 33.6489 20.091Z" fill="white"/>
<path d="M35.2339 22.8175C33.1731 22.2553 30.8769 22.7835 29.2582 24.4022C27.6396 26.0208 27.1114 28.3169 27.6735 30.3778C29.7344 30.94 32.0306 30.4118 33.6492 28.7931C35.2678 27.1745 35.796 24.8784 35.2339 22.8175Z" fill="#2E2A42"/>
</g>
</g>
<defs>
<radialGradient id="paint0_radial_1_87" cx="0" cy="0" r="1" gradientUnits="userSpaceOnUse" gradientTransform="translate(10.8101 54.4761) rotate(132.813) scale(68.0508 68.2528)">
<stop stop-color="#FF93AB"/>
<stop offset="0.826964" stop-color="#FFA552"/>
</radialGradient>
<clipPath id="clip0_1_87">
<rect width="76" height="82.91" fill="white"/>
</clipPath>
<clipPath id="clip1_1_87">
<rect width="76" height="82.91" fill="white"/>
</clipPath>
</defs>
</svg>
