<svg width="64" height="64" viewBox="0 0 64 64" fill="none" xmlns="http://www.w3.org/2000/svg">
<g clip-path="url(#clip0_1_1066)">
<path d="M32 63.7754C49.4231 63.7754 63.5474 49.6512 63.5474 32.228C63.5474 14.8049 49.4231 0.680664 32 0.680664C14.5769 0.680664 0.452614 14.8049 0.452614 32.228C0.452614 49.6512 14.5769 63.7754 32 63.7754Z" fill="white"/>
<path d="M32.9948 11.8622C35.3671 9.2824 37.9149 7.35486 41.3948 8.35198C45.667 9.57614 47.104 13.3238 47.1224 18.1336C50.7445 17.9248 54.0459 18.2747 55.8746 21.5208C58.0559 25.393 56.4457 29.0692 53.0801 32.506C55.8039 34.9007 57.9068 37.4675 56.9291 41.0613C55.7623 45.3492 52.0355 46.8364 47.2271 46.9194C47.4842 50.5379 47.1801 53.843 43.9591 55.7147C40.1166 57.9477 36.4188 56.3881 32.9374 53.0693C30.5791 55.8255 28.0407 57.9646 24.4334 57.0348C20.1292 55.9253 18.5916 52.2162 18.4449 47.4075C14.8294 47.7132 11.5196 47.4538 9.60452 44.2575C7.32044 40.4452 8.8299 36.7261 12.102 33.2007C9.3155 30.8798 7.1446 28.3705 8.0259 24.752C9.11667 20.2735 13.0418 18.7329 18.1097 18.6177C18.2465 18.651 18.3821 18.6876 18.5156 18.7272C18.2116 14.6645 18.2867 10.8483 21.8853 8.8525C25.8261 6.66706 29.5403 8.37762 32.9948 11.8622Z" fill="#B5B8F0"/>
<path d="M26.4736 22.9468C29.1333 22.9468 31.29 25.1027 31.2902 27.7623C31.2902 30.4222 29.1334 32.579 26.4736 32.579C25.6058 32.5789 24.7925 32.3474 24.0894 31.9457C25.5412 31.1162 26.5208 29.5542 26.5208 27.7623C26.5205 25.9703 25.5416 24.4072 24.0894 23.578C24.7924 23.1764 25.6061 22.9468 26.4736 22.9468Z" fill="white"/>
<path d="M24.0951 23.5796C25.5469 24.4091 26.5264 25.9711 26.5264 27.763C26.5263 29.5549 25.547 31.117 24.0951 31.9464C22.643 31.117 21.6637 29.555 21.6637 27.763C21.6637 25.9711 22.643 24.4091 24.0951 23.5796Z" fill="#2E2A42"/>
<path d="M37.8711 22.9468C40.5307 22.947 42.6865 25.1028 42.6867 27.7623C42.6867 30.422 40.5308 32.5787 37.8711 32.579C37.0031 32.579 36.1893 32.3475 35.4859 31.9457C36.9378 31.1162 37.9173 29.5542 37.9173 27.7623C37.9172 25.9704 36.9381 24.4072 35.4859 23.578C36.1891 23.1763 37.0034 22.9468 37.8711 22.9468Z" fill="white"/>
<path d="M35.4921 23.5796C36.9439 24.4091 37.9235 25.9711 37.9235 27.763C37.9234 29.5549 36.9439 31.117 35.4921 31.9464C34.0401 31.117 33.0607 29.5549 33.0607 27.763C33.0607 25.9712 34.0402 24.4091 35.4921 23.5796Z" fill="#2E2A42"/>
</g>
<defs>
<clipPath id="clip0_1_1066">
<rect width="65.0492" height="64" fill="white" transform="translate(-0.52459)"/>
</clipPath>
</defs>
</svg>
