<svg width="214" height="168" viewBox="0 0 214 168" fill="none" xmlns="http://www.w3.org/2000/svg">
<g clip-path="url(#clip0_1_1015)">
<path fill-rule="evenodd" clip-rule="evenodd" d="M103.052 69.5405C102.911 68.0964 101.625 67.0407 100.181 67.1825C97.911 67.4053 94.8179 66.507 91.1783 64.408C87.6079 62.3489 83.8241 59.3145 80.2858 55.7734C76.7533 52.2382 73.5305 48.2631 71.058 44.3757C68.5628 40.4525 66.9358 36.7816 66.4128 33.8385C66.1589 32.4099 64.7949 31.4575 63.3662 31.7114C61.9376 31.9653 60.9852 33.3293 61.2391 34.758C61.9316 38.6544 63.9502 42.9916 66.6241 47.1957C69.3208 51.4356 72.7909 55.7069 76.5687 59.4876C80.3407 63.2625 84.4846 66.6136 88.5531 68.96C92.5524 71.2664 96.8092 72.7935 100.694 72.412C102.138 72.2703 103.194 70.9846 103.052 69.5405Z" fill="#2E2A42"/>
<path d="M64.471 11.5034C65.8387 11.5036 66.9476 12.6123 66.9476 13.98V22.6001C68.1297 21.9294 69.6331 22.337 70.3138 23.5161C70.9976 24.7007 70.5921 26.2151 69.4076 26.8989L67.554 27.9683L67.5609 27.9898C66.1329 28.804 65.4424 30.486 65.8861 32.0689L66.4124 33.9448L62.8822 39.9966L60.6722 33.8023C60.4351 33.1375 59.8017 32.7139 59.1048 32.6021C56.6605 32.2098 54.8029 30.5708 53.9749 27.9927C53.9337 27.9164 53.8954 27.8374 53.8617 27.7554L52.7025 24.94C52.1817 23.6752 52.7853 22.2273 54.0501 21.7066C54.289 21.6082 54.5343 21.5491 54.7787 21.5278C54.8054 20.5177 55.4529 19.5998 56.4408 19.2573L55.4798 15.6685C55.1258 14.3473 55.9096 12.9883 57.2308 12.6343C58.552 12.2803 59.91 13.065 60.264 14.3862L61.5843 19.312C61.6475 19.5477 61.9943 19.5022 61.9945 19.2583V13.98C61.9945 12.6122 63.1032 11.5034 64.471 11.5034Z" fill="#2E2A42"/>
<path fill-rule="evenodd" clip-rule="evenodd" d="M178.689 70.4745C179.12 69.0888 180.592 68.3144 181.978 68.745C200.359 74.4556 207.878 89.4235 205.432 100.489C204.194 106.09 200.324 110.658 194.153 111.859C188.152 113.027 180.594 110.888 171.967 104.701C170.788 103.856 170.518 102.214 171.363 101.035C172.209 99.856 173.85 99.5857 175.03 100.431C183.078 106.204 189.157 107.478 193.149 106.701C196.969 105.958 199.446 103.224 200.301 99.3549C202.042 91.4797 196.736 78.8325 180.419 73.7631C179.033 73.3326 178.259 71.8602 178.689 70.4745Z" fill="#2E2A42"/>
<path d="M159.17 153.574L159.419 133.171C159.445 131.046 157.585 129.399 155.464 129.525C147.5 129.995 147.23 128.333 147.668 134.413C148.403 144.634 151.54 151.341 154.428 155.44C156.074 157.776 159.135 156.431 159.17 153.574Z" fill="#2E2A42"/>
<path fill-rule="evenodd" clip-rule="evenodd" d="M120.183 120.425C118.407 124.851 121.666 129.671 126.436 129.671H153.861C155.312 129.671 156.489 130.847 156.489 132.298C156.489 133.749 155.312 134.925 153.861 134.925H126.436C117.946 134.925 112.145 126.346 115.307 118.468L127.967 86.9162C128.508 85.5696 130.037 84.9159 131.384 85.4563C132.731 85.9967 133.384 87.5265 132.844 88.8731L120.183 120.425Z" fill="#2E2A42"/>
<path d="M105.558 156.15L125.96 156.399C128.085 156.425 129.732 154.566 129.607 152.444C129.137 144.481 130.798 144.211 124.718 144.648C114.498 145.384 107.79 148.52 103.691 151.408C101.355 153.054 102.7 156.115 105.558 156.15Z" fill="#2E2A42"/>
<path fill-rule="evenodd" clip-rule="evenodd" d="M126.292 155.839C127.682 156.254 129.146 155.464 129.561 154.074L148.654 90.1677C149.069 88.7774 148.279 87.3136 146.889 86.8982C145.498 86.4828 144.035 87.2732 143.619 88.6635L124.526 152.57C124.111 153.96 124.901 155.424 126.292 155.839Z" fill="#2E2A42"/>
<path d="M111.308 3.9542L131.237 34.8883L143.21 0.659668C145.029 5.04333 153.524 31.4254 153.524 31.4254L192.203 14.3511L172.833 45.1569C184.267 47.2586 199.239 51.1418 210.432 54.2845C199.199 56.106 185.106 59.2886 173.973 61.6906L213.85 84.5297C199.818 82.9884 183.527 80.8867 169.415 80.5263L175.092 117.037L155.143 91.9359L142.61 123.863L128.878 91.9359L97.6154 114.735L109.009 77.1035L74.8282 78.2244C80.485 73.3203 95.5593 64.0302 102.056 59.2662L70.2708 34.8883L111.288 39.5665C111.288 29.6783 111.408 18.4458 111.308 8.55754V3.9542Z" fill="#FF93AB"/>
<path d="M118.86 54.4924C121.844 53.6801 125.168 54.4434 127.512 56.7823C129.855 59.1211 130.62 62.4388 129.806 65.4166C131.252 65.0231 132.617 64.2598 133.753 63.1267C137.232 59.6548 137.232 54.0256 133.753 50.5537C130.274 47.0817 124.633 47.0817 121.154 50.5537C120.019 51.6868 119.254 53.0497 118.86 54.4924Z" fill="white"/>
<path d="M118.855 54.489C121.838 53.6766 125.163 54.4398 127.507 56.7788C129.85 59.1175 130.615 62.435 129.802 65.4127C126.818 66.2251 123.493 65.4619 121.149 63.1229C118.806 60.7842 118.041 57.4667 118.855 54.489Z" fill="#2E2A42"/>
<path d="M142.238 50.5537C145.717 47.0817 151.358 47.0817 154.837 50.5537C158.316 54.0256 158.316 59.6548 154.837 63.1267C153.701 64.2599 152.336 65.0232 150.89 65.4167C151.704 62.4389 150.939 59.1211 148.595 56.7822C146.252 54.4434 142.928 53.6801 139.944 54.4922C140.338 53.0496 141.103 51.6868 142.238 50.5537Z" fill="white"/>
<path d="M139.94 54.489C142.923 53.6766 146.248 54.4398 148.592 56.7788C150.935 59.1175 151.7 62.4349 150.887 65.4126C147.903 66.2251 144.578 65.4618 142.234 63.1228C139.891 60.7841 139.126 57.4667 139.94 54.489Z" fill="#2E2A42"/>
<path d="M176.04 107.346L179.587 103.504C171.527 97.2637 163.53 95.8455 160.58 101.387C156.893 108.314 164.171 113.118 168.455 112.58C171.041 112.256 171.254 109.293 170.904 106.725C170.785 105.854 171.714 105.14 172.486 105.559L176.04 107.346Z" fill="#2E2A42"/>
<path fill-rule="evenodd" clip-rule="evenodd" d="M37.1534 156.545C38.0025 156.509 38.6618 155.792 38.626 154.943L37.005 116.57C36.9691 115.721 36.2517 115.061 35.4025 115.097C34.5534 115.133 33.8941 115.851 33.93 116.7L35.5509 155.073C35.5868 155.922 36.3043 156.581 37.1534 156.545Z" fill="#2E2A42"/>
<path d="M22.9143 156.436H37.3682C37.845 156.436 38.2303 156.042 38.2213 155.565C38.1163 150.022 37.6407 149.486 28.7795 150.931C25.6826 151.437 23.4062 152.781 21.8703 154.075C20.8217 154.958 21.5431 156.436 22.9143 156.436Z" fill="#2E2A42"/>
<path fill-rule="evenodd" clip-rule="evenodd" d="M59.4687 142.435C62.5514 142.071 65.9865 140.241 69.6368 136.952C70.2681 136.383 70.3187 135.41 69.7498 134.779C69.1809 134.147 68.2078 134.097 67.5765 134.666C64.1595 137.745 61.2994 139.12 59.1082 139.378C57.0266 139.624 55.4332 138.883 54.2646 137.329C53.0358 135.693 52.2219 133.064 52.1312 129.544C52.0411 126.051 52.6691 121.812 54.1771 117.105C54.4364 116.295 53.9904 115.429 53.1811 115.17C52.3717 114.91 51.5054 115.356 51.2461 116.166C49.6552 121.132 48.9537 125.718 49.0544 129.624C49.1545 133.503 50.0515 136.846 51.8043 139.178C53.6175 141.59 56.2765 142.811 59.4687 142.435Z" fill="#2E2A42"/>
<path d="M76.4853 144.899L69.9211 135.041C69.5959 134.553 68.9261 134.44 68.4451 134.775C63.8237 138.002 63.1753 136.898 69.1243 143.508C70.9823 145.572 73.0459 146.74 74.8262 147.392C76.3829 147.962 77.4041 146.279 76.4853 144.899Z" fill="#2E2A42"/>
<path d="M24.6176 67.9118L36.5749 86.4723L43.7589 65.9351C44.8502 68.5653 49.9474 84.3945 49.9474 84.3945L73.1544 74.15L61.5329 92.6334C68.3931 93.8945 77.3761 96.2244 84.0923 98.11C77.3521 99.2029 68.8968 101.113 62.2165 102.554L86.1431 116.257C77.7239 115.333 67.9493 114.071 59.4821 113.855L62.8882 135.762L50.9189 120.701L43.3991 139.857L35.1597 120.701L16.4022 134.38L23.2383 111.802L2.72983 112.474C6.12393 109.532 15.1685 103.958 19.0663 101.099L-0.00463867 86.4723L24.6056 89.2792C24.6056 83.3463 24.6775 76.6068 24.6176 70.6738V67.9118Z" fill="#FF93AB"/>
<path d="M51.4818 103.62C49.4018 105.71 46.0293 105.71 43.9492 103.62C41.8691 101.531 41.8691 98.1426 43.9492 96.053C44.6281 95.371 45.4448 94.9116 46.3092 94.6748C45.8225 96.467 46.2798 98.4638 47.6811 99.8714C49.0822 101.279 51.0698 101.738 52.8537 101.25C52.618 102.118 52.1607 102.938 51.4818 103.62Z" fill="white"/>
<path d="M52.8533 101.246C51.0692 101.735 49.0814 101.275 47.6802 99.868C46.279 98.4604 45.8217 96.4636 46.3083 94.6715C48.0923 94.1825 50.0801 94.6419 51.4814 96.0496C52.8826 97.4572 53.3399 99.454 52.8533 101.246Z" fill="#2E2A42"/>
<path d="M38.8556 103.62C36.7755 105.71 33.4031 105.71 31.323 103.62C29.2429 101.531 29.2429 98.1426 31.323 96.053C32.0019 95.371 32.8186 94.9116 33.683 94.6748C33.1964 96.4669 33.6538 98.4637 35.055 99.8713C36.4561 101.279 38.4436 101.738 40.2275 101.25C39.9918 102.118 39.5345 102.938 38.8556 103.62Z" fill="white"/>
<path d="M40.2283 101.246C38.4442 101.735 36.4564 101.275 35.0552 99.868C33.654 98.4604 33.1967 96.4636 33.6833 94.6715C35.4673 94.1825 37.4551 94.6419 38.8564 96.0496C40.2576 97.4572 40.7149 99.454 40.2283 101.246Z" fill="#2E2A42"/>
</g>
<defs>
<clipPath id="clip0_1_1015">
<rect width="214" height="168" fill="white"/>
</clipPath>
</defs>
</svg>
