<svg width="214" height="196" viewBox="0 0 214 196" fill="none" xmlns="http://www.w3.org/2000/svg">
<g clip-path="url(#clip0_1_959)">
<path fill-rule="evenodd" clip-rule="evenodd" d="M48.4077 192.459C47.3513 192.414 46.5311 191.522 46.5757 190.465L48.5924 142.724C48.637 141.668 49.5297 140.847 50.5861 140.891C51.6425 140.936 52.4628 141.829 52.4181 142.886L50.4015 190.627C50.3568 191.683 49.4641 192.503 48.4077 192.459Z" fill="#2E2A42"/>
<path d="M66.0852 192.337H48.1026C47.5093 192.337 47.03 191.847 47.0412 191.253C47.1718 184.357 47.7635 183.69 58.7881 185.489C62.6411 186.117 65.4732 187.789 67.3841 189.399C68.6887 190.499 67.7912 192.337 66.0852 192.337Z" fill="#2E2A42"/>
<path fill-rule="evenodd" clip-rule="evenodd" d="M22.6789 192.405C23.6884 192.72 24.7618 192.156 25.0764 191.147L39.6345 144.441C39.949 143.431 39.3856 142.358 38.3761 142.043C37.3666 141.729 36.2933 142.292 35.9787 143.301L21.4206 190.007C21.1061 191.016 21.6693 192.09 22.6789 192.405Z" fill="#2E2A42"/>
<path d="M5.57946 192.318H23.5621C24.1553 192.318 24.6347 191.828 24.6235 191.234C24.4929 184.338 23.9012 183.671 12.8766 185.469C9.02365 186.099 6.19148 187.771 4.28055 189.381C2.97594 190.479 3.87356 192.318 5.57946 192.318Z" fill="#2E2A42"/>
<path d="M45.526 80.823C44.718 80.063 41.8215 77.0229 41.2727 76.7645C40.5715 76.4301 40.16 76.2172 39.4435 76.7645L8.66529 107.12C-13.6981 133.674 10.647 169.228 42.9649 166.69C75.176 164.167 93.2559 130.026 69.7491 104.809C62.3709 96.8897 53.392 88.3319 45.5107 80.823H45.526Z" fill="#D7BEFC"/>
<path d="M58.4036 123.233C55.7073 123.968 52.703 123.278 50.5854 121.163C48.4676 119.048 47.7765 116.049 48.5119 113.356C47.2057 113.712 45.9717 114.402 44.9457 115.427C41.802 118.566 41.802 123.655 44.9457 126.794C48.0894 129.933 53.1864 129.933 56.3301 126.794C57.3561 125.77 58.0472 124.537 58.4036 123.233Z" fill="white"/>
<path d="M58.3969 123.236C55.7005 123.971 52.6962 123.281 50.5784 121.166C48.4607 119.052 47.7696 116.052 48.5048 113.36C51.2012 112.626 54.2056 113.316 56.3233 115.43C58.441 117.545 59.1321 120.544 58.3969 123.236Z" fill="#2E2A42"/>
<path d="M37.2671 126.794C34.1234 129.933 29.0264 129.933 25.8827 126.794C22.739 123.655 22.739 118.566 25.8827 115.427C26.9087 114.402 28.1428 113.712 29.4492 113.356C28.7136 116.049 29.4047 119.049 31.5225 121.163C33.6402 123.278 36.6443 123.968 39.3404 123.234C38.9841 124.537 38.293 125.77 37.2671 126.794Z" fill="white"/>
<path d="M39.3349 123.236C36.6384 123.971 33.6341 123.281 31.5162 121.166C29.3987 119.052 28.7074 116.052 29.4427 113.36C32.139 112.626 35.1433 113.316 37.2612 115.43C39.3788 117.545 40.07 120.544 39.3349 123.236Z" fill="#2E2A42"/>
<path fill-rule="evenodd" clip-rule="evenodd" d="M152.637 192.479C150.833 192.411 149.441 191.971 149.508 190.167L152.661 105.46C152.728 103.656 154.245 102.248 156.049 102.315C157.853 102.382 159.261 103.899 159.194 105.703L156.041 190.41C155.974 192.214 154.441 192.545 152.637 192.479Z" fill="#2E2A42"/>
<path d="M179.574 193.283L151.805 192.832C150.602 192.812 149.664 191.778 149.712 190.575C150.242 177.642 147.208 177.74 167.135 180.99C173.722 182.064 178.664 184.818 182.114 187.575C184.77 189.699 182.976 193.339 179.574 193.283Z" fill="#2E2A42"/>
<path fill-rule="evenodd" clip-rule="evenodd" d="M118.567 192.479C120.371 192.411 121.763 191.971 121.696 190.167L118.543 105.46C118.476 103.656 116.959 102.248 115.155 102.315C113.35 102.382 111.942 103.899 112.009 105.703L115.162 190.41C115.229 192.214 116.762 192.545 118.567 192.479Z" fill="#2E2A42"/>
<path d="M91.6456 193.283L119.415 192.832C120.619 192.812 121.557 191.778 121.507 190.575C120.977 177.642 124.012 177.74 104.085 180.99C97.4989 182.064 92.5567 184.818 89.1069 187.575C86.4501 189.699 88.2446 193.339 91.6456 193.283Z" fill="#2E2A42"/>
<path d="M90.809 147.218C88.9065 145.054 85.9814 146.2 83.5481 147.985C83.0569 148.346 82.4362 148.418 81.8799 148.275C80.4373 147.904 79.6956 146.046 78.687 144.95C77.4899 143.649 76.2575 142.322 73.9256 142.796L73.6113 147.321C72.8102 157.048 76.6915 164.378 84.6431 163.523C94.5826 162.456 94.4402 151.349 90.809 147.218Z" fill="#2E2A42"/>
<path fill-rule="evenodd" clip-rule="evenodd" d="M77.1531 69.0874C75.3477 69.0874 73.8842 70.551 73.8842 72.3563L73.8856 150.246C73.8856 152.051 75.3491 153.514 77.1545 153.514C78.9597 153.514 80.4232 152.051 80.4232 150.246L80.422 72.3561C80.422 70.5509 78.9583 69.0874 77.1531 69.0874Z" fill="#2E2A42"/>
<path d="M210.934 147.218C209.03 145.053 206.105 146.2 203.673 147.985C203.182 148.345 202.561 148.418 202.005 148.275C200.562 147.903 199.82 146.046 198.811 144.95C197.614 143.65 196.383 142.321 194.05 142.795L193.736 147.32C192.935 157.047 196.815 164.377 204.768 163.524C214.707 162.455 214.564 151.348 210.934 147.218Z" fill="#2E2A42"/>
<path fill-rule="evenodd" clip-rule="evenodd" d="M197.278 69.0869C195.473 69.0869 194.01 70.5504 194.01 72.3558L194.011 150.245C194.011 152.05 195.474 153.513 197.28 153.513C199.085 153.513 200.548 152.05 200.548 150.245L200.547 72.3556C200.547 70.5504 199.084 69.0869 197.278 69.0869Z" fill="#2E2A42"/>
<path d="M145.745 7.77562C144.399 6.50891 139.57 1.44213 138.656 1.01146C137.487 0.454109 136.802 0.0994343 135.608 1.01146L84.3102 51.6033C47.038 95.8617 87.6131 155.118 141.476 150.887C195.162 146.682 225.294 89.7816 186.117 47.7525C173.82 34.5536 158.854 20.2906 145.719 7.77562H145.745Z" fill="#D7BEFC"/>
<path d="M109.568 71.3773C114.06 70.153 119.066 71.3034 122.594 74.8288C126.122 78.3541 127.274 83.3548 126.049 87.8432C128.226 87.2501 130.281 86.0995 131.991 84.3917C137.229 79.1584 137.229 70.6738 131.991 65.4405C126.753 60.2073 118.26 60.2073 113.022 65.4405C111.313 67.1485 110.161 69.2028 109.568 71.3773Z" fill="white"/>
<path d="M109.565 71.3803C114.057 70.1557 119.063 71.3062 122.592 74.8317C126.12 78.3567 127.272 83.3571 126.046 87.8453C121.554 89.0699 116.548 87.9194 113.02 84.3939C109.491 80.8689 108.339 75.8685 109.565 71.3803Z" fill="#2E2A42"/>
<path d="M144.779 65.4405C150.017 60.2073 158.51 60.2073 163.748 65.4405C168.987 70.6738 168.987 79.1584 163.748 84.3917C162.038 86.0996 159.983 87.2502 157.805 87.8433C159.031 83.3549 157.88 78.354 154.351 74.8287C150.822 71.3034 145.817 70.153 141.324 71.3771C141.918 69.2026 143.07 67.1485 144.779 65.4405Z" fill="white"/>
<path d="M141.321 71.3803C145.813 70.1557 150.82 71.3062 154.348 74.8317C157.876 78.3567 159.028 83.357 157.803 87.8451C153.31 89.0697 148.304 87.9193 144.776 84.3939C141.247 80.8687 140.096 75.8684 141.321 71.3803Z" fill="#2E2A42"/>
</g>
<defs>
<clipPath id="clip0_1_959">
<rect width="213.992" height="195.33" fill="white"/>
</clipPath>
</defs>
</svg>
