<svg width="118" height="76" viewBox="0 0 118 76" fill="none" xmlns="http://www.w3.org/2000/svg">
<path d="M22.1117 38.9997C24.396 38.9997 26.2478 37.1479 26.2478 34.8636C26.2478 32.5793 24.396 30.7275 22.1117 30.7275C19.8274 30.7275 17.9756 32.5793 17.9756 34.8636C17.9756 37.1479 19.8274 38.9997 22.1117 38.9997Z" fill="#2E2A42"/>
<path d="M11.7134 43.7225V43.715C10.9888 38.4896 11.882 34.3938 14.4457 31.1886C18.1314 26.5393 24.313 25.7493 28.8013 27.0299C29.1912 27.1406 29.6114 27.0802 29.9485 26.8638C30.2857 26.65 30.5146 26.3003 30.58 25.9053C30.8819 24.0385 31.4153 21.822 31.9336 20.2622C32.0568 19.8924 32.0266 19.4999 31.8405 19.1578C31.6593 18.8131 31.3524 18.5665 30.975 18.4609C29.6416 18.0835 24.9067 16.9262 19.9152 17.9577C14.3652 19.0697 11.6103 21.2208 10.3121 22.4359V19.2357C10.3121 18.8181 10.1284 18.4231 9.8089 18.1539C9.48938 17.8872 9.07175 17.774 8.66417 17.8445C6.20867 18.2722 4.50039 18.4357 2.13295 18.4709C1.39328 18.481 0.784435 19.0647 0.746696 19.8018C-0.41564 41.2117 5.37088 55.7156 7.16974 59.6529C7.39868 60.1536 7.90186 60.4756 8.44781 60.4756H8.45787C9.32837 60.4706 10.1762 60.4529 11.019 60.4404C12.4984 60.4127 13.8947 60.3875 15.3589 60.4127C15.8571 60.4228 16.3175 60.1737 16.5817 59.7485C16.8458 59.3258 16.8685 58.8076 16.6395 58.3648C14.8784 54.9382 12.1537 47.7102 11.7109 43.7301V43.725L11.7134 43.7225Z" fill="#2E2A42"/>
<path d="M72.3061 60.4096C76.3064 60.4096 80.4425 59.7505 83.5043 58.6083C83.9144 58.4548 84.2213 58.1328 84.3547 57.7177C84.488 57.3 84.4226 56.8522 84.1735 56.4899C83.069 54.8647 81.8463 52.2155 81.3457 50.6909C81.2299 50.3362 80.9784 50.0468 80.6412 49.8758C80.3041 49.7072 79.9217 49.6795 79.5619 49.8003C76.4598 50.8444 72.8244 51.813 69.1864 51.2494C75.778 44.8038 79.0285 37.372 78.1153 30.7905C77.2096 23.7235 71.2822 18.654 64.3509 18.9987C60.2198 19.1572 56.3127 21.4969 53.6383 25.4091C51.1727 28.7577 49.9097 33.0447 50.0859 37.4776C50.2645 42.4112 51.6885 47.2215 54.1062 51.0809C52.491 51.4633 50.9362 51.4935 49.6003 51.1563C46.9762 50.3513 45.039 48.3537 43.8465 45.2139C41.1419 38.5569 43.6754 27.3715 45.429 21.3007C47.1448 15.469 48.8732 11.6725 52.3502 4.83697C52.5338 4.47469 52.5539 4.05203 52.403 3.67716C52.252 3.3023 51.9501 3.00543 51.5677 2.86706C49.1726 2.00161 47.7109 1.36509 45.6956 0.426682C45.0164 0.109685 44.2088 0.378881 43.854 1.03803C39.1871 9.71521 37.9165 13.801 36.4498 18.5333L36.2963 19.0264C32.4722 30.4936 32.2281 41.1181 35.5994 48.9147C35.8686 49.7173 36.2334 50.4167 36.6184 51.1563C36.7114 51.3299 36.802 51.5085 36.8951 51.6922C35.4032 52.6734 33.7226 52.8998 31.7728 52.379C28.8971 51.5186 27.0429 47.8656 27.0479 43.0754C27.0479 42.6779 26.8794 42.298 26.58 42.0313C26.2806 41.7647 25.8806 41.6363 25.4805 41.6816L19.8802 42.303C19.1556 42.3836 18.6021 43.0201 18.6273 43.7522C18.7707 48.3788 20.8765 54.8295 24.1446 57.6019C28.2832 61.3984 35.7151 60.4499 38.2461 59.7605C39.7733 59.2523 40.9557 58.5932 42.4552 57.7604L42.5105 57.7302C43.8867 58.5731 45.4491 59.2574 47.1574 59.7681C51.369 60.9455 56.4636 60.226 61.5205 57.7378C63.4175 59.3555 66.9448 60.2989 71.496 60.4021C71.7652 60.4071 72.0319 60.4096 72.3061 60.4096ZM61.4702 45.9032C60.4412 44.0138 59.2588 41.0652 59.0701 37.2915C59.0701 34.1894 60.6777 28.325 64.5396 28.1564C66.9498 28.1564 68.643 29.7288 68.9625 32.2623C69.5236 36.7657 65.3396 42.3609 61.4702 45.9032Z" fill="#2E2A42"/>
<path d="M116.04 20.1414C115.959 19.7666 115.725 19.437 115.398 19.2382C115.068 19.037 114.681 18.9816 114.306 19.0822C112.205 19.6533 110.424 20.0886 108.037 20.5012C107.657 20.5666 107.33 20.7779 107.116 21.0974C106.902 21.4144 106.829 21.7968 106.909 22.1692C108.338 28.7129 108.384 35.702 107.028 41.3425C105.704 46.8497 103.226 50.4599 100.22 51.2524C98.9442 51.6172 97.8624 51.3757 96.9139 50.5128C93.3916 47.3101 92.8935 36.3712 94.086 29.9407C94.2244 29.1909 93.7489 28.4815 93.0042 28.323C90.7298 27.8374 89.2555 27.4877 87.0315 26.8135C86.6566 26.7002 86.2516 26.748 85.9144 26.9468C85.5773 27.1455 85.3383 27.4802 85.2553 27.8626C83.6577 35.3271 83.7986 42.7212 85.6452 48.6838C87.4944 54.6514 90.9613 58.7119 95.4421 60.1988C92.5513 62.1511 84.2313 66.8859 72.1677 66.4884C71.7827 66.4733 71.4104 66.6193 71.1362 66.896C70.8644 67.1677 70.7135 67.5451 70.7261 67.93C70.7739 69.4421 70.7437 70.861 70.7135 72.363C70.7009 72.9768 70.6883 73.5957 70.6808 74.2272C70.6707 74.987 71.2594 75.6084 72.0192 75.6411C72.6281 75.6688 73.2445 75.6814 73.8684 75.6814C79.1819 75.6814 84.9433 74.7153 90.2921 72.9114C96.1239 70.944 101.055 68.1414 104.18 65.0192C110.799 58.4 121.139 43.7703 116.04 20.1414Z" fill="#2E2A42"/>
</svg>
