<svg width="40" height="40" viewBox="0 0 40 40" fill="none" xmlns="http://www.w3.org/2000/svg">
<g clip-path="url(#clip0_1_812)">
<path fill-rule="evenodd" clip-rule="evenodd" d="M39.7599 16.4211H1.87656C1.87656 22.7746 5.19911 28.3266 10.1478 31.3254V33.4163C10.1478 34.3481 10.561 35.2489 11.3953 35.6038C15.8401 37.4942 26.7322 37.6671 30.563 35.5864C31.2195 35.2299 31.4887 34.4664 31.4887 33.7005V31.3254C36.4374 28.3266 39.7599 22.7746 39.7599 16.4211Z" fill="url(#paint0_linear_1_812)"/>
<path d="M39.7599 16.4211C39.7599 19.2741 31.2795 21.587 20.8183 21.587C10.3571 21.587 1.87656 19.2741 1.87656 16.4211C1.87656 13.568 10.3571 11.2551 20.8183 11.2551C31.2795 11.2551 39.7599 13.568 39.7599 16.4211Z" fill="url(#paint1_linear_1_812)"/>
<path d="M36.3181 15.5601C36.3181 17.9376 29.3795 19.865 20.8203 19.865C12.2612 19.865 5.3226 17.9376 5.3226 15.5601C5.3226 13.1826 12.2612 11.2551 20.8203 11.2551C29.3795 11.2551 36.3181 13.1826 36.3181 15.5601Z" fill="#2E2A42"/>
<path fill-rule="evenodd" clip-rule="evenodd" d="M12.2453 32.2194C12.3533 31.9919 12.7132 31.8667 13.0493 31.9398C17.0264 32.8046 20.3997 32.8757 25.3164 32.6946C25.6689 32.6816 25.9701 32.8644 25.9894 33.1031C26.0085 33.3417 25.7384 33.5456 25.3859 33.5586C20.4124 33.7419 16.8558 33.6764 12.6584 32.7637C12.3223 32.6906 12.1374 32.4469 12.2453 32.2194Z" fill="#2E2A42"/>
<path d="M26.2563 19.5478C24.3302 19.7518 22.2101 19.8646 19.9837 19.8646C14.7401 19.8646 10.0857 19.2384 7.16808 18.2709C5.93191 17.8609 5.00756 17.3896 4.48234 16.8788L4.34418 16.7683C2.15183 14.6581 0.647714 11.8997 0.177176 8.82347C-3.97265e-05 7.66489 1.0235 6.69662 2.23965 6.87236C4.99683 7.27077 7.50601 8.38497 9.5523 10.0091C9.83616 8.74313 10.3637 7.55887 11.1503 6.56884C11.5725 6.03744 12.4821 5.92683 13.0311 6.34012C15.5382 8.22754 16.8479 11.6167 16.7375 14.8509C20.3639 13.8589 24.7161 14.518 27.3182 16.8655C27.8263 17.3239 27.8409 18.1964 27.3484 18.6699C27.0142 18.9913 26.6482 19.2839 26.2563 19.5478Z" fill="url(#paint2_linear_1_812)"/>
<path d="M36.0661 16.4335C35.4435 18.074 32.1386 19.411 27.7771 19.865C27.2856 16.0563 29.3041 10.5802 35.0211 11.3235C35.6698 11.4079 36.1994 12.0888 36.2701 12.9743C36.3559 14.0482 36.3186 15.011 36.1775 15.8681C36.1757 15.8689 36.1739 15.8698 36.172 15.8706C36.172 15.8815 36.1719 15.8924 36.1716 15.9033C36.1411 16.0848 36.1058 16.2615 36.0661 16.4335Z" fill="url(#paint3_linear_1_812)"/>
<path fill-rule="evenodd" clip-rule="evenodd" d="M35.7018 7.23158C36.7729 5.89812 36.4188 3.93064 34.9493 3.05027C33.6353 2.26308 31.9307 2.65859 31.1018 3.94301L20.8253 19.8655C22.6263 19.8245 23.9397 19.7765 25.7658 19.6007L35.7018 7.23158Z" fill="url(#paint4_linear_1_812)"/>
</g>
<defs>
<linearGradient id="paint0_linear_1_812" x1="34.8113" y1="30.8563" x2="20.1989" y2="6.43568" gradientUnits="userSpaceOnUse">
<stop offset="0.436765" stop-color="#FF93AB"/>
<stop offset="1" stop-color="#FDB154"/>
</linearGradient>
<linearGradient id="paint1_linear_1_812" x1="1.87656" y1="16.4211" x2="12.0983" y2="36.1925" gradientUnits="userSpaceOnUse">
<stop offset="0.400572" stop-color="#FF93AB"/>
<stop offset="1" stop-color="#FDB154"/>
</linearGradient>
<linearGradient id="paint2_linear_1_812" x1="9.63551" y1="15.2229" x2="-2.64677" y2="4.88359" gradientUnits="userSpaceOnUse">
<stop stop-color="#74A551"/>
<stop offset="1" stop-color="#FFDF78"/>
</linearGradient>
<linearGradient id="paint3_linear_1_812" x1="32.0004" y1="17.4579" x2="36.0009" y2="16.9015" gradientUnits="userSpaceOnUse">
<stop stop-color="#74A551"/>
<stop offset="1" stop-color="#FFDF78"/>
</linearGradient>
<linearGradient id="paint4_linear_1_812" x1="30.7941" y1="9.47063" x2="19.4701" y2="25.761" gradientUnits="userSpaceOnUse">
<stop stop-color="#AFDDFF"/>
<stop offset="1" stop-color="#917BFF"/>
</linearGradient>
<clipPath id="clip0_1_812">
<rect width="40" height="35" fill="white" transform="translate(0 2.5)"/>
</clipPath>
</defs>
</svg>
