<svg width="198" height="38" viewBox="0 0 198 38" fill="none" xmlns="http://www.w3.org/2000/svg">
<path d="M19.3134 0.553223L23.4776 13.3694H36.9533L26.0512 21.2902L30.2155 34.1064L19.3134 26.1856L8.41128 34.1064L12.5755 21.2902L1.67342 13.3694H15.1491L19.3134 0.553223Z" fill="#FFDD7D"/>
<path d="M59.1571 0.553223L63.3214 13.3694H76.7971L65.895 21.2902L70.0592 34.1064L59.1571 26.1856L48.255 34.1064L52.4193 21.2902L41.5172 13.3694H54.9929L59.1571 0.553223Z" fill="#FFDD7D"/>
<path d="M138.844 0.553223L143.008 13.3694H156.484L145.582 21.2902L149.746 34.1064L138.844 26.1856L127.942 34.1064L132.106 21.2902L121.204 13.3694H134.679L138.844 0.553223Z" fill="#FFDD7D"/>
<path d="M99.0001 0.553223L103.164 13.3694H116.64L105.738 21.2902L109.902 34.1064L99.0001 26.1856L88.0981 34.1064L92.2623 21.2902L81.3602 13.3694H94.8359L99.0001 0.553223Z" fill="#FFDD7D"/>
<path d="M178.686 0.553223L182.851 13.3694H196.326L185.424 21.2902L189.589 34.1064L178.686 26.1856L167.784 34.1064L171.949 21.2902L161.046 13.3694H174.522L178.686 0.553223Z" fill="#FFDD7D"/>
</svg>
