<svg width="680" height="83" viewBox="0 0 680 83" fill="none" xmlns="http://www.w3.org/2000/svg">
<g clip-path="url(#clip0_1_1632)">
<path fill-rule="evenodd" clip-rule="evenodd" d="M493.046 65.3302C494.387 65.6992 495.175 67.0851 494.806 68.4259C491.493 80.4622 481.562 90.1278 472.026 92.4099C467.149 93.5776 462.107 92.8452 458.33 89.1209C454.645 85.4874 452.636 79.4585 452.636 71.0661C452.636 69.6755 453.764 68.5483 455.154 68.5483C456.545 68.5483 457.672 69.6755 457.672 71.0661C457.672 78.8033 459.541 83.2433 461.866 85.5354C464.099 87.7373 467.201 88.3876 470.854 87.5127C478.378 85.7118 487.06 77.5932 489.95 67.0895C490.32 65.7488 491.706 64.9612 493.046 65.3302Z" fill="#2E2A42"/>
<path d="M457.739 73.8092L452.941 76.66C450.722 67.1465 452.679 59.6135 458.684 59.2557C466.191 58.8086 467.47 67.067 465.292 70.5846C463.977 72.7082 461.311 71.7109 459.213 70.3805C458.503 69.9295 457.509 70.4534 457.567 71.2932L457.739 73.8092Z" fill="#2E2A42"/>
<path fill-rule="evenodd" clip-rule="evenodd" d="M570.73 65.338C569.389 65.707 568.601 67.093 568.97 68.4336C572.283 80.47 582.214 90.1358 591.75 92.4179C596.628 93.5856 601.669 92.8532 605.446 89.1289C609.131 85.4953 611.14 79.4663 611.14 71.0739C611.14 69.6833 610.012 68.5561 608.622 68.5561C607.231 68.5561 606.104 69.6833 606.104 71.0739C606.104 78.8112 604.235 83.2511 601.91 85.5432C599.678 87.7453 596.576 88.3956 592.922 87.5207C585.398 85.7196 576.717 77.6011 573.826 67.0973C573.457 65.7566 572.071 64.969 570.73 65.338Z" fill="#2E2A42"/>
<path d="M606.057 73.8152L610.854 76.6659C613.073 67.1524 611.117 59.6193 605.112 59.2616C597.605 58.8144 596.325 67.0729 598.504 70.5905C599.819 72.7141 602.485 71.7169 604.582 70.3864C605.294 69.9354 606.286 70.4592 606.23 71.2991L606.057 73.8152Z" fill="#2E2A42"/>
<path d="M534.549 10.2184C505.222 10.9718 475.669 29.6767 470.702 60.3241C467.536 79.8766 475.05 107.284 493.546 117.042C545.231 144.279 595.791 107.454 587.208 50.0958C582.654 19.6744 563.746 9.44612 534.549 10.1995V10.2184Z" fill="#FFA552"/>
<path fill-rule="evenodd" clip-rule="evenodd" d="M420.353 54.1722C419.272 53.509 417.857 53.8482 417.194 54.9297C416.379 56.2575 415.458 57.7278 414.478 59.2933C410.25 66.0394 404.914 74.5539 402.279 81.0516C401.801 82.2273 402.369 83.5669 403.544 84.0437C404.72 84.5205 406.06 83.9538 406.536 82.7782C409.002 76.6986 414.026 68.6755 418.25 61.9291C419.265 60.3079 420.235 58.7604 421.111 57.3314C421.774 56.2498 421.435 54.8354 420.353 54.1722Z" fill="#2E2A42"/>
<path d="M458.22 10.6073C472.291 8.72231 487.04 12.5717 492.561 26.7387C500.912 48.2077 476.417 58.3073 473.249 76.3038C470.498 92.019 485.984 113.924 467.688 123.21C445.944 134.223 420.432 112.754 414.971 92.1379C407.597 64.1804 426.511 14.8931 458.22 10.6271V10.6073Z" fill="#62D09E"/>
<path d="M470.845 47.0019C468.131 46.2633 465.107 46.9573 462.975 49.0836C460.843 51.2099 460.148 54.2261 460.888 56.9333C459.572 56.5755 458.33 55.8816 457.298 54.8515C454.133 51.6951 454.133 46.5775 457.298 43.421C460.462 40.2646 465.594 40.2646 468.758 43.421C469.791 44.4512 470.487 45.6903 470.845 47.0019Z" fill="white"/>
<path d="M470.838 47.0034C468.123 46.2648 465.099 46.9588 462.967 49.0851C460.835 51.2113 460.14 54.2274 460.88 56.9346C463.594 57.6732 466.619 56.9792 468.751 54.8528C470.883 52.7266 471.578 49.7105 470.838 47.0034Z" fill="#2E2A42"/>
<path d="M449.575 43.421C446.411 40.2646 441.28 40.2646 438.116 43.421C434.951 46.5775 434.951 51.6951 438.116 54.8515C439.149 55.882 440.391 56.576 441.706 56.9337C440.966 54.2264 441.662 51.21 443.794 49.0836C445.925 46.9576 448.949 46.2636 451.662 47.0014C451.304 45.69 450.608 44.4511 449.575 43.421Z" fill="white"/>
<path d="M451.654 47.0034C448.94 46.2648 445.916 46.9588 443.784 49.0851C441.652 51.2113 440.956 54.2274 441.697 56.9346C444.411 57.6732 447.435 56.9792 449.567 54.8528C451.698 52.7266 452.394 49.7105 451.654 47.0034Z" fill="#2E2A42"/>
<path fill-rule="evenodd" clip-rule="evenodd" d="M294.558 149.846C293.168 149.88 292.015 148.781 291.98 147.391L290.39 82.9904C290.356 81.6007 291.454 80.4462 292.844 80.4119C294.234 80.3776 295.388 81.4764 295.422 82.8662L297.012 147.267C297.047 148.657 295.949 149.811 294.558 149.846Z" fill="#2E2A42"/>
<path fill-rule="evenodd" clip-rule="evenodd" d="M277.748 149.846C279.137 149.881 280.292 148.781 280.326 147.391L281.916 82.9905C281.95 81.6007 280.851 80.4463 279.462 80.4119C278.072 80.3777 276.917 81.4765 276.883 82.8662L275.293 147.267C275.258 148.657 276.358 149.812 277.748 149.846Z" fill="#2E2A42"/>
<path d="M429.025 115.157C429.025 110.577 429.205 105.866 429.411 101.417C430.706 72.0496 425.434 29.8395 398.028 12.9779C377.3 0.228872 345.355 -2.89295 321.307 2.58426C320.538 2.75251 309.808 7.12675 307.445 8.08012C282.984 18.0999 259.686 51.468 259.686 77.8632V115.138H312.209C314.573 99.155 314.254 83.1909 324.984 69.9746C337.627 54.4028 361.937 53.9729 372.461 71.7505C373.249 73.0964 376.859 76.9126 377.47 91.9197V115.157H429.025Z" fill="#FFD55D"/>
<path fill-rule="evenodd" clip-rule="evenodd" d="M574.895 58.2266C573.504 58.2266 572.376 59.3538 572.376 60.7444L572.377 120.738C572.377 122.129 573.505 123.256 574.895 123.256C576.286 123.256 577.413 122.129 577.413 120.738L577.412 60.7443C577.412 59.3537 576.285 58.2265 574.895 58.2266Z" fill="#2E2A42"/>
<path fill-rule="evenodd" clip-rule="evenodd" d="M667.422 58.2266C666.031 58.2266 664.904 59.3538 664.904 60.7444L664.905 120.738C664.905 122.129 666.032 123.256 667.423 123.256C668.813 123.256 669.941 122.129 669.941 120.738L669.94 60.7443C669.94 59.3537 668.812 58.2265 667.422 58.2266Z" fill="#2E2A42"/>
<path d="M627.727 11.0058C626.69 10.0301 622.972 6.12739 622.267 5.79567C621.367 5.36637 620.838 5.09318 619.919 5.79567L580.407 44.7641C551.698 78.8541 582.951 124.496 624.439 121.237C665.79 117.998 689 74.1709 658.824 41.7981C649.352 31.6315 637.825 20.6454 627.707 11.0058H627.727Z" fill="#D7BEFC"/>
<path fill-rule="evenodd" clip-rule="evenodd" d="M203.137 74.3212C203.002 72.9373 201.769 71.9255 200.386 72.0614C198.21 72.2749 195.247 71.4141 191.759 69.4026C188.337 67.4294 184.711 64.5215 181.321 61.1281C177.935 57.7403 174.847 53.931 172.478 50.2057C170.087 46.4461 168.527 42.9283 168.026 40.108C167.783 38.7389 166.476 37.8262 165.106 38.0695C163.738 38.3129 162.825 39.62 163.068 40.9891C163.731 44.723 165.666 48.8794 168.228 52.9081C170.813 56.9712 174.138 61.0644 177.758 64.6874C181.373 68.305 185.345 71.5163 189.243 73.7648C193.075 75.9751 197.155 77.4385 200.878 77.073C202.262 76.9371 203.274 75.705 203.137 74.3212Z" fill="#2E2A42"/>
<path d="M166.166 18.7041C167.476 18.7042 168.539 19.7671 168.539 21.0778V29.3376C169.671 28.6957 171.113 29.0864 171.765 30.2159C172.42 31.3511 172.031 32.8032 170.896 33.4586L169.121 34.4828L169.126 34.5016C167.758 35.2819 167.096 36.8939 167.521 38.4109L168.025 40.2093L164.642 46.0084L162.815 40.8879C162.413 39.7617 161.323 39.0759 160.178 38.7284C158.256 38.1444 156.804 36.6724 156.108 34.511C156.068 34.4374 156.032 34.3605 156 34.2814L154.888 31.5834C154.39 30.3713 154.967 28.984 156.18 28.4849C156.408 28.391 156.643 28.3348 156.876 28.3142C156.901 27.3449 157.522 26.4636 158.47 26.1352L157.548 22.6962C157.209 21.4301 157.961 20.1283 159.227 19.789C160.493 19.4497 161.795 20.2018 162.134 21.4679L163.098 25.0631C163.205 25.462 163.793 25.3842 163.793 24.9709V21.0778C163.793 19.7671 164.855 18.7042 166.166 18.7041Z" fill="#2E2A42"/>
<path fill-rule="evenodd" clip-rule="evenodd" d="M275.621 75.2158C276.034 73.8878 277.444 73.1458 278.772 73.5584C296.386 79.0308 303.592 93.3747 301.249 103.978C300.062 109.346 296.353 113.724 290.44 114.875C284.689 115.994 277.446 113.944 269.179 108.016C268.049 107.205 267.79 105.632 268.6 104.502C269.411 103.372 270.983 103.113 272.114 103.923C279.827 109.455 285.652 110.676 289.477 109.932C293.139 109.219 295.512 106.6 296.331 102.892C298 95.3448 292.915 83.2252 277.278 78.3672C275.951 77.9547 275.209 76.5437 275.621 75.2158Z" fill="#2E2A42"/>
<path d="M211.049 11.4746L230.147 41.1186L241.621 8.31738C243.364 12.5182 251.506 37.8001 251.506 37.8001L288.571 21.4379L270.009 50.959C280.966 52.9731 295.313 56.6945 306.04 59.706C295.275 61.4516 281.771 64.5014 271.101 66.8033L309.316 88.6897C295.869 87.213 280.257 85.1989 266.734 84.8536L272.174 119.841L253.057 95.7877L241.046 126.382L227.887 95.7877L197.928 117.636L208.847 81.5735L176.091 82.6477C181.512 77.9481 195.958 69.0453 202.183 64.48L171.724 41.1186L211.03 45.6018C211.03 36.1259 211.145 25.3619 211.049 15.8859V11.4746Z" fill="#FF93AB"/>
<path fill-rule="evenodd" clip-rule="evenodd" d="M200.977 82.9798C200.503 84.2866 201.178 85.7304 202.484 86.2044C208.536 88.3998 212.821 90.7492 216.665 94.532C220.56 98.3646 224.144 103.808 228.534 112.443C229.164 113.682 230.68 114.175 231.919 113.546C233.159 112.916 233.653 111.4 233.022 110.161C228.552 101.37 224.674 95.3501 220.196 90.9432C215.665 86.4849 210.663 83.8157 204.202 81.4719C202.894 80.9978 201.45 81.6729 200.977 82.9798Z" fill="#2E2A42"/>
<path fill-rule="evenodd" clip-rule="evenodd" d="M126.541 82.9866C127.016 84.2935 126.34 85.7372 125.033 86.2113C118.983 88.4068 114.697 90.7562 110.854 94.5381C106.958 98.3717 103.375 103.814 98.9837 112.45C98.3535 113.688 96.838 114.182 95.5986 113.552C94.3601 112.922 93.8662 111.407 94.4964 110.168C98.9662 101.377 102.844 95.3571 107.323 90.9502C111.853 86.4918 116.855 83.8225 123.317 81.4787C124.624 81.0046 126.067 81.6798 126.541 82.9866Z" fill="#2E2A42"/>
<path d="M200.144 48.2085C205.27 53.9716 204.248 60.3713 203.327 67.3071C206.342 76.7895 219.611 94.2632 220.666 103.226C221.521 110.48 215.657 117.265 208.486 117.936C179.905 120.616 147.237 115.841 118.204 117.936C109.525 117.416 104.617 110.078 106.208 101.668C108.085 91.7337 120.85 75.2817 124.185 64.811C120.683 53.8041 121.32 42.9144 130.903 35.3085C134.186 32.7118 139.749 31.5558 141.457 29.847C146.584 24.687 148.159 11.0667 155.48 5.92343C163.705 0.143571 170.943 3.96334 175.583 11.6698C180.224 19.3763 185.92 36.364 190.762 42.0098C192.538 44.0704 197.648 45.4107 200.144 48.2253V48.2085Z" fill="#4598E6"/>
<path d="M187.866 54.0551C184.015 53.0063 179.725 53.9917 176.699 57.0114C173.674 60.0308 172.688 64.314 173.737 68.1584C171.872 67.6504 170.109 66.665 168.644 65.2021C164.154 60.7198 164.154 53.4525 168.644 48.9701C173.134 44.4878 180.415 44.4878 184.905 48.9701C186.371 50.433 187.357 52.1925 187.866 54.0551Z" fill="white"/>
<path d="M187.868 54.0549C184.017 53.0062 179.725 53.9917 176.7 57.0112C173.676 60.0305 172.689 64.3137 173.739 68.1579C177.59 69.2067 181.882 68.2213 184.906 65.2017C187.931 62.1823 188.919 57.8993 187.868 54.0549Z" fill="#2E2A42"/>
<path d="M157.675 48.9701C153.184 44.4878 145.905 44.4878 141.414 48.9701C136.924 53.4525 136.924 60.7198 141.414 65.2021C142.88 66.6654 144.643 67.6511 146.509 68.159C145.459 64.3145 146.446 60.0309 149.472 57.0114C152.496 53.9923 156.785 53.0067 160.636 54.0545C160.128 52.1922 159.14 50.4328 157.675 48.9701Z" fill="white"/>
<path d="M160.637 54.0549C156.786 53.0062 152.495 53.9917 149.47 57.0112C146.446 60.0305 145.458 64.3137 146.509 68.1579C150.36 69.2067 154.651 68.2213 157.675 65.2017C160.7 62.1823 161.688 57.8993 160.637 54.0549Z" fill="#2E2A42"/>
<path d="M71.1978 114.39C65.313 120.552 59.0282 125.116 50.6148 122.532C40.2855 119.361 36.9639 110.185 37.14 98.492C28.3279 98.8329 20.3213 97.8313 16.0257 89.8583C10.9007 80.3458 14.981 71.4816 23.319 63.2819C16.8064 57.3348 11.8102 50.9981 14.3526 42.3051C17.3858 31.9345 26.515 28.491 38.2089 28.5104C37.7501 19.7027 38.6429 11.6821 46.5583 7.27979C56.0015 2.02803 64.9195 5.98913 73.2301 14.2164C79.0896 7.62468 85.3586 2.54365 94.0847 4.96962C104.495 7.86384 108.062 16.9468 108.199 28.6406C117 28.0639 125.032 28.8494 129.54 36.7056C134.918 46.0782 131.077 55.0492 122.96 63.4695C129.629 69.2399 134.793 75.4405 132.484 84.198C129.627 95.0352 120.014 98.5995 107.689 98.6467C107.357 98.5593 107.03 98.4641 106.707 98.3618C107.259 108.252 106.898 117.523 98.0581 122.209C88.3808 127.34 79.434 123.015 71.1978 114.39Z" fill="url(#paint0_radial_1_1632)"/>
<path d="M96.3441 43.2235C91.536 38.4281 83.7409 38.4281 78.9327 43.2235C74.1245 48.0188 74.1245 55.7935 78.9327 60.5888C80.502 62.154 82.3897 63.2083 84.3877 63.7518C83.2629 59.6389 84.32 55.0565 87.5592 51.8262C90.7975 48.596 95.3923 47.5417 99.516 48.6632C98.9706 46.6707 97.9139 44.7885 96.3441 43.2235Z" fill="white"/>
<path d="M99.5256 48.6584C95.4019 47.5365 90.8071 48.5907 87.5679 51.8211C84.329 55.0514 83.2719 59.6337 84.3967 63.7465C88.5206 64.8685 93.1154 63.8143 96.3546 60.5839C99.5938 57.3536 100.65 52.7713 99.5256 48.6584Z" fill="#2E2A42"/>
<path d="M67.2082 43.2234C62.4001 38.4281 54.6045 38.4281 49.7964 43.2234C44.9883 48.0187 44.9883 55.7935 49.7964 60.5888C51.3657 62.1539 53.2533 63.2083 55.2514 63.7517C54.1267 59.639 55.1837 55.0567 58.4227 51.8265C61.6615 48.5963 66.2559 47.542 70.3796 48.6636C69.8346 46.671 68.7775 44.7885 67.2082 43.2234Z" fill="white"/>
<path d="M70.3893 48.6584C66.2654 47.5365 61.6707 48.5907 58.4316 51.8211C55.1927 55.0514 54.1356 59.6337 55.2603 63.7465C59.3843 64.8685 63.9791 63.8143 67.2181 60.5839C70.4571 57.3536 71.5141 52.7713 70.3893 48.6584Z" fill="#2E2A42"/>
<path d="M234.777 65.0427C234.777 69.7587 230.954 73.5816 226.238 73.5816C221.522 73.5816 217.699 69.7587 217.698 65.0427C217.698 63.5032 218.109 62.0598 218.821 60.8125C220.292 63.3858 223.062 65.1212 226.238 65.1212C229.414 65.1211 232.184 63.3861 233.655 60.8125C234.368 62.0597 234.777 63.5034 234.777 65.0427Z" fill="white"/>
<path d="M254.99 65.0427C254.99 69.7587 251.166 73.5816 246.45 73.5816C241.735 73.5816 237.911 69.7587 237.911 65.0427C237.911 63.5032 238.321 62.0598 239.034 60.8125C240.505 63.3858 243.274 65.1212 246.45 65.1212C249.626 65.1211 252.397 63.3861 253.868 60.8125C254.58 62.0597 254.99 63.5034 254.99 65.0427Z" fill="white"/>
<path d="M233.654 60.8117C232.184 63.3854 229.414 65.1211 226.238 65.1212C223.062 65.1212 220.293 63.3853 218.822 60.8117C220.293 58.2384 223.062 56.5029 226.238 56.5029C229.414 56.503 232.183 58.2383 233.654 60.8117Z" fill="#2E2A42"/>
<path d="M253.865 60.8117C252.394 63.3854 249.624 65.1212 246.448 65.1212C243.271 65.1211 240.501 63.3854 239.03 60.8117C240.501 58.2383 243.271 56.503 246.448 56.5029C249.624 56.5029 252.394 58.2382 253.865 60.8117Z" fill="#2E2A42"/>
<path d="M410.935 74.5478C405.952 74.5478 401.912 70.5086 401.911 65.5258C401.911 60.5429 405.952 56.5029 410.935 56.5029C412.562 56.5029 414.088 56.9365 415.406 57.6902C412.687 59.2446 410.854 62.1703 410.854 65.5258C410.854 68.8814 412.687 71.8071 415.406 73.3614C414.088 74.1151 412.562 74.5478 410.935 74.5478Z" fill="white"/>
<path d="M415.406 73.3606C412.687 71.8064 410.854 68.8809 410.853 65.5249C410.853 62.1688 412.687 59.2427 415.406 57.6885C418.125 59.2427 419.959 62.1688 419.959 65.525C419.959 68.8809 418.125 71.8064 415.406 73.3606Z" fill="#2E2A42"/>
<path d="M389.58 74.5478C384.597 74.5478 380.557 70.5086 380.557 65.5258C380.557 60.5429 384.597 56.5029 389.58 56.5029C391.206 56.5029 392.731 56.9362 394.049 57.6893C391.33 59.2435 389.495 62.1696 389.495 65.5258C389.496 68.8821 391.33 71.8082 394.049 73.3623C392.731 74.1154 391.206 74.5478 389.58 74.5478Z" fill="white"/>
<path d="M394.049 73.3614C391.33 71.8073 389.497 68.881 389.496 65.5249C389.496 62.1688 391.33 59.2427 394.049 57.6885C396.768 59.2427 398.601 62.1688 398.601 65.525C398.601 68.881 396.768 71.8073 394.049 73.3614Z" fill="#2E2A42"/>
<path fill-rule="evenodd" clip-rule="evenodd" d="M601.283 70.8235C605.319 74.8598 611.863 74.8598 615.899 70.8235C619.935 66.7871 619.935 60.2427 615.899 56.2063C614.582 54.8889 612.997 54.0014 611.32 53.5439C612.264 57.0059 611.377 60.8631 608.658 63.5822C605.939 66.3012 602.082 67.1886 598.62 66.2446C599.077 67.9218 599.965 69.5061 601.283 70.8235Z" fill="white"/>
<path fill-rule="evenodd" clip-rule="evenodd" d="M598.619 66.2451C602.081 67.1895 605.939 66.3021 608.658 63.5829C611.376 60.8639 612.264 57.0068 611.319 53.5449C607.858 52.6004 604.001 53.4878 601.282 56.207C598.563 58.9261 597.675 62.7831 598.619 66.2451Z" fill="#2E2A42"/>
<path fill-rule="evenodd" clip-rule="evenodd" d="M625.745 70.8234C629.781 74.8598 636.325 74.8598 640.362 70.8234C644.398 66.7869 644.398 60.2426 640.362 56.2063C639.044 54.8888 637.46 54.0014 635.782 53.5439C636.726 57.0058 635.839 60.8629 633.12 63.5819C630.402 66.3008 626.545 67.1883 623.083 66.2442C623.541 67.9215 624.428 69.506 625.745 70.8234Z" fill="white"/>
<path fill-rule="evenodd" clip-rule="evenodd" d="M623.085 66.2451C626.547 67.1895 630.404 66.3021 633.123 63.5829C635.842 60.8639 636.729 57.0068 635.785 53.5449C632.323 52.6004 628.466 53.4878 625.747 56.207C623.028 58.9261 622.141 62.7831 623.085 66.2451Z" fill="#2E2A42"/>
<path d="M97.3029 61.1597C92.4363 66.0267 84.5451 66.0267 79.6781 61.1597C74.8112 56.2926 74.8112 48.4015 79.6781 43.5345C81.2667 41.9459 83.1774 40.8758 85.1999 40.3242C84.0613 44.4986 85.1313 49.1496 88.4096 52.4283C91.6881 55.7067 96.3389 56.7768 100.512 55.6385C99.9609 57.6608 98.8911 59.5713 97.3029 61.1597Z" fill="white"/>
<path d="M100.515 55.6388C96.3406 56.7776 91.6899 55.7077 88.4114 52.4289C85.1327 49.1503 84.0627 44.4994 85.2012 40.3251C89.3754 39.1863 94.0262 40.2563 97.3056 43.5351C100.584 46.8137 101.654 51.4645 100.515 55.6388Z" fill="#2E2A42"/>
<path d="M67.8062 61.1597C62.9393 66.0268 55.0484 66.0268 50.1815 61.1597C45.3146 56.2927 45.3146 48.4016 50.1815 43.5346C51.7701 41.9459 53.6808 40.8758 55.7034 40.3242C54.565 44.4985 55.635 49.1494 58.9135 52.428C62.1918 55.7064 66.8422 56.7765 71.0162 55.6383C70.4646 57.6607 69.3946 59.5713 67.8062 61.1597Z" fill="white"/>
<path d="M71.0159 55.6388C66.8415 56.7776 62.1905 55.7077 58.9119 52.4289C55.6334 49.1503 54.5634 44.4994 55.7019 40.3251C59.8762 39.1863 64.5272 40.2563 67.8058 43.5351C71.0844 46.8137 72.1544 51.4645 71.0159 55.6388Z" fill="#2E2A42"/>
<path d="M527.382 51.8106C527.382 58.3972 522.043 63.7372 515.457 63.7373C508.87 63.7373 503.53 58.3973 503.53 51.8106C503.53 49.6608 504.1 47.6441 505.095 45.9023C507.15 49.4973 511.02 51.9207 515.457 51.9207C519.893 51.9207 523.764 49.4974 525.818 45.9023C526.814 47.644 527.382 49.661 527.382 51.8106Z" fill="white"/>
<path d="M555.612 51.8106C555.612 58.3972 550.272 63.7372 543.686 63.7373C537.1 63.7373 531.76 58.3973 531.76 51.8106C531.76 49.6608 532.329 47.6441 533.325 45.9023C535.378 49.4973 539.249 51.9207 543.686 51.9207C548.123 51.9207 551.994 49.4975 554.048 45.9023C555.043 47.644 555.612 49.661 555.612 51.8106Z" fill="white"/>
<path d="M525.818 45.9032C523.764 49.4978 519.893 51.9206 515.457 51.9207C511.02 51.9207 507.15 49.4967 505.096 45.9015C507.15 42.3074 511.02 39.8849 515.456 39.8848C519.893 39.8848 523.764 42.308 525.818 45.9032Z" fill="#2E2A42"/>
<path d="M554.044 45.9023C551.99 49.4972 548.12 51.9207 543.684 51.9207C539.246 51.9207 535.376 49.4972 533.322 45.9023C535.376 42.3077 539.247 39.8848 543.684 39.8848C548.12 39.8848 551.99 42.3077 554.044 45.9023Z" fill="#2E2A42"/>
</g>
<defs>
<radialGradient id="paint0_radial_1_1632" cx="0" cy="0" r="1" gradientUnits="userSpaceOnUse" gradientTransform="translate(21.5955 111.902) rotate(132.813) scale(135.991 136.395)">
<stop stop-color="#FF93AB"/>
<stop offset="0.591364" stop-color="#FF914D"/>
<stop offset="0.788485" stop-color="#FFA552"/>
</radialGradient>
<clipPath id="clip0_1_1632">
<rect width="680" height="84.7815" fill="white"/>
</clipPath>
</defs>
</svg>
