<svg width="23" height="16" viewBox="0 0 23 16" fill="none" xmlns="http://www.w3.org/2000/svg">
<path d="M22.0312 7.38281L14.8359 0.164062C14.7109 0.0546875 14.5664 0 14.4023 0C14.2383 0 14.0938 0.0546875 13.9688 0.164062C13.8594 0.289062 13.8047 0.433594 13.8047 0.597656C13.8047 0.761719 13.8594 0.90625 13.9688 1.03125L20.1562 7.19531H0.609375C0.4375 7.19531 0.292969 7.25391 0.175781 7.37109C0.0585938 7.48828 0 7.63281 0 7.80469C0 7.96094 0.0585938 8.09766 0.175781 8.21484C0.292969 8.33203 0.4375 8.39062 0.609375 8.39062H20.1562L13.9922 14.5781C13.8672 14.6875 13.8047 14.8281 13.8047 15C13.8047 15.1719 13.8672 15.3125 13.9922 15.4219C14.0391 15.4844 14.1016 15.5312 14.1797 15.5625C14.2578 15.5938 14.3359 15.6094 14.4141 15.6094C14.4922 15.6094 14.5664 15.5938 14.6367 15.5625C14.707 15.5312 14.7734 15.4844 14.8359 15.4219L22.0312 8.22656C22.1406 8.10156 22.1953 7.95703 22.1953 7.79297C22.1953 7.62891 22.1406 7.49219 22.0312 7.38281Z" fill="#747474"/>
</svg>
