<svg width="46" height="46" viewBox="0 0 46 46" fill="none" xmlns="http://www.w3.org/2000/svg">
<path d="M42 45.6094H3.60938C2.60938 45.6094 1.75781 45.2578 1.05469 44.5547C0.351562 43.8516 0 43 0 42V3.60938C0 2.60938 0.351562 1.75781 1.05469 1.05469C1.75781 0.351562 2.60938 0 3.60938 0H42C43 0 43.8516 0.351562 44.5547 1.05469C45.2578 1.75781 45.6094 2.60938 45.6094 3.60938V42C45.6094 43 45.2578 43.8516 44.5547 44.5547C43.8516 45.2578 43 45.6094 42 45.6094ZM3.60938 2.4375C3.26562 2.4375 2.97656 2.55469 2.74219 2.78906C2.50781 3.02344 2.39062 3.29688 2.39062 3.60938V42C2.39062 42.3438 2.50781 42.6328 2.74219 42.8672C2.97656 43.1016 3.26562 43.2188 3.60938 43.2188H42C42.3438 43.2188 42.6328 43.1016 42.8672 42.8672C43.1016 42.6328 43.2188 42.3438 43.2188 42V3.60938C43.2188 3.29688 43.1016 3.02344 42.8672 2.78906C42.6328 2.55469 42.3438 2.4375 42 2.4375H3.60938ZM15.6094 38.4375H10.7812C10.4688 38.4375 10.1953 38.3203 9.96094 38.0859C9.72656 37.8516 9.60938 37.5625 9.60938 37.2188V15.6094C9.60938 15.2969 9.72656 15.0234 9.96094 14.7891C10.1953 14.5547 10.4688 14.4375 10.7812 14.4375H15.6094C15.9219 14.4375 16.1953 14.5547 16.4297 14.7891C16.6641 15.0234 16.7812 15.2969 16.7812 15.6094V37.2188C16.7812 37.5625 16.6641 37.8516 16.4297 38.0859C16.1953 38.3203 15.9219 38.4375 15.6094 38.4375ZM12 36H14.3906V16.8281H12V36ZM25.2188 38.4375H20.3906C20.0781 38.4375 19.8047 38.3203 19.5703 38.0859C19.3359 37.8516 19.2188 37.5625 19.2188 37.2188V8.4375C19.2188 8.09375 19.3359 7.80469 19.5703 7.57031C19.8047 7.33594 20.0781 7.21875 20.3906 7.21875H25.2188C25.5312 7.21875 25.8047 7.33594 26.0391 7.57031C26.2734 7.80469 26.3906 8.09375 26.3906 8.4375V37.2188C26.3906 37.5625 26.2734 37.8516 26.0391 38.0859C25.8047 38.3203 25.5312 38.4375 25.2188 38.4375ZM21.6094 36H24V9.60938H21.6094V36ZM34.7812 38.4375H30C29.6562 38.4375 29.3672 38.3203 29.1328 38.0859C28.8984 37.8516 28.7812 37.5625 28.7812 37.2188V25.2188C28.7812 24.875 28.8984 24.5859 29.1328 24.3516C29.3672 24.1172 29.6562 24 30 24H34.7812C35.125 24 35.4141 24.1172 35.6484 24.3516C35.8828 24.5859 36 24.875 36 25.2188V37.2188C36 37.5625 35.8828 37.8516 35.6484 38.0859C35.4141 38.3203 35.125 38.4375 34.7812 38.4375ZM31.2188 36H33.6094V26.4375H31.2188V36Z" fill="white"/>
</svg>
