<svg width="48" height="48" viewBox="0 0 48 48" fill="none" xmlns="http://www.w3.org/2000/svg">
<path d="M32.3906 21C30.7344 21 29.3203 20.4141 28.1484 19.2422C26.9766 18.0703 26.3906 16.6562 26.3906 15C26.3906 13.3438 26.9766 11.9297 28.1484 10.7578C29.3203 9.58594 30.7344 9 32.3906 9C34.0469 9 35.4609 9.58594 36.6328 10.7578C37.8047 11.9297 38.3906 13.3438 38.3906 15C38.3906 16.6562 37.8047 18.0703 36.6328 19.2422C35.4609 20.4141 34.0469 21 32.3906 21ZM32.3906 11.3906C31.3906 11.3906 30.5391 11.7422 29.8359 12.4453C29.1328 13.1484 28.7812 14 28.7812 15C28.7812 16 29.1328 16.8516 29.8359 17.5547C30.5391 18.2578 31.3906 18.6094 32.3906 18.6094C33.3906 18.6094 34.2422 18.2578 34.9453 17.5547C35.6484 16.8516 36 16 36 15C36 14 35.6484 13.1484 34.9453 12.4453C34.2422 11.7422 33.3906 11.3906 32.3906 11.3906ZM1.21875 47.3906C1.0625 47.3906 0.90625 47.3594 0.75 47.2969C0.59375 47.2344 0.453125 47.1562 0.328125 47.0625C0.171875 46.875 0.0703125 46.6719 0.0234375 46.4531C-0.0234375 46.2344 0 46.0156 0.09375 45.7969C1 43.2656 1.92188 41.0312 2.85938 39.0938C3.82812 37.1875 4.78906 35.5938 5.74219 34.3125C6.69531 33.0312 7.67188 32.0781 8.67188 31.4531C9.64062 30.7969 10.625 30.4688 11.625 30.4688C12.2812 30.4688 12.9141 30.6094 13.5234 30.8906C14.1328 31.1719 14.7031 31.5938 15.2344 32.1562C16.1094 33.0312 16.625 33.875 16.7812 34.6875C16.9375 35.5 16.9375 36.2031 16.7812 36.7969C16.5938 37.7031 16.125 38.5938 15.375 39.4688C14.6562 40.375 13.6641 41.2656 12.3984 42.1406C11.1328 43.0156 9.59375 43.8906 7.78125 44.7656C6 45.6406 3.9375 46.5 1.59375 47.3438C1.53125 47.3438 1.46875 47.3516 1.40625 47.3672C1.34375 47.3828 1.28125 47.3906 1.21875 47.3906ZM11.625 32.9062C11.0312 32.9062 10.3906 33.1562 9.70312 33.6562C9.01562 34.1562 8.29688 34.9062 7.54688 35.9062C6.85938 36.875 6.15625 38.0469 5.4375 39.4219C4.71875 40.7969 4 42.3594 3.28125 44.1094C4.875 43.4844 6.3125 42.8438 7.59375 42.1875C8.875 41.5312 10 40.875 10.9688 40.2188C12.25 39.3438 13.1328 38.5703 13.6172 37.8984C14.1016 37.2266 14.375 36.6875 14.4375 36.2812C14.5312 35.8438 14.5078 35.4297 14.3672 35.0391C14.2266 34.6484 13.9531 34.25 13.5469 33.8438C13.2344 33.5312 12.9141 33.2969 12.5859 33.1406C12.2578 32.9844 11.9375 32.9062 11.625 32.9062ZM46.7812 -0.609375C45.25 -0.609375 43.75 -0.546875 42.2812 -0.421875C40.7812 -0.265625 39.3438 -0.0625 37.9688 0.1875C36.5938 0.4375 35.2656 0.765625 33.9844 1.17188C32.7031 1.57812 31.4688 2.03125 30.2812 2.53125C28.3438 3.40625 26.5469 4.4375 24.8906 5.625C23.2344 6.8125 21.7344 8.17188 20.3906 9.70312C20.1406 9.98438 19.8984 10.2656 19.6641 10.5469C19.4297 10.8281 19.2188 11.125 19.0312 11.4375C17.9688 11.5 16.9141 11.7344 15.8672 12.1406C14.8203 12.5469 13.7656 13.125 12.7031 13.875C11.8281 14.5 10.9375 15.2422 10.0312 16.1016C9.125 16.9609 8.23438 17.9375 7.35938 19.0312C5.89062 20.875 4.72656 22.5547 3.86719 24.0703C3.00781 25.5859 2.5625 26.3906 2.53125 26.4844C2.40625 26.7344 2.375 27 2.4375 27.2812C2.5 27.5625 2.65625 27.7969 2.90625 27.9844C3 28.0469 3.10938 28.1016 3.23438 28.1484C3.35938 28.1953 3.48438 28.2188 3.60938 28.2188C3.76562 28.2188 3.91406 28.1875 4.05469 28.125C4.19531 28.0625 4.32812 27.9688 4.45312 27.8438C4.45312 27.8438 4.72656 27.6094 5.27344 27.1406C5.82031 26.6719 6.57812 26.1562 7.54688 25.5938C8.35938 25.1562 9.375 24.7109 10.5938 24.2578C11.8125 23.8047 13.1719 23.5312 14.6719 23.4375C15.0469 24.4062 15.6719 25.4062 16.5469 26.4375C17.4219 27.4688 18.125 28.2344 18.6562 28.7344C19.1875 29.2656 19.9609 29.9688 20.9766 30.8438C21.9922 31.7188 22.9844 32.3438 23.9531 32.7188C23.8594 34.2188 23.5938 35.5781 23.1562 36.7969C22.7188 38.0156 22.2656 39.0312 21.7969 39.8438C21.2344 40.8125 20.7188 41.5703 20.25 42.1172C19.7812 42.6641 19.5469 42.9375 19.5469 42.9375C19.3281 43.1562 19.2109 43.4141 19.1953 43.7109C19.1797 44.0078 19.25 44.2656 19.4062 44.4844C19.5312 44.6719 19.6797 44.8047 19.8516 44.8828C20.0234 44.9609 20.2031 45 20.3906 45C20.4844 45 20.5781 44.9922 20.6719 44.9766C20.7656 44.9609 20.8594 44.9219 20.9531 44.8594C21.0156 44.8281 21.8047 44.3828 23.3203 43.5234C24.8359 42.6641 26.5156 41.5 28.3594 40.0312C29.4531 39.1562 30.4297 38.2734 31.2891 37.3828C32.1484 36.4922 32.8906 35.5938 33.5156 34.6875C34.2656 33.625 34.8438 32.5703 35.25 31.5234C35.6562 30.4766 35.9062 29.4375 36 28.4062C36.2812 28.1875 36.5625 27.9609 36.8438 27.7266C37.125 27.4922 37.4062 27.25 37.6875 27C39.2188 25.6562 40.5859 24.1562 41.7891 22.5C42.9922 20.8438 44.0156 19.0469 44.8594 17.1094C45.3906 15.9219 45.8438 14.6875 46.2188 13.4062C46.625 12.125 46.9609 10.7969 47.2266 9.42188C47.4922 8.04688 47.6875 6.625 47.8125 5.15625C47.9375 3.6875 48 2.17188 48 0.609375V-0.609375H46.7812ZM7.45312 22.9219C8.60938 21.2656 10.0312 19.5625 11.7188 17.8125C13.4062 16.0625 15.2344 14.8594 17.2031 14.2031C16.4219 15.5781 15.8203 16.8594 15.3984 18.0469C14.9766 19.2344 14.6875 20.2344 14.5312 21.0469C13.125 21.1094 11.8281 21.3281 10.6406 21.7031C9.45312 22.0781 8.39062 22.4844 7.45312 22.9219ZM24.4688 39.9375C24.9375 39 25.3516 37.9375 25.7109 36.75C26.0703 35.5625 26.2812 34.2656 26.3438 32.8594C27.1562 32.7344 28.1562 32.4609 29.3438 32.0391C30.5312 31.6172 31.8125 31.0156 33.1875 30.2344C32.5312 32.2031 31.3281 34.0234 29.5781 35.6953C27.8281 37.3672 26.125 38.7812 24.4688 39.9375ZM36.0938 25.2188C33.5938 27.4062 31.25 28.8516 29.0625 29.5547C26.875 30.2578 25.5938 30.6094 25.2188 30.6094C25.2188 30.6094 25.0781 30.5703 24.7969 30.4922C24.5156 30.4141 24.0469 30.1406 23.3906 29.6719C22.9219 29.3281 22.4297 28.9375 21.9141 28.5C21.3984 28.0625 20.875 27.5781 20.3438 27.0469C19.8438 26.5469 19.3672 26.0312 18.9141 25.5C18.4609 24.9688 18.0781 24.4688 17.7656 24C17.2969 23.3438 17.0156 22.8828 16.9219 22.6172C16.8281 22.3516 16.7812 22.2188 16.7812 22.2188C16.7812 21.8438 17.1328 20.5547 17.8359 18.3516C18.5391 16.1484 20 13.7969 22.2188 11.2969C23.5312 9.79688 25.0156 8.46875 26.6719 7.3125C28.3281 6.15625 30.1406 5.17969 32.1094 4.38281C34.0781 3.58594 36.1875 2.98438 38.4375 2.57812C40.6875 2.14062 43.0625 1.89062 45.5625 1.82812C45.5312 4.32812 45.2969 6.70312 44.8594 8.95312C44.4219 11.2031 43.8047 13.3125 43.0078 15.2812C42.2109 17.25 41.2344 19.0625 40.0781 20.7188C38.9219 22.375 37.5938 23.875 36.0938 25.2188Z" fill="#E9204F"/>
</svg>
