<svg width="46" height="46" viewBox="0 0 46 46" fill="none" xmlns="http://www.w3.org/2000/svg">
<path d="M20.3906 45.6094C19.0469 45.6094 17.7188 45.4844 16.4062 45.2344C15.0938 44.9531 13.8203 44.5625 12.5859 44.0625C11.3516 43.5625 10.1875 42.9375 9.09375 42.1875C7.96875 41.4688 6.92188 40.625 5.95312 39.6562C5.01562 38.6875 4.17188 37.6406 3.42188 36.5156C2.67188 35.4219 2.04688 34.2656 1.54688 33.0469C1.04688 31.8281 0.65625 30.5625 0.375 29.25C0.125 27.9375 0 26.5938 0 25.2188C0 23.8438 0.125 22.5 0.375 21.1875C0.65625 19.875 1.04688 18.6094 1.54688 17.3906C2.04688 16.1719 2.67188 15.0156 3.42188 13.9219C4.17188 12.7969 5.01562 11.75 5.95312 10.7812C6.92188 9.8125 7.96875 8.96875 9.09375 8.25C10.1875 7.5 11.3516 6.875 12.5859 6.375C13.8203 5.875 15.0938 5.48438 16.4062 5.20312C17.7188 4.95312 19.0469 4.82812 20.3906 4.82812C20.7344 4.82812 21.0234 4.94531 21.2578 5.17969C21.4922 5.41406 21.6094 5.6875 21.6094 6V24H39.6094C39.9219 24 40.1953 24.1172 40.4297 24.3516C40.6641 24.5859 40.7812 24.875 40.7812 25.2188C40.7812 26.5938 40.6562 27.9375 40.4062 29.25C40.1562 30.5625 39.7734 31.8281 39.2578 33.0469C38.7422 34.2656 38.125 35.4219 37.4062 36.5156C36.6562 37.6406 35.7969 38.6875 34.8281 39.6562C33.8594 40.625 32.8281 41.4688 31.7344 42.1875C30.6094 42.9375 29.4375 43.5625 28.2188 44.0625C27 44.5625 25.7344 44.9531 24.4219 45.2344C23.1094 45.4844 21.7656 45.6094 20.3906 45.6094ZM19.2188 7.26562C16.875 7.42188 14.6719 8 12.6094 9C10.5781 10 8.80469 11.3047 7.28906 12.9141C5.77344 14.5234 4.57812 16.375 3.70312 18.4688C2.82812 20.5938 2.39062 22.8438 2.39062 25.2188C2.39062 27.6875 2.85938 30.0156 3.79688 32.2031C4.76562 34.3906 6.0625 36.3047 7.6875 37.9453C9.3125 39.5859 11.2188 40.875 13.4062 41.8125C15.5938 42.75 17.9219 43.2188 20.3906 43.2188C22.7656 43.2188 25.0156 42.7812 27.1406 41.9062C29.2344 41.0312 31.0938 39.8359 32.7188 38.3203C34.3438 36.8047 35.6406 35.0312 36.6094 33C37.6094 30.9688 38.1875 28.7812 38.3438 26.4375H20.3906C20.0781 26.4375 19.8047 26.3203 19.5703 26.0859C19.3359 25.8516 19.2188 25.5625 19.2188 25.2188V7.26562ZM44.3906 21.6094H25.2188C24.875 21.6094 24.5859 21.4922 24.3516 21.2578C24.1172 21.0234 24 20.75 24 20.4375V1.21875C24 0.875 24.1172 0.585938 24.3516 0.351562C24.5859 0.117188 24.875 0 25.2188 0C26.5625 0 27.8906 0.140625 29.2031 0.421875C30.5156 0.671875 31.7812 1.05469 33 1.57031C34.2188 2.08594 35.3906 2.70312 36.5156 3.42188C37.6406 4.17188 38.6719 5.03125 39.6094 6C40.5781 6.96875 41.4375 8 42.1875 9.09375C42.9375 10.2188 43.5625 11.3906 44.0625 12.6094C44.5625 13.8281 44.9375 15.0938 45.1875 16.4062C45.4688 17.7188 45.6094 19.0625 45.6094 20.4375C45.6094 20.75 45.4922 21.0234 45.2578 21.2578C45.0234 21.4922 44.7344 21.6094 44.3906 21.6094ZM26.3906 19.2188H43.1719C43.0156 16.9688 42.4688 14.8594 41.5312 12.8906C40.625 10.9219 39.4219 9.1875 37.9219 7.6875C36.4219 6.1875 34.6875 4.98438 32.7188 4.07812C30.75 3.14062 28.6406 2.59375 26.3906 2.4375V19.2188Z" fill="#E9204F"/>
</svg>
