<svg width="48" height="55" viewBox="0 0 48 55" fill="none" xmlns="http://www.w3.org/2000/svg">
<path d="M2.55911 54.5942H45.2109C45.9573 54.5942 46.5704 54.3543 47.0502 53.8745C47.5301 53.3947 47.77 52.7815 47.77 52.0351V4.26513C47.77 3.51873 47.5301 2.90561 47.0502 2.42577C46.5704 1.94594 45.9573 1.70602 45.2109 1.70602H38.3866C38.1378 1.70602 37.9334 1.786 37.7735 1.94594C37.6135 2.10588 37.5336 2.31026 37.5336 2.55906C37.5336 2.80787 37.6135 3.01224 37.7735 3.17218C37.9334 3.33213 38.1378 3.4121 38.3866 3.4121H45.2109C45.4952 3.4121 45.7085 3.48318 45.8507 3.62535C45.9928 3.76753 46.0639 3.98079 46.0639 4.26513V52.0351C46.0639 52.3195 45.9928 52.5327 45.8507 52.6749C45.7085 52.8171 45.4952 52.8882 45.2109 52.8882H2.55911C2.27476 52.8882 2.0615 52.8171 1.91933 52.6749C1.77716 52.5327 1.70607 52.3195 1.70607 52.0351V4.26513C1.70607 3.98079 1.77716 3.76753 1.91933 3.62535C2.0615 3.48318 2.27476 3.4121 2.55911 3.4121H9.38339C9.63219 3.4121 9.83657 3.33213 9.99651 3.17218C10.1565 3.01224 10.2364 2.80787 10.2364 2.55906C10.2364 2.31026 10.1565 2.10588 9.99651 1.94594C9.83657 1.786 9.63219 1.70602 9.38339 1.70602H2.55911C1.8127 1.70602 1.19958 1.94594 0.719749 2.42577C0.239916 2.90561 0 3.51873 0 4.26513V52.0351C0 52.7815 0.239916 53.3947 0.719749 53.8745C1.19958 54.3543 1.8127 54.5942 2.55911 54.5942ZM9.38339 8.53031C9.63219 8.53031 9.83657 8.45034 9.99651 8.29039C10.1565 8.13045 10.2364 7.92608 10.2364 7.67728C10.2364 7.42847 10.1565 7.2241 9.99651 7.06416C9.83657 6.90421 9.63219 6.82424 9.38339 6.82424H5.97125C5.72245 6.82424 5.51807 6.90421 5.35813 7.06416C5.19819 7.2241 5.11821 7.42847 5.11821 7.67728V48.623C5.11821 48.8718 5.19819 49.0762 5.35813 49.2361C5.51807 49.3961 5.72245 49.476 5.97125 49.476H41.7987C42.0475 49.476 42.2519 49.3961 42.4119 49.2361C42.5718 49.0762 42.6518 48.8718 42.6518 48.623V7.67728C42.6518 7.42847 42.5718 7.2241 42.4119 7.06416C42.2519 6.90421 42.0475 6.82424 41.7987 6.82424H38.3866C38.1378 6.82424 37.9334 6.90421 37.7735 7.06416C37.6135 7.2241 37.5336 7.42847 37.5336 7.67728C37.5336 7.92608 37.6135 8.13045 37.7735 8.29039C37.9334 8.45034 38.1378 8.53031 38.3866 8.53031H40.9457V47.77H6.82429V8.53031H9.38339ZM15.3546 11.9425H32.4154C33.4461 11.9425 34.2725 11.6315 34.8945 11.0094C35.5165 10.3874 35.8275 9.56106 35.8275 8.53031V0.852989C35.8275 0.604187 35.7475 0.399815 35.5876 0.239872C35.4276 0.0799255 35.2233 -4.57764e-05 34.9745 -4.57764e-05H12.7955C12.5467 -4.57764e-05 12.3424 0.0799255 12.1824 0.239872C12.0225 0.399815 11.9425 0.604187 11.9425 0.852989V8.53031C11.9425 9.56106 12.2535 10.3874 12.8755 11.0094C13.4975 11.6315 14.3239 11.9425 15.3546 11.9425ZM13.6486 1.70602H34.1214V8.53031C34.1214 9.099 33.9793 9.52552 33.6949 9.80986C33.4106 10.0942 32.984 10.2364 32.4154 10.2364H15.3546C14.786 10.2364 14.3594 10.0942 14.0751 9.80986C13.7907 9.52552 13.6486 9.099 13.6486 8.53031V1.70602ZM14.5016 27.2971H33.2684C33.5172 27.2971 33.7216 27.2171 33.8815 27.0572C34.0415 26.8972 34.1214 26.6929 34.1214 26.4441C34.1214 26.1953 34.0415 25.9909 33.8815 25.8309C33.7216 25.671 33.5172 25.591 33.2684 25.591H14.5016C14.2528 25.591 14.0484 25.671 13.8885 25.8309C13.7285 25.9909 13.6486 26.1953 13.6486 26.4441C13.6486 26.6929 13.7285 26.8972 13.8885 27.0572C14.0484 27.2171 14.2528 27.2971 14.5016 27.2971ZM14.5016 20.4728H33.2684C33.5172 20.4728 33.7216 20.3928 33.8815 20.2329C34.0415 20.0729 34.1214 19.8686 34.1214 19.6198C34.1214 19.371 34.0415 19.1666 33.8815 19.0067C33.7216 18.8467 33.5172 18.7667 33.2684 18.7667H14.5016C14.2528 18.7667 14.0484 18.8467 13.8885 19.0067C13.7285 19.1666 13.6486 19.371 13.6486 19.6198C13.6486 19.8686 13.7285 20.0729 13.8885 20.2329C14.0484 20.3928 14.2528 20.4728 14.5016 20.4728ZM14.5016 34.1214H33.2684C33.5172 34.1214 33.7216 34.0414 33.8815 33.8815C34.0415 33.7215 34.1214 33.5171 34.1214 33.2683C34.1214 33.0195 34.0415 32.8152 33.8815 32.6552C33.7216 32.4953 33.5172 32.4153 33.2684 32.4153H14.5016C14.2528 32.4153 14.0484 32.4953 13.8885 32.6552C13.7285 32.8152 13.6486 33.0195 13.6486 33.2683C13.6486 33.5171 13.7285 33.7215 13.8885 33.8815C14.0484 34.0414 14.2528 34.1214 14.5016 34.1214ZM14.5016 40.9457H33.2684C33.5172 40.9457 33.7216 40.8657 33.8815 40.7058C34.0415 40.5458 34.1214 40.3414 34.1214 40.0926C34.1214 39.8438 34.0415 39.6395 33.8815 39.4795C33.7216 39.3196 33.5172 39.2396 33.2684 39.2396H14.5016C14.2528 39.2396 14.0484 39.3196 13.8885 39.4795C13.7285 39.6395 13.6486 39.8438 13.6486 40.0926C13.6486 40.3414 13.7285 40.5458 13.8885 40.7058C14.0484 40.8657 14.2528 40.9457 14.5016 40.9457Z" fill="#747474"/>
</svg>
