<svg width="47" height="47" viewBox="0 0 47 47" fill="none" xmlns="http://www.w3.org/2000/svg">
<path d="M0.953693 8.11918C0.322194 8.7206 0.0440331 9.39721 0.119212 10.149C0.19439 10.9008 0.472551 11.5323 0.953693 12.0435C0.953693 12.0435 1.19426 12.269 1.67541 12.7201C2.15655 13.1712 2.8106 13.8027 3.63757 14.6146C4.46453 15.4265 5.44937 16.4039 6.59208 17.5466C7.76487 18.6592 9.02787 19.9072 10.3811 21.2905C10.4713 21.3506 10.5615 21.4032 10.6517 21.4483C10.7419 21.4934 10.8322 21.516 10.9224 21.516C11.0126 21.516 11.1028 21.4934 11.193 21.4483C11.2832 21.4032 11.3584 21.3506 11.4185 21.2905C11.5689 21.1401 11.6441 20.9672 11.6441 20.7717C11.6441 20.5763 11.5689 20.4033 11.4185 20.253C10.9975 19.8621 10.5916 19.4636 10.2007 19.0577C9.80972 18.6517 9.43383 18.2683 9.07297 17.9074L11.3283 15.607C11.4787 15.4867 11.5539 15.3213 11.5539 15.1108C11.5539 14.9003 11.4787 14.7349 11.3283 14.6146C11.208 14.4642 11.0427 14.3891 10.8322 14.3891C10.6217 14.3891 10.4563 14.4642 10.336 14.6146L8.03551 16.9151C7.37394 16.2836 6.76499 15.6897 6.20867 15.1333C5.65235 14.577 5.14865 14.0733 4.69758 13.6222L9.8849 8.38982C10.0353 8.26954 10.1104 8.10414 10.1104 7.89364C10.1104 7.68314 10.0353 7.51775 9.8849 7.39746C9.76462 7.24711 9.59922 7.17193 9.38872 7.17193C9.17822 7.17193 9.01283 7.24711 8.89254 7.39746L3.66012 12.6299C3.11883 12.1187 2.70535 11.7202 2.41967 11.4346C2.134 11.1489 1.97612 11.006 1.94605 11.006C1.79569 10.8557 1.67541 10.5926 1.58519 10.2167C1.49498 9.84077 1.61526 9.47239 1.94605 9.11153L9.16319 1.8944C9.31354 1.77411 9.56163 1.63879 9.90745 1.48843C10.2533 1.33807 10.6217 1.4734 11.0126 1.8944C11.0126 1.8944 11.2381 2.13497 11.6892 2.61611C12.1403 3.12732 12.7642 3.81897 13.5611 4.69104C14.358 5.56311 15.3278 6.58554 16.4705 7.75832C17.6133 8.93111 18.8763 10.2242 20.2595 11.6375C20.4099 11.7578 20.5828 11.818 20.7783 11.818C20.9737 11.818 21.1466 11.7578 21.297 11.6375C21.4173 11.4872 21.4774 11.3143 21.4774 11.1188C21.4774 10.9233 21.4173 10.7504 21.297 10.6001C19.9137 9.21679 18.6507 7.93875 17.508 6.76596C16.3954 5.59318 15.4331 4.57075 14.6211 3.69868C13.8092 2.82661 13.1928 2.15 12.7718 1.66886C12.3207 1.15765 12.0801 0.902039 12.05 0.902039C11.3885 0.210396 10.6893 -0.082798 9.95256 0.0224495C9.21581 0.127701 8.6219 0.420898 8.17083 0.902039L0.953693 8.11918ZM31.5363 34.8226C31.416 34.6722 31.2506 34.5971 31.0401 34.5971C30.8296 34.5971 30.6642 34.6722 30.544 34.8226L28.2435 37.123C27.8826 36.7622 27.5218 36.3938 27.1609 36.0179C26.8001 35.642 26.4242 35.2586 26.0332 34.8677C25.8829 34.7474 25.71 34.6873 25.5145 34.6873C25.3191 34.6873 25.1461 34.7474 24.9958 34.8677C24.8755 35.0181 24.8154 35.191 24.8154 35.3864C24.8154 35.5819 24.8755 35.7548 24.9958 35.9052C26.349 37.2283 27.5819 38.4612 28.6946 39.6039C29.8072 40.7467 30.762 41.739 31.5589 42.581C32.3558 43.423 32.9797 44.0846 33.4308 44.5657C33.8819 45.0469 34.1225 45.2874 34.1525 45.2874C34.3931 45.528 34.6788 45.716 35.0096 45.8513C35.3403 45.9866 35.6862 46.0543 36.047 46.0543C36.438 46.0543 36.8138 45.9866 37.1747 45.8513C37.5356 45.716 37.8212 45.528 38.0317 45.2874L45.2489 37.9801C45.6999 37.529 45.9405 36.9727 45.9706 36.3111C46.0007 35.6496 45.8052 35.1083 45.3842 34.6873L35.6862 25.0343C35.5659 24.884 35.4005 24.8088 35.19 24.8088C34.9795 24.8088 34.8141 24.884 34.6938 25.0343C34.5435 25.1546 34.4683 25.32 34.4683 25.5305C34.4683 25.741 34.5435 25.9064 34.6938 26.0267L44.3467 35.7247C44.4971 35.8751 44.5648 36.0781 44.5497 36.3337C44.5347 36.5893 44.437 36.8073 44.2565 36.9877L37.0394 44.2951C36.9492 44.3552 36.8138 44.4229 36.6334 44.4981C36.453 44.5732 36.2575 44.6108 36.047 44.6108C35.9267 44.6108 35.7839 44.5883 35.6185 44.5432C35.4531 44.4981 35.3103 44.4154 35.19 44.2951C35.19 44.2951 35.0396 44.1372 34.7389 43.8215C34.4382 43.5057 34.0322 43.0772 33.521 42.5359L38.7535 37.2584C38.9038 37.1381 38.979 36.9727 38.979 36.7622C38.979 36.5517 38.9038 36.3863 38.7535 36.266C38.6332 36.1157 38.4678 36.0405 38.2573 36.0405C38.0468 36.0405 37.8814 36.1157 37.7611 36.266L32.5287 41.4984C32.0776 41.0173 31.5739 40.4986 31.0176 39.9422C30.4613 39.3859 29.8674 38.777 29.2359 38.1154L31.5363 35.8149C31.6867 35.6947 31.7619 35.5293 31.7619 35.3188C31.7619 35.1083 31.6867 34.9429 31.5363 34.8226ZM0.231979 45.9189C0.292122 45.9791 0.367301 46.0242 0.457515 46.0543C0.547729 46.0843 0.637943 46.0994 0.728158 46.0994C0.758229 46.0994 0.795818 46.0994 0.840925 46.0994C0.886033 46.0994 0.923622 46.0994 0.953693 46.0994L15.388 41.7691C15.4481 41.7691 15.5007 41.754 15.5458 41.724C15.591 41.6939 15.6285 41.6488 15.6586 41.5887L40.3322 16.7797C40.3623 16.7497 40.3848 16.7271 40.3999 16.7121C40.4149 16.697 40.4224 16.6745 40.4224 16.6444L45.6999 11.3669C45.9104 11.1564 46.0758 10.9158 46.1961 10.6452C46.3164 10.3745 46.3766 10.0889 46.3766 9.78814C46.3766 9.48743 46.3164 9.20175 46.1961 8.93111C46.0758 8.66046 45.9104 8.41989 45.6999 8.20939L38.1671 0.631397C37.716 0.210396 37.1747 -0.000102997 36.5432 -0.000102997C35.9117 -0.000102997 35.3855 0.210396 34.9645 0.631397L29.5516 6.04425C29.5516 6.04425 29.5441 6.05928 29.529 6.08936C29.514 6.11943 29.5065 6.13446 29.5065 6.13446L4.7878 30.8532C4.75773 30.8832 4.72765 30.9283 4.69758 30.9885C4.66751 31.0486 4.63744 31.1088 4.60737 31.1689L0.051551 45.1521C-0.00859183 45.3025 -0.0161097 45.4378 0.0289974 45.5581C0.0741045 45.6784 0.141765 45.7987 0.231979 45.9189ZM30.138 7.57789L31.6265 9.06643L9.20829 31.5298L6.7274 30.9434L30.138 7.57789ZM10.1104 32.6574L32.664 10.1039L36.1372 13.6222L13.4484 36.0405H10.1104V32.6574ZM38.7986 16.2385L15.388 39.8746L14.5309 36.9877L37.1747 14.6146L38.7986 16.2385ZM5.78015 32.2064L8.66701 32.883V36.7622C8.66701 36.9727 8.73467 37.1456 8.86999 37.2809C9.00531 37.4162 9.17822 37.4839 9.38872 37.4839H13.1777L14.0799 40.6414L1.85584 44.2951L5.78015 32.2064ZM36.0019 1.66886C36.1523 1.51851 36.3402 1.44333 36.5658 1.44333C36.7913 1.44333 36.9792 1.51851 37.1296 1.66886L44.6625 9.20175C44.7527 9.29196 44.8204 9.38218 44.8655 9.47239C44.9106 9.56261 44.9331 9.66785 44.9331 9.78814C44.9331 9.87835 44.9106 9.97609 44.8655 10.0813C44.8204 10.1866 44.7527 10.2693 44.6625 10.3294L39.836 15.201L31.1304 6.54043L36.0019 1.66886Z" fill="#747474"/>
</svg>
