<svg width="20" height="19" viewBox="0 0 20 19" fill="none" xmlns="http://www.w3.org/2000/svg">
<path d="M6.44531 15.2344C6.44531 15.3125 6.36718 15.3516 6.25 15.3516C6.13281 15.3906 6.05468 15.3125 6.05468 15.2344C6.05468 15.1562 6.13281 15.0781 6.25 15.0781C6.36718 15.0781 6.44531 15.1562 6.44531 15.2344ZM5.23437 15.0391C5.27343 14.9609 5.39062 14.9219 5.50781 14.9609C5.625 15 5.66406 15.0781 5.66406 15.1562C5.625 15.2344 5.50781 15.2734 5.42968 15.2344C5.3125 15.2344 5.23437 15.1172 5.23437 15.0391ZM6.99218 15C7.07031 14.9609 7.1875 15.0391 7.1875 15.1172C7.22656 15.1953 7.14843 15.2344 7.03125 15.2734C6.91406 15.3125 6.79687 15.2734 6.79687 15.1953C6.79687 15.0781 6.875 15 6.99218 15ZM9.53125 0C14.9609 0 19.375 4.14062 19.375 9.53125C19.375 13.8672 16.7187 17.5781 12.8125 18.8672C12.3047 18.9844 12.1094 18.6719 12.1094 18.3984C12.1094 18.0859 12.1484 16.4453 12.1484 15.1562C12.1484 14.2188 11.8359 13.6328 11.4844 13.3203C13.6719 13.0859 15.9766 12.7734 15.9766 9.02344C15.9766 7.92969 15.5859 7.42188 14.9609 6.71875C15.0391 6.44531 15.3906 5.42969 14.8437 4.0625C14.0234 3.78906 12.1484 5.11719 12.1484 5.11719C11.3672 4.88281 10.5469 4.80469 9.6875 4.80469C8.86718 4.80469 8.04687 4.88281 7.26562 5.11719C7.26562 5.11719 5.35156 3.82812 4.57031 4.0625C4.02343 5.42969 4.33593 6.44531 4.45312 6.71875C3.82812 7.42188 3.51562 7.92969 3.51562 9.02344C3.51562 12.7734 5.74218 13.0859 7.92968 13.3203C7.61718 13.5938 7.38281 14.0234 7.30468 14.6484C6.71875 14.9219 5.3125 15.3516 4.45312 13.8281C3.90625 12.8906 2.92968 12.8125 2.92968 12.8125C1.99218 12.8125 2.89062 13.4375 2.89062 13.4375C3.51562 13.7109 3.94531 14.8438 3.94531 14.8438C4.53125 16.6016 7.26562 16.0156 7.26562 16.0156C7.26562 16.8359 7.26562 18.1641 7.26562 18.4375C7.26562 18.6719 7.10937 18.9844 6.60156 18.9062C2.69531 17.5781 -4.76837e-06 13.8672 -4.76837e-06 9.53125C-4.76837e-06 4.14062 4.14062 0 9.53125 0ZM3.78906 13.4766C3.82812 13.4375 3.90625 13.4766 3.98437 13.5156C4.0625 13.5938 4.0625 13.7109 4.02343 13.75C3.94531 13.7891 3.86718 13.75 3.78906 13.7109C3.75 13.6328 3.71093 13.5156 3.78906 13.4766ZM3.35937 13.1641C3.39843 13.125 3.4375 13.125 3.51562 13.1641C3.59375 13.2031 3.63281 13.2422 3.63281 13.2812C3.59375 13.3594 3.51562 13.3594 3.4375 13.3203C3.35937 13.2812 3.32031 13.2422 3.35937 13.1641ZM4.60937 14.5703C4.6875 14.4922 4.80468 14.5312 4.88281 14.6094C4.96093 14.6875 4.96093 14.8047 4.92187 14.8438C4.88281 14.9219 4.76562 14.8828 4.6875 14.8047C4.57031 14.7266 4.57031 14.6094 4.60937 14.5703ZM4.17968 13.9844C4.25781 13.9453 4.33593 13.9844 4.41406 14.0625C4.45312 14.1406 4.45312 14.2578 4.41406 14.2969C4.33593 14.3359 4.25781 14.2969 4.17968 14.2188C4.10156 14.1406 4.10156 14.0234 4.17968 13.9844Z" fill="white"/>
</svg>
