<svg width="32" height="47" viewBox="0 0 32 47" fill="none" xmlns="http://www.w3.org/2000/svg">
<path d="M15.88 4.57764e-05C13.9852 4.57764e-05 12.0905 0.360954 10.1957 1.08277C8.30091 1.83467 6.59411 2.89484 5.07528 4.26328C3.55646 5.63173 2.33087 7.29342 1.39852 9.24834C0.466174 11.2033 0 13.4138 0 15.88C0 18.2861 0.473693 20.5042 1.42108 22.5343C2.36847 24.5644 3.77451 26.3464 5.6392 27.8803C5.6392 27.9104 5.65424 27.9329 5.68432 27.9479C5.71439 27.963 5.74447 27.9855 5.77455 28.0156C7.12795 29.4893 7.94752 30.5044 8.23324 31.0608C8.51896 31.6172 8.66182 32.2112 8.66182 32.8428C8.66182 33.1135 8.66182 33.3014 8.66182 33.4067C8.66182 33.512 8.66182 33.5796 8.66182 33.6097V33.9255C8.63174 34.2563 8.66934 34.6473 8.7746 35.0985C8.87987 35.5496 9.27837 35.8804 9.97011 36.091L21.6545 38.6624C21.6545 38.6624 21.6696 38.6624 21.6997 38.6624C21.7297 38.6624 21.7598 38.6624 21.7899 38.6624C21.9703 38.6624 22.1207 38.6098 22.241 38.5045C22.3613 38.3993 22.4516 38.2564 22.5117 38.076C22.5418 37.8955 22.5042 37.7226 22.3989 37.5571C22.2937 37.3917 22.1358 37.2789 21.9252 37.2188L10.331 34.6924C10.2107 34.6624 10.1355 34.6097 10.1055 34.5345C10.0754 34.4593 10.0754 34.2714 10.1055 33.9706V33.6999C10.1055 33.6999 10.1055 33.6473 10.1055 33.542C10.1055 33.4368 10.1055 33.2037 10.1055 32.8428C10.0754 31.9104 9.87237 31.0909 9.49642 30.3841C9.12047 29.6773 8.21068 28.5419 6.76705 26.978C6.73697 26.9479 6.70689 26.9179 6.67682 26.8878C6.64674 26.8577 6.61667 26.8276 6.58659 26.7975C4.87227 25.3539 3.58653 23.7148 2.72938 21.8802C1.87222 20.0455 1.44364 18.0455 1.44364 15.88C1.44364 13.6544 1.8647 11.6544 2.70682 9.87993C3.57902 8.07539 4.69934 6.54904 6.06778 5.3009C7.43623 4.05275 8.97761 3.09785 10.6919 2.43618C12.4062 1.77452 14.1356 1.44368 15.88 1.44368C17.6545 1.44368 19.3989 1.77452 21.1132 2.43618C22.8576 3.09785 24.4065 4.04523 25.7599 5.27834C27.1133 6.51145 28.2111 8.03027 29.0532 9.83482C29.8953 11.6093 30.3164 13.6244 30.3164 15.88C30.3164 18.7372 29.76 21.023 28.6472 22.7373C27.5344 24.4516 26.3915 25.805 25.2185 26.7975C25.1884 26.7975 25.1584 26.8126 25.1283 26.8427C25.0982 26.8727 25.0681 26.9028 25.0381 26.9329C23.5644 28.5269 22.6395 29.6773 22.2636 30.3841C21.8876 31.0909 21.6846 31.9104 21.6545 32.8428C21.6545 32.8729 21.6545 32.8954 21.6545 32.9104C21.6545 32.9255 21.6545 32.948 21.6545 32.9781V33.0232C21.6545 33.0834 21.6545 33.1285 21.6545 33.1586C21.6545 33.1886 21.6545 33.2187 21.6545 33.2488C21.6245 33.2187 21.5869 33.2037 21.5418 33.2037C21.4966 33.2037 21.4741 33.2037 21.4741 33.2037L15.4289 31.76C15.2183 31.73 15.0304 31.7676 14.8649 31.8728C14.6995 31.9781 14.5867 32.121 14.5266 32.3014C14.4965 32.5119 14.5341 32.6999 14.6394 32.8653C14.7446 33.0307 14.8875 33.1435 15.068 33.2037L21.0681 34.6022C21.0981 34.6022 21.2636 34.6248 21.5643 34.6699C21.8651 34.715 22.1658 34.6323 22.4666 34.4218C22.5869 34.3315 22.7147 34.1887 22.8501 33.9932C22.9854 33.7977 23.0681 33.5195 23.0982 33.1586V33.1135C23.0982 33.0834 23.0982 33.0608 23.0982 33.0458C23.0982 33.0307 23.0982 33.0082 23.0982 32.9781C23.0982 32.948 23.0982 32.933 23.0982 32.933V32.8428C23.0982 32.2112 23.241 31.6172 23.5268 31.0608C23.8125 30.5044 24.632 29.4893 25.9855 28.0156C26.0155 28.0156 26.0306 28.0081 26.0306 27.9931C26.0306 27.978 26.0306 27.9705 26.0306 27.9705C27.9554 26.3765 29.3915 24.5795 30.3389 22.5794C31.2863 20.5794 31.76 18.3463 31.76 15.88C31.76 13.3838 31.2938 11.1582 30.3615 9.20323C29.4592 7.2483 28.2562 5.58662 26.7524 4.21817C25.2486 2.84972 23.5493 1.80459 21.6545 1.08277C19.7598 0.360954 17.8349 4.57764e-05 15.88 4.57764e-05ZM21.6545 42.5873C21.8049 42.5873 21.9478 42.5347 22.0831 42.4294C22.2185 42.3242 22.3162 42.1963 22.3764 42.046C22.4064 41.8354 22.3688 41.6475 22.2636 41.482C22.1583 41.3166 22.0155 41.2038 21.835 41.1437L10.2859 38.5271C10.0754 38.497 9.88741 38.5346 9.72199 38.6399C9.55657 38.7451 9.44379 38.888 9.38364 39.0685C9.35356 39.279 9.39116 39.467 9.49642 39.6324C9.60169 39.7978 9.74455 39.9106 9.925 39.9707L21.4741 42.5873C21.5042 42.5873 21.5342 42.5873 21.5643 42.5873C21.5944 42.5873 21.6245 42.5873 21.6545 42.5873ZM10.9626 42.6775C10.7822 42.6174 10.6092 42.64 10.4438 42.7452C10.2784 42.8505 10.1656 43.0084 10.1055 43.2189C10.0754 43.3994 10.113 43.5723 10.2182 43.7377C10.3235 43.9031 10.4664 44.0159 10.6468 44.0761L20.0305 46.1964C20.0605 46.1964 20.0906 46.1964 20.1207 46.1964C20.1508 46.1964 20.1808 46.1964 20.2109 46.1964C20.3613 46.1964 20.5041 46.1438 20.6395 46.0385C20.7748 45.9332 20.8726 45.7904 20.9327 45.6099C20.9628 45.4295 20.9252 45.2565 20.8199 45.0911C20.7147 44.9257 20.5568 44.8129 20.3463 44.7528L10.9626 42.6775Z" fill="#747474"/>
</svg>
