<svg width="48" height="47" viewBox="0 0 48 47" fill="none" xmlns="http://www.w3.org/2000/svg">
<path d="M2.16545 46.1964H32.4818C33.0833 46.1964 33.5946 45.9859 34.0157 45.5648C34.4367 45.1438 34.6473 44.6325 34.6473 44.031V33.2037C34.6473 33.2037 34.6473 33.1962 34.6473 33.1811C34.6473 33.1661 34.6473 33.1586 34.6473 33.1586C34.6773 33.1285 34.7149 33.1059 34.7601 33.0909C34.8052 33.0759 34.8428 33.0533 34.8728 33.0232L46.4219 44.5272C46.4821 44.6174 46.5573 44.6776 46.6475 44.7077C46.7377 44.7377 46.828 44.7528 46.9182 44.7528C47.0084 44.7528 47.0986 44.7377 47.1889 44.7077C47.2791 44.6776 47.3543 44.6174 47.4144 44.5272C47.5648 44.4069 47.64 44.2415 47.64 44.031C47.64 43.8204 47.5648 43.655 47.4144 43.5347L36.0007 32.0758C36.903 31.2337 37.6248 30.2262 38.1661 29.0532C38.7075 27.8803 38.9782 26.6171 38.9782 25.2637C38.9782 23.6095 38.5797 22.0907 37.7827 20.7072C36.9857 19.3237 35.9405 18.2109 34.6473 17.3688C34.6473 17.3688 34.6473 17.3613 34.6473 17.3462C34.6473 17.3312 34.6473 17.3237 34.6473 17.3237V13.7146C34.6473 13.7146 34.6473 13.7071 34.6473 13.692C34.6473 13.677 34.6473 13.6544 34.6473 13.6244C34.6473 13.6244 34.6398 13.6168 34.6247 13.6018C34.6097 13.5868 34.6022 13.5642 34.6022 13.5341C34.6022 13.5041 34.5871 13.4665 34.557 13.4214C34.527 13.3762 34.4969 13.3236 34.4668 13.2635C34.4668 13.2635 34.4668 13.2484 34.4668 13.2183L22.9177 0.225613C22.8576 0.195538 22.8049 0.165462 22.7598 0.135387C22.7147 0.105312 22.6621 0.0752335 22.6019 0.0451584C22.5719 0.0451584 22.5493 0.0451584 22.5343 0.0451584C22.5192 0.0451584 22.5117 0.0451584 22.5117 0.0451584C22.4816 0.0150833 22.4591 4.57764e-05 22.444 4.57764e-05C22.429 4.57764e-05 22.4064 4.57764e-05 22.3764 4.57764e-05H2.16545C1.56394 4.57764e-05 1.05265 0.210575 0.631591 0.631638C0.21053 1.0527 0 1.56398 0 2.1655V44.031C0 44.6325 0.21053 45.1438 0.631591 45.5648C1.05265 45.9859 1.56394 46.1964 2.16545 46.1964ZM37.5345 25.2637C37.5345 27.4592 36.7601 29.3314 35.2112 30.8803C33.6623 32.4292 31.7901 33.2037 29.5945 33.2037C27.399 33.2037 25.5268 32.4292 23.9779 30.8803C22.429 29.3314 21.6545 27.4592 21.6545 25.2637C21.6545 23.0682 22.429 21.1959 23.9779 19.647C25.5268 18.0981 27.399 17.3237 29.5945 17.3237C31.7901 17.3237 33.6623 18.0981 35.2112 19.647C36.7601 21.1959 37.5345 23.0682 37.5345 25.2637ZM23.0982 2.61664L32.3014 12.9928H23.82C23.6696 12.9928 23.5117 12.8725 23.3463 12.6319C23.1809 12.3913 23.0982 12.1507 23.0982 11.91V2.61664ZM1.44364 2.1655C1.44364 1.95497 1.51131 1.78204 1.64665 1.64669C1.78199 1.51135 1.95492 1.44368 2.16545 1.44368H21.6545V11.91C21.6545 12.4815 21.8651 13.0454 22.2861 13.6018C22.7072 14.1582 23.2185 14.4364 23.82 14.4364H33.2036V16.6019C32.6623 16.3613 32.0833 16.1808 31.4668 16.0605C30.8502 15.9402 30.2261 15.88 29.5945 15.88C28.2712 15.88 27.0306 16.1357 25.8727 16.647C24.7148 17.1583 23.6997 17.865 22.8275 18.7673H7.94C7.72947 18.7673 7.55653 18.835 7.42119 18.9703C7.28585 19.1057 7.21818 19.2786 7.21818 19.4891C7.21818 19.6997 7.28585 19.8726 7.42119 20.0079C7.55653 20.1433 7.72947 20.211 7.94 20.211H21.6997C21.2786 20.8425 20.9478 21.5268 20.7072 22.2636C20.4666 23.0005 20.3162 23.7599 20.256 24.5419H7.94C7.72947 24.5419 7.55653 24.6095 7.42119 24.7449C7.28585 24.8802 7.21818 25.0532 7.21818 25.2637C7.21818 25.4742 7.28585 25.6471 7.42119 25.7825C7.55653 25.9178 7.72947 25.9855 7.94 25.9855H20.256C20.3162 26.7675 20.4666 27.5269 20.7072 28.2637C20.9478 29.0006 21.2786 29.6848 21.6997 30.3164H7.94C7.72947 30.3164 7.55653 30.3841 7.42119 30.5194C7.28585 30.6548 7.21818 30.8277 7.21818 31.0382C7.21818 31.2488 7.28585 31.4217 7.42119 31.557C7.55653 31.6924 7.72947 31.76 7.94 31.76H22.7373C22.7673 31.76 22.7824 31.76 22.7824 31.76C22.7824 31.76 22.7974 31.76 22.8275 31.76C23.6696 32.6322 24.6772 33.3315 25.8501 33.8578C27.0231 34.3842 28.2712 34.6473 29.5945 34.6473C30.2261 34.6473 30.8502 34.5872 31.4668 34.4669C32.0833 34.3466 32.6623 34.1661 33.2036 33.9255V44.031C33.2036 44.2415 33.136 44.4144 33.0006 44.5498C32.8653 44.6851 32.6923 44.7528 32.4818 44.7528H2.16545C1.95492 44.7528 1.78199 44.6851 1.64665 44.5498C1.51131 44.4144 1.44364 44.2415 1.44364 44.031V2.1655ZM7.94 14.4364H16.6018C16.8123 14.4364 16.9853 14.3687 17.1206 14.2334C17.256 14.0981 17.3236 13.9251 17.3236 13.7146C17.3236 13.5041 17.256 13.3311 17.1206 13.1958C16.9853 13.0604 16.8123 12.9928 16.6018 12.9928H7.94C7.72947 12.9928 7.55653 13.0604 7.42119 13.1958C7.28585 13.3311 7.21818 13.5041 7.21818 13.7146C7.21818 13.9251 7.28585 14.0981 7.42119 14.2334C7.55653 14.3687 7.72947 14.4364 7.94 14.4364ZM7.94 37.5346H26.7073C26.9178 37.5346 27.0907 37.4669 27.2261 37.3316C27.3614 37.1962 27.4291 37.0233 27.4291 36.8128C27.4291 36.6022 27.3614 36.4293 27.2261 36.294C27.0907 36.1586 26.9178 36.091 26.7073 36.091H7.94C7.72947 36.091 7.55653 36.1586 7.42119 36.294C7.28585 36.4293 7.21818 36.6022 7.21818 36.8128C7.21818 37.0233 7.28585 37.1962 7.42119 37.3316C7.55653 37.4669 7.72947 37.5346 7.94 37.5346Z" fill="#747474"/>
</svg>
