<svg width="72" height="55" viewBox="0 0 72 55" fill="none" xmlns="http://www.w3.org/2000/svg">
<path d="M71.2868 22.3405C71.109 22.1628 70.8869 22.0917 70.6203 22.1272C70.3537 22.1628 70.1493 22.2694 70.0071 22.4471L65.9549 27.2991C65.9194 27.2991 65.8749 27.2902 65.8216 27.2724C65.7683 27.2547 65.7239 27.2636 65.6883 27.2991H63.289L66.3281 23.6201C66.5059 23.4069 66.577 23.1758 66.5414 22.927C66.5059 22.6782 66.3992 22.4827 66.2215 22.3405C66.0438 22.1628 65.8216 22.0917 65.555 22.1272C65.2884 22.1628 65.0841 22.2694 64.9419 22.4471L60.943 27.2991H58.2237L61.2629 23.6201C61.4406 23.4069 61.5117 23.1758 61.4762 22.927C61.4406 22.6782 61.334 22.4827 61.1563 22.3405C60.9785 22.1628 60.7564 22.0917 60.4898 22.1272C60.2232 22.1628 60.0188 22.2694 59.8766 22.4471L55.8777 27.2991H54.5981C54.5981 23.5313 53.8694 19.9945 52.412 16.6887C50.9902 13.3474 49.0441 10.4416 46.5737 7.97116C44.1032 5.50074 41.2152 3.55461 37.9094 2.13279C34.6037 0.710964 31.0669 4.95911e-05 27.299 4.95911e-05C23.5312 4.95911e-05 19.9944 0.710964 16.6887 2.13279C13.3829 3.59016 10.4948 5.55405 8.02443 8.02448C5.55401 10.4949 3.59011 13.383 2.13274 16.6887C0.710913 19.9945 0 23.5313 0 27.2991C0 31.0669 0.710913 34.6037 2.13274 37.9095C3.59011 41.2152 5.55401 44.1033 8.02443 46.5737C10.4948 49.0441 13.3829 51.008 16.6887 52.4654C19.9944 53.8872 23.5312 54.5981 27.299 54.5981C30.9247 54.5981 34.3371 53.9406 37.5362 52.6254C40.7353 51.2746 43.5523 49.4529 45.9872 47.1602C48.422 44.8675 50.3859 42.1572 51.8788 39.0292C53.4073 35.9011 54.2782 32.5599 54.4915 29.0053H55.8777L59.8766 33.8573C59.9477 33.9639 60.0455 34.0439 60.1699 34.0972C60.2943 34.1505 60.4276 34.1772 60.5698 34.1772C60.6764 34.1772 60.783 34.1594 60.8897 34.1239C60.9963 34.0883 61.0852 34.035 61.1563 33.9639C61.334 33.8217 61.4406 33.6262 61.4762 33.3774C61.5117 33.1286 61.4406 32.8975 61.2629 32.6843L58.2237 29.0053H60.943L64.9419 33.8573C65.013 33.9639 65.1107 34.0439 65.2351 34.0972C65.3595 34.1505 65.4928 34.1772 65.635 34.1772C65.7416 34.1772 65.8483 34.1594 65.9549 34.1239C66.0616 34.0883 66.1504 34.035 66.2215 33.9639C66.3992 33.8217 66.5059 33.6262 66.5414 33.3774C66.577 33.1286 66.5059 32.8975 66.3281 32.6843L63.289 29.0053H65.6883C65.7239 29.0408 65.7683 29.0497 65.8216 29.0319C65.8749 29.0142 65.9194 29.0053 65.9549 29.0053L70.0071 33.8573C70.0782 33.9639 70.176 34.0439 70.3004 34.0972C70.4248 34.1505 70.5581 34.1772 70.7003 34.1772C70.8069 34.1772 70.9135 34.1594 71.0202 34.1239C71.1268 34.0883 71.2157 34.035 71.2868 33.9639C71.4645 33.8217 71.5711 33.6262 71.6067 33.3774C71.6422 33.1286 71.5711 32.8975 71.3934 32.6843L67.6078 28.1522L71.3934 23.6201C71.5711 23.4069 71.6422 23.1758 71.6067 22.927C71.5711 22.6782 71.4645 22.4827 71.2868 22.3405ZM27.299 52.892C23.78 52.892 20.4565 52.2166 17.3285 50.8659C14.236 49.5151 11.5346 47.6845 9.22409 45.3741C6.91363 43.0636 5.08303 40.3621 3.73229 37.2696C2.38156 34.1416 1.70619 30.8181 1.70619 27.2991C1.70619 23.7801 2.38156 20.4566 3.73229 17.3285C5.08303 14.2361 6.91363 11.5346 9.22409 9.22414C11.5346 6.91368 14.236 5.08308 17.3285 3.73234C20.4565 2.38161 23.78 1.70624 27.299 1.70624C30.8181 1.70624 34.1238 2.38161 37.2163 3.73234C40.3443 5.04753 43.0635 6.86924 45.374 9.19748C47.6845 11.5257 49.5151 14.2361 50.8658 17.3285C52.2165 20.4566 52.8919 23.7801 52.8919 27.2991H47.7733C47.7733 24.4554 47.2224 21.7895 46.1205 19.3013C45.0541 16.8131 43.5967 14.6449 41.7483 12.7965C39.9 10.9481 37.7317 9.49073 35.2435 8.42437C32.7553 7.35799 30.1072 6.82481 27.299 6.82481C24.4909 6.82481 21.8428 7.35799 19.3546 8.42437C16.8664 9.49073 14.6892 10.957 12.8231 12.8231C10.9569 14.6893 9.49068 16.8665 8.42431 19.3546C7.35795 21.8428 6.82476 24.491 6.82476 27.2991C6.82476 30.1072 7.35795 32.7554 8.42431 35.2435C9.49068 37.7317 10.9569 39.9089 12.8231 41.7751C14.6892 43.6412 16.8664 45.1075 19.3546 46.1738C21.8428 47.2402 24.4909 47.7734 27.299 47.7734C29.965 47.7734 32.4887 47.2935 34.8703 46.3338C37.2518 45.3741 39.349 44.05 41.1618 42.3616C42.9747 40.6731 44.4676 38.6737 45.6406 36.3632C46.7781 34.0883 47.4534 31.6357 47.6667 29.0053H52.7853C52.572 32.3466 51.7544 35.4746 50.3326 38.3893C48.9108 41.2685 47.0535 43.7834 44.7608 45.9339C42.4681 48.0844 39.8289 49.7817 36.843 51.0258C33.8572 52.2699 30.6759 52.892 27.299 52.892ZM40.9486 27.2991C40.9486 25.4152 40.5931 23.6379 39.8822 21.9673C39.1357 20.3322 38.1493 18.8926 36.923 17.6485C35.6967 16.4044 34.2482 15.4269 32.5776 14.7159C30.9425 14.005 29.183 13.6496 27.299 13.6496C25.4151 13.6496 23.6378 14.005 21.9672 14.7159C20.3321 15.4269 18.8925 16.4044 17.6484 17.6485C16.4043 18.8926 15.4268 20.3322 14.7159 21.9673C14.005 23.6379 13.6495 25.4152 13.6495 27.2991C13.6495 29.183 14.005 30.9603 14.7159 32.6309C15.4268 34.266 16.4043 35.7056 17.6484 36.9497C18.8925 38.1938 20.3321 39.1713 21.9672 39.8823C23.6378 40.5932 25.4151 40.9486 27.299 40.9486C29.0408 40.9486 30.6759 40.6465 32.2043 40.0422C33.7684 39.4379 35.1457 38.5937 36.3365 37.5096C37.5273 36.4254 38.5137 35.1547 39.2957 33.6973C40.0777 32.2399 40.5931 30.6759 40.8419 29.0053H45.9605C45.7472 31.3868 45.1074 33.6262 44.041 35.7234C42.9747 37.7851 41.615 39.589 39.9622 41.1352C38.3093 42.6815 36.3987 43.8811 34.2304 44.7342C32.0622 45.6229 29.7517 46.0672 27.299 46.0672C24.7042 46.0672 22.2693 45.5696 19.9944 44.5743C17.7195 43.6145 15.7289 42.2816 14.0228 40.5754C12.3166 38.8692 10.9836 36.8786 10.0239 34.6037C9.02859 32.3288 8.53095 29.8939 8.53095 27.2991C8.53095 24.7043 9.02859 22.2694 10.0239 19.9945C10.9836 17.7195 12.3166 15.729 14.0228 14.0228C15.7289 12.3166 17.7195 10.9837 19.9944 10.0239C22.2693 9.02864 24.7042 8.531 27.299 8.531C29.8939 8.531 32.3288 9.02864 34.6037 10.0239C36.8786 10.9837 38.8603 12.3166 40.5487 14.0228C42.2371 15.729 43.5789 17.7195 44.5742 19.9945C45.5695 22.2694 46.0671 24.7043 46.0671 27.2991H40.9486ZM34.1238 27.2991C34.0883 25.4152 33.4129 23.8067 32.0977 22.4738C30.7825 21.1408 29.183 20.4743 27.299 20.4743C25.4151 20.4743 23.8067 21.1408 22.4737 22.4738C21.1408 23.8067 20.4743 25.4152 20.4743 27.2991C20.4743 29.183 21.1408 30.7915 22.4737 32.1244C23.8067 33.4574 25.4151 34.1239 27.299 34.1239C28.8631 34.1239 30.2493 33.644 31.4579 32.6843C32.6664 31.7245 33.4662 30.4982 33.8572 29.0053H39.0824C38.8691 30.4627 38.4248 31.8134 37.7495 33.0575C37.0385 34.3016 36.1588 35.3857 35.1102 36.3099C34.0616 37.2341 32.8797 37.945 31.5645 38.4427C30.2138 38.9758 28.792 39.2424 27.299 39.2424C25.6639 39.2424 24.1177 38.9225 22.6603 38.2827C21.203 37.6784 19.9322 36.8342 18.8481 35.7501C17.7639 34.6659 16.9197 33.3952 16.3154 31.9378C15.6756 30.4804 15.3557 28.9342 15.3557 27.2991C15.3557 25.664 15.6756 24.1178 16.3154 22.6604C16.9197 21.203 17.7639 19.9323 18.8481 18.8481C19.9322 17.764 21.203 16.9198 22.6603 16.3155C24.1177 15.6757 25.6639 15.3558 27.299 15.3558C28.9341 15.3558 30.4804 15.6757 31.9377 16.3155C33.3951 16.9198 34.657 17.764 35.7234 18.8481C36.7897 19.9323 37.6428 21.203 38.2826 22.6604C38.9225 24.0822 39.2424 25.6285 39.2424 27.2991H34.1238ZM28.1521 29.0053H32.0977C31.7423 30.0006 31.1291 30.8181 30.2582 31.4579C29.3874 32.0978 28.401 32.4177 27.299 32.4177C25.8772 32.4177 24.6687 31.92 23.6734 30.9248C22.6781 29.9295 22.1805 28.7209 22.1805 27.2991C22.1805 25.8773 22.6781 24.6687 23.6734 23.6734C24.6687 22.6782 25.8772 22.1805 27.299 22.1805C28.6853 22.1805 29.8761 22.6782 30.8714 23.6734C31.8667 24.6687 32.3821 25.8773 32.4176 27.2991H28.1521C27.9033 27.2636 27.69 27.3346 27.5123 27.5124C27.3346 27.6901 27.2457 27.9034 27.2457 28.1522C27.2457 28.401 27.3346 28.6143 27.5123 28.792C27.69 28.9697 27.9033 29.0408 28.1521 29.0053Z" fill="#747474"/>
</svg>
