<svg width="51" height="47" viewBox="0 0 51 47" fill="none" xmlns="http://www.w3.org/2000/svg">
<path d="M3.60938 4.3312C3.39883 4.3312 3.22588 4.39888 3.09053 4.53423C2.95518 4.66958 2.8875 4.84253 2.8875 5.05307V29.5968C2.8875 30.1984 3.09805 30.7097 3.51914 31.1308C3.94023 31.5519 4.45156 31.7625 5.05312 31.7625H45.4781C46.0797 31.7625 46.591 31.5519 47.0121 31.1308C47.4332 30.7097 47.6437 30.1984 47.6437 29.5968V5.05307C47.6437 4.84253 47.5761 4.66958 47.4407 4.53423C47.3054 4.39888 47.1324 4.3312 46.9219 4.3312C46.7113 4.3312 46.5384 4.39888 46.403 4.53423C46.2677 4.66958 46.2 4.84253 46.2 5.05307V29.5968C46.2 29.8074 46.1323 29.9803 45.997 30.1157C45.8616 30.251 45.6887 30.3187 45.4781 30.3187H5.05312C4.84258 30.3187 4.66963 30.251 4.53428 30.1157C4.39893 29.9803 4.33125 29.8074 4.33125 29.5968V5.05307C4.33125 4.84253 4.26357 4.66958 4.12822 4.53423C3.99287 4.39888 3.81992 4.3312 3.60938 4.3312ZM49.8094 -4.95911e-05H0.721875C0.511328 -4.95911e-05 0.338379 0.067627 0.203027 0.202976C0.0676758 0.338329 0 0.51128 0 0.721825C0 0.932373 0.0676758 1.10532 0.203027 1.24067C0.338379 1.37603 0.511328 1.4437 0.721875 1.4437H49.8094C50.0199 1.4437 50.1929 1.37603 50.3282 1.24067C50.4636 1.10532 50.5312 0.932373 50.5312 0.721825C50.5312 0.51128 50.4636 0.338329 50.3282 0.202976C50.1929 0.067627 50.0199 -4.95911e-05 49.8094 -4.95911e-05ZM19.9869 11.7755C19.8666 11.6251 19.7162 11.5499 19.5357 11.5499C19.3553 11.5499 19.1898 11.6101 19.0395 11.7304L10.377 18.9492C10.2266 19.0695 10.1363 19.2274 10.1062 19.4229C10.0762 19.6184 10.1363 19.7914 10.2867 19.9417C10.407 20.0921 10.5649 20.1824 10.7604 20.2125C10.956 20.2425 11.1289 20.1824 11.2793 20.032L19.4455 13.2644L27.6568 21.4306C27.717 21.5208 27.7922 21.581 27.8824 21.6111C27.9727 21.6412 28.0629 21.6562 28.1531 21.6562C28.2434 21.6562 28.3336 21.6412 28.4238 21.6111C28.5141 21.581 28.5893 21.5208 28.6494 21.4306L38.9813 11.1439V16.6031C38.9813 16.8136 39.0489 16.9866 39.1843 17.1219C39.3196 17.2573 39.4926 17.325 39.7031 17.325C39.9137 17.325 40.0866 17.2573 40.222 17.1219C40.3573 16.9866 40.425 16.8136 40.425 16.6031V9.38433C40.425 9.32417 40.4175 9.27153 40.4024 9.22641C40.3874 9.1813 40.3799 9.1437 40.3799 9.11362C40.3498 9.02339 40.2972 8.94067 40.222 8.86548C40.1468 8.79028 40.0641 8.73764 39.9738 8.70757C39.9438 8.70757 39.9062 8.70005 39.861 8.68501C39.8159 8.66997 39.7633 8.66245 39.7031 8.66245H32.4844C32.2738 8.66245 32.1009 8.73013 31.9655 8.86548C31.8302 9.00083 31.7625 9.17378 31.7625 9.38433C31.7625 9.59487 31.8302 9.76782 31.9655 9.90317C32.1009 10.0385 32.2738 10.1062 32.4844 10.1062H37.9436L28.1531 19.8966L19.9869 11.7755ZM14.5277 45.7939C14.618 45.9744 14.7608 46.0947 14.9563 46.1548C15.1519 46.215 15.3248 46.2 15.4752 46.1097L25.2656 41.0115L35.0561 46.1097C35.0861 46.1398 35.1313 46.1624 35.1914 46.1774C35.2516 46.1924 35.3117 46.2 35.3719 46.2C35.4922 46.2 35.6125 46.1699 35.7328 46.1097C35.8531 46.0496 35.9434 45.9443 36.0035 45.7939C36.0938 45.6435 36.1088 45.4706 36.0486 45.275C35.9885 45.0795 35.8682 44.9367 35.6877 44.8464L25.7619 39.6128C25.8221 39.5527 25.8747 39.4775 25.9198 39.3873C25.9649 39.297 25.9875 39.2068 25.9875 39.1166V35.3718C25.9875 35.1613 25.9198 34.9883 25.7845 34.853C25.6491 34.7176 25.4762 34.65 25.2656 34.65C25.0551 34.65 24.8821 34.7176 24.7468 34.853C24.6114 34.9883 24.5438 35.1613 24.5438 35.3718V39.1166C24.5438 39.2068 24.5663 39.297 24.6114 39.3873C24.6565 39.4775 24.7092 39.5527 24.7693 39.6128L14.8436 44.8464C14.6631 44.9367 14.5428 45.0795 14.4826 45.275C14.4225 45.4706 14.4375 45.6435 14.5277 45.7939Z" fill="#747474"/>
</svg>
