<svg width="61" height="47" viewBox="0 0 61 47" fill="none" xmlns="http://www.w3.org/2000/svg">
<path d="M51.4787 20.2576C51.2982 20.1974 51.1178 20.2125 50.9373 20.3027C50.7568 20.3929 50.6365 20.5283 50.5764 20.7087C50.5162 20.8892 50.5312 21.0697 50.6215 21.2501C50.7117 21.4306 50.8471 21.5509 51.0275 21.6111C53.8549 22.5134 55.9228 23.6639 57.2312 25.0625C58.5396 26.4612 59.1938 28.2132 59.1938 30.3187C59.1938 32.1835 58.5396 33.8153 57.2312 35.2139C55.9228 36.6125 54.7572 37.6728 53.7346 38.3947C53.6443 38.4548 53.5691 38.5375 53.509 38.6428C53.4488 38.7481 53.4188 38.8609 53.4188 38.9812V44.4855C52.8773 44.305 52.1931 43.9742 51.3659 43.4929C50.5388 43.0117 49.7191 42.3048 48.907 41.3724C48.8168 41.2822 48.7115 41.222 48.5912 41.1919C48.4709 41.1619 48.3506 41.1468 48.2303 41.1468C48.0197 41.207 47.8092 41.2596 47.5986 41.3047C47.3881 41.3499 47.1775 41.4025 46.967 41.4626C46.6061 41.5529 46.2376 41.6431 45.8616 41.7333C45.4856 41.8236 45.1172 41.8687 44.7563 41.8687C42.8914 41.8687 41.2672 41.6582 39.8836 41.2371C38.5 40.816 37.1314 40.1091 35.7779 39.1166C35.6275 38.9962 35.4546 38.9511 35.2591 38.9812C35.0636 39.0113 34.9057 39.1166 34.7854 39.297C34.665 39.4474 34.6199 39.6204 34.65 39.8159C34.6801 40.0114 34.7703 40.1693 34.9207 40.2896C36.3945 41.3724 37.8984 42.1469 39.4324 42.6131C40.9664 43.0793 42.741 43.3125 44.7563 43.3125C45.2074 43.3125 45.6511 43.2673 46.0872 43.1771C46.5233 43.0869 46.9369 42.9816 47.3279 42.8613C47.4783 42.8312 47.6137 42.8011 47.734 42.771C47.8543 42.741 47.9746 42.7109 48.0949 42.6808C49.4484 44.0945 50.7568 45.0269 52.0201 45.4781C53.2834 45.9292 53.9451 46.1699 54.0053 46.2C54.0354 46.2 54.0579 46.2 54.0729 46.2C54.088 46.2 54.1105 46.2 54.1406 46.2C54.2309 46.2 54.3136 46.1849 54.3888 46.1548C54.464 46.1248 54.5316 46.0796 54.5918 46.0195C54.682 45.9593 54.7497 45.8841 54.7948 45.7939C54.8399 45.7037 54.8625 45.5984 54.8625 45.4781V39.3421C56.7273 38.0187 58.1561 36.5825 59.1486 35.0334C60.1412 33.4844 60.6375 31.9128 60.6375 30.3187C60.6375 27.8824 59.8931 25.8446 58.4042 24.2053C56.9153 22.5661 54.6068 21.2501 51.4787 20.2576ZM47.6437 19.4906C47.6437 16.7234 47.0422 14.1517 45.8391 11.7755C44.666 9.39936 43.0192 7.33901 40.8987 5.59448C38.7782 3.84995 36.2893 2.4814 33.4318 1.48882C30.5443 0.496239 27.4312 -4.95911e-05 24.0926 -4.95911e-05C20.6938 -4.95911e-05 17.5355 0.496239 14.618 1.48882C11.7004 2.51147 9.15879 3.89507 6.99316 5.6396C4.82754 7.38413 3.11309 9.44448 1.8498 11.8207C0.616602 14.1968 0 16.7535 0 19.4906C0 21.1449 0.255664 22.6638 0.766992 24.0474C1.3084 25.4611 1.99268 26.7544 2.81982 27.9275C3.64697 29.1005 4.57188 30.1533 5.59453 31.0857C6.64727 32.0482 7.66992 32.8753 8.6625 33.5671V43.1771C8.6625 43.2974 8.69258 43.4102 8.75273 43.5155C8.81289 43.6208 8.88809 43.7035 8.97832 43.7636C9.03848 43.7937 9.10615 43.8238 9.18135 43.8539C9.25654 43.8839 9.32422 43.899 9.38438 43.899C9.44453 43.899 9.49717 43.8915 9.54228 43.8764C9.5874 43.8614 9.64004 43.8388 9.7002 43.8087C9.79043 43.7787 10.8432 43.1921 12.8584 42.0492C14.8736 40.9062 16.934 39.1767 19.0395 36.8607C19.9418 37.0412 20.8968 37.1991 21.9044 37.3344C22.912 37.4698 23.882 37.5375 24.8145 37.5375C28.2133 37.5375 31.3264 37.1013 34.1537 36.2291C36.951 35.3568 39.3497 34.1311 41.3499 32.552C43.3501 30.9729 44.8916 29.0705 45.9744 26.8447C47.0873 24.649 47.6437 22.1976 47.6437 19.4906ZM24.8145 36.0937C23.852 36.0937 22.8594 36.0185 21.8367 35.8681C20.8141 35.7177 19.8365 35.5523 18.9041 35.3718C18.7838 35.3718 18.6635 35.3869 18.5432 35.4169C18.4229 35.447 18.3176 35.5072 18.2273 35.5974C16.7535 37.2818 15.2421 38.6503 13.6931 39.7031C12.144 40.7558 10.9484 41.5228 10.1062 42.0041V33.2062C10.1062 33.0859 10.0762 32.9731 10.016 32.8678C9.95586 32.7625 9.88066 32.6798 9.79043 32.6197C8.82793 31.958 7.86543 31.191 6.90293 30.3187C5.91035 29.4464 5.00801 28.4614 4.1959 27.3635C3.38379 26.2657 2.72207 25.055 2.21074 23.7316C1.69941 22.4382 1.44375 21.0246 1.44375 19.4906C1.44375 16.964 2.03027 14.6029 3.20332 12.4072C4.37637 10.2115 5.97803 8.30151 8.0083 6.6773C10.0386 5.05307 12.4373 3.77475 15.2045 2.84233C17.9416 1.90991 20.9043 1.4437 24.0926 1.4437C27.2207 1.4437 30.1383 1.89487 32.8453 2.79721C35.5523 3.72964 37.8909 5.00044 39.861 6.60962C41.8312 8.2188 43.3877 10.1212 44.5307 12.3169C45.6436 14.5126 46.2 16.9039 46.2 19.4906C46.2 21.9871 45.6887 24.2429 44.666 26.2582C43.6434 28.3035 42.1921 30.0555 40.3122 31.5143C38.4323 32.9731 36.1689 34.1085 33.5221 34.9207C30.9053 35.7027 28.0027 36.0937 24.8145 36.0937ZM23.8219 16.6031C23.0398 16.6031 22.3631 16.8888 21.7916 17.4603C21.2201 18.0318 20.9344 18.7085 20.9344 19.4906C20.9344 20.2726 21.2201 20.9494 21.7916 21.5208C22.3631 22.0923 23.0398 22.3781 23.8219 22.3781C24.6039 22.3781 25.2807 22.0923 25.8521 21.5208C26.4236 20.9494 26.7094 20.2726 26.7094 19.4906C26.7094 18.7085 26.4236 18.0318 25.8521 17.4603C25.2807 16.8888 24.6039 16.6031 23.8219 16.6031ZM23.8219 20.9343C23.4309 20.9343 23.0925 20.7915 22.8067 20.5057C22.521 20.22 22.3781 19.8816 22.3781 19.4906C22.3781 19.0996 22.521 18.7612 22.8067 18.4754C23.0925 18.1897 23.4309 18.0468 23.8219 18.0468C24.2129 18.0468 24.5513 18.1897 24.837 18.4754C25.1228 18.7612 25.2656 19.0996 25.2656 19.4906C25.2656 19.8816 25.1228 20.22 24.837 20.5057C24.5513 20.7915 24.2129 20.9343 23.8219 20.9343ZM33.9281 16.6031C33.1461 16.6031 32.4693 16.8888 31.8979 17.4603C31.3264 18.0318 31.0406 18.7085 31.0406 19.4906C31.0406 20.2726 31.3264 20.9494 31.8979 21.5208C32.4693 22.0923 33.1461 22.3781 33.9281 22.3781C34.7102 22.3781 35.3869 22.0923 35.9584 21.5208C36.5299 20.9494 36.8156 20.2726 36.8156 19.4906C36.8156 18.7085 36.5299 18.0318 35.9584 17.4603C35.3869 16.8888 34.7102 16.6031 33.9281 16.6031ZM33.9281 20.9343C33.5371 20.9343 33.1987 20.7915 32.913 20.5057C32.6272 20.22 32.4844 19.8816 32.4844 19.4906C32.4844 19.0996 32.6272 18.7612 32.913 18.4754C33.1987 18.1897 33.5371 18.0468 33.9281 18.0468C34.3191 18.0468 34.6575 18.1897 34.9433 18.4754C35.229 18.7612 35.3719 19.0996 35.3719 19.4906C35.3719 19.8816 35.229 20.22 34.9433 20.5057C34.6575 20.7915 34.3191 20.9343 33.9281 20.9343ZM13.7156 16.7384C12.9336 16.7384 12.2568 17.0242 11.6854 17.5957C11.1139 18.1671 10.8281 18.8439 10.8281 19.6259C10.8281 20.438 11.1139 21.1223 11.6854 21.6788C12.2568 22.2352 12.9336 22.5134 13.7156 22.5134C14.4977 22.5134 15.1744 22.2352 15.7459 21.6788C16.3174 21.1223 16.6031 20.438 16.6031 19.6259C16.6031 18.8439 16.3174 18.1671 15.7459 17.5957C15.1744 17.0242 14.4977 16.7384 13.7156 16.7384ZM13.7156 21.0697C13.3246 21.0697 12.9862 20.9268 12.7005 20.6411C12.4147 20.3553 12.2719 20.0169 12.2719 19.6259C12.2719 19.2349 12.4147 18.8965 12.7005 18.6108C12.9862 18.325 13.3246 18.1822 13.7156 18.1822C14.1066 18.1822 14.445 18.325 14.7308 18.6108C15.0165 18.8965 15.1594 19.2349 15.1594 19.6259C15.1594 20.0169 15.0165 20.3553 14.7308 20.6411C14.445 20.9268 14.1066 21.0697 13.7156 21.0697Z" fill="#747474"/>
</svg>
