<svg width="20" height="17" viewBox="0 0 20 17" fill="none" xmlns="http://www.w3.org/2000/svg">
<path d="M17.9297 4.02344C17.9297 4.21875 17.9297 4.375 17.9297 4.57031C17.9297 10 13.8281 16.2109 6.28907 16.2109C3.94532 16.2109 1.79689 15.5469 1.23978e-05 14.375C0.312512 14.4141 0.625012 14.4531 0.976575 14.4531C2.89064 14.4531 4.64845 13.7891 6.0547 12.6953C4.25782 12.6562 2.73439 11.4844 2.22657 9.84375C2.50001 9.88281 2.73439 9.92188 3.00782 9.92188C3.35939 9.92188 3.75001 9.84375 4.06251 9.76562C2.18751 9.375 0.781262 7.73438 0.781262 5.74219V5.70312C1.32814 6.01562 1.9922 6.17188 2.65626 6.21094C1.52345 5.46875 0.820325 4.21875 0.820325 2.8125C0.820325 2.03125 1.01564 1.32812 1.3672 0.742188C3.39845 3.20312 6.44532 4.84375 9.84376 5.03906C9.76564 4.72656 9.72657 4.41406 9.72657 4.10156C9.72657 1.83594 11.5625 0 13.8281 0C15 0 16.0547 0.46875 16.8359 1.28906C17.7344 1.09375 18.6328 0.742188 19.4141 0.273438C19.1016 1.25 18.4766 2.03125 17.6172 2.53906C18.4375 2.46094 19.2578 2.22656 19.9609 1.91406C19.4141 2.73438 18.7109 3.4375 17.9297 4.02344Z" fill="white"/>
</svg>
