<svg width="61" height="47" viewBox="0 0 61 47" fill="none" xmlns="http://www.w3.org/2000/svg">
<path d="M59.9156 14.4375C59.7051 14.4375 59.5321 14.5051 59.3968 14.6405C59.2614 14.7758 59.1938 14.9488 59.1938 15.1593V44.0343C59.1938 44.2449 59.1261 44.4178 58.9907 44.5532C58.8554 44.6885 58.6824 44.7562 58.4719 44.7562H2.16563C1.95508 44.7562 1.78213 44.6885 1.64678 44.5532C1.51143 44.4178 1.44375 44.2449 1.44375 44.0343V15.1593C1.44375 14.9488 1.37607 14.7758 1.24072 14.6405C1.10537 14.5051 0.932422 14.4375 0.721875 14.4375C0.511328 14.4375 0.338379 14.5051 0.203027 14.6405C0.0676758 14.7758 0 14.9488 0 15.1593V44.0343C0 44.6359 0.210547 45.1472 0.631641 45.5683C1.05273 45.9894 1.56406 46.2 2.16563 46.2H58.4719C59.0734 46.2 59.5848 45.9894 60.0059 45.5683C60.427 45.1472 60.6375 44.6359 60.6375 44.0343V15.1593C60.6375 14.9488 60.5698 14.7758 60.4345 14.6405C60.2991 14.5051 60.1262 14.4375 59.9156 14.4375ZM58.4719 -4.95911e-05H2.16563C1.56406 -4.95911e-05 1.05273 0.210499 0.631641 0.631592C0.210547 1.05268 0 1.56401 0 2.16558V10.8281C0 11.0386 0.0676758 11.2116 0.203027 11.3469C0.338379 11.4823 0.511328 11.5499 0.721875 11.5499H59.9156C60.1262 11.5499 60.2991 11.4823 60.4345 11.3469C60.5698 11.2116 60.6375 11.0386 60.6375 10.8281V2.16558C60.6375 1.56401 60.427 1.05268 60.0059 0.631592C59.5848 0.210499 59.0734 -4.95911e-05 58.4719 -4.95911e-05ZM59.1938 10.1062H1.44375V2.16558C1.44375 1.95503 1.51143 1.78208 1.64678 1.64673C1.78213 1.51138 1.95508 1.4437 2.16563 1.4437H58.4719C58.6824 1.4437 58.8554 1.51138 58.9907 1.64673C59.1261 1.78208 59.1938 1.95503 59.1938 2.16558V10.1062ZM25.2656 40.425C25.4762 40.425 25.6491 40.3573 25.7845 40.2219C25.9198 40.0866 25.9875 39.9136 25.9875 39.7031V16.6031C25.9875 16.3925 25.9198 16.2196 25.7845 16.0842C25.6491 15.9489 25.4762 15.8812 25.2656 15.8812H6.49688C6.28633 15.8812 6.11338 15.9489 5.97803 16.0842C5.84268 16.2196 5.775 16.3925 5.775 16.6031V39.7031C5.775 39.9136 5.84268 40.0866 5.97803 40.2219C6.11338 40.3573 6.28633 40.425 6.49688 40.425H25.2656ZM7.21875 17.325H24.5438V38.9812H7.21875V17.325ZM32.4844 21.6562H54.1406C54.3512 21.6562 54.5241 21.5885 54.6595 21.4532C54.7948 21.3178 54.8625 21.1449 54.8625 20.9343C54.8625 20.7238 54.7948 20.5508 54.6595 20.4155C54.5241 20.2801 54.3512 20.2125 54.1406 20.2125H32.4844C32.2738 20.2125 32.1009 20.2801 31.9655 20.4155C31.8302 20.5508 31.7625 20.7238 31.7625 20.9343C31.7625 21.1449 31.8302 21.3178 31.9655 21.4532C32.1009 21.5885 32.2738 21.6562 32.4844 21.6562ZM32.4844 28.875H54.1406C54.3512 28.875 54.5241 28.8073 54.6595 28.6719C54.7948 28.5366 54.8625 28.3636 54.8625 28.1531C54.8625 27.9425 54.7948 27.7696 54.6595 27.6342C54.5241 27.4989 54.3512 27.4312 54.1406 27.4312H32.4844C32.2738 27.4312 32.1009 27.4989 31.9655 27.6342C31.8302 27.7696 31.7625 27.9425 31.7625 28.1531C31.7625 28.3636 31.8302 28.5366 31.9655 28.6719C32.1009 28.8073 32.2738 28.875 32.4844 28.875ZM32.4844 36.0937H54.1406C54.3512 36.0937 54.5241 36.026 54.6595 35.8907C54.7948 35.7553 54.8625 35.5824 54.8625 35.3718C54.8625 35.1613 54.7948 34.9883 54.6595 34.853C54.5241 34.7176 54.3512 34.65 54.1406 34.65H32.4844C32.2738 34.65 32.1009 34.7176 31.9655 34.853C31.8302 34.9883 31.7625 35.1613 31.7625 35.3718C31.7625 35.5824 31.8302 35.7553 31.9655 35.8907C32.1009 36.026 32.2738 36.0937 32.4844 36.0937ZM4.33125 5.77495C4.33125 6.16597 4.47412 6.50434 4.75986 6.79009C5.04561 7.07583 5.38398 7.2187 5.775 7.2187C6.16602 7.2187 6.50439 7.07583 6.79014 6.79009C7.07588 6.50434 7.21875 6.16597 7.21875 5.77495C7.21875 5.38393 7.07588 5.04556 6.79014 4.75982C6.50439 4.47407 6.16602 4.3312 5.775 4.3312C5.38398 4.3312 5.04561 4.47407 4.75986 4.75982C4.47412 5.04556 4.33125 5.38393 4.33125 5.77495ZM10.1062 5.77495C10.1062 6.16597 10.2491 6.50434 10.5349 6.79009C10.8206 7.07583 11.159 7.2187 11.55 7.2187C11.941 7.2187 12.2794 7.07583 12.5651 6.79009C12.8509 6.50434 12.9938 6.16597 12.9938 5.77495C12.9938 5.38393 12.8509 5.04556 12.5651 4.75982C12.2794 4.47407 11.941 4.3312 11.55 4.3312C11.159 4.3312 10.8206 4.47407 10.5349 4.75982C10.2491 5.04556 10.1062 5.38393 10.1062 5.77495ZM15.8813 5.77495C15.8813 6.16597 16.0241 6.50434 16.3099 6.79009C16.5956 7.07583 16.934 7.2187 17.325 7.2187C17.716 7.2187 18.0544 7.07583 18.3401 6.79009C18.6259 6.50434 18.7688 6.16597 18.7688 5.77495C18.7688 5.38393 18.6259 5.04556 18.3401 4.75982C18.0544 4.47407 17.716 4.3312 17.325 4.3312C16.934 4.3312 16.5956 4.47407 16.3099 4.75982C16.0241 5.04556 15.8813 5.38393 15.8813 5.77495Z" fill="#747474"/>
</svg>
