<svg width="37" height="37" viewBox="0 0 37 37" fill="none" xmlns="http://www.w3.org/2000/svg">
<rect width="37" height="37" rx="18.5" fill="#F53838" fill-opacity="0.1"/>
<path d="M27.12 14.95C26.07 10.33 22.04 8.25 18.5 8.25C18.5 8.25 18.5 8.25 18.49 8.25C14.96 8.25 10.92 10.32 9.87 14.94C8.7 20.1 11.86 24.47 14.72 27.22C15.78 28.24 17.14 28.75 18.5 28.75C19.86 28.75 21.22 28.24 22.27 27.22C25.13 24.47 28.29 20.11 27.12 14.95ZM18.5 19.96C16.76 19.96 15.35 18.55 15.35 16.81C15.35 15.07 16.76 13.66 18.5 13.66C20.24 13.66 21.65 15.07 21.65 16.81C21.65 18.55 20.24 19.96 18.5 19.96Z" fill="#F53838"/>
</svg>
